<?xml version="1.0" encoding="utf-8"?>
<!-- Generator: Adobe Illustrator 25.4.1, SVG Export Plug-In . SVG Version: 6.00 Build 0)  -->
<svg version="1.1" id="Capa_1" xmlns="http://www.w3.org/2000/svg" xmlns:xlink="http://www.w3.org/1999/xlink" x="0px" y="0px"
	 viewBox="0 0 277.5 134.3" style="enable-background:new 0 0 277.5 134.3;" xml:space="preserve">
<style type="text/css">
	.st0{fill:#121212;}
	.st1{fill:#FFFFFF;}
	.st2{enable-background:new    ;}
</style>
<g>
	<g>
		<path class="st0" d="M204.6,109.8H54.9C24.6,109.8,0,85.2,0,54.9l0,0C0,24.6,24.6,0,54.9,0h149.7c30.3,0,54.9,24.6,54.9,54.9l0,0
			C259.5,85.2,234.9,109.8,204.6,109.8z"/>
	</g>
	<g>
		<polygon class="st1" points="218.6,78.5 269.4,98.3 256.6,107.9 272.8,124.3 265.2,132.3 248.8,115.9 239,127.1 		"/>
		<path class="st1" d="M265.2,133.8c-0.4,0-0.8-0.2-1.1-0.4l-15.3-15.3l-8.7,10c-0.3,0.4-0.9,0.6-1.4,0.5s-0.9-0.4-1.1-0.9
			l-20.4-48.6c-0.2-0.6-0.1-1.2,0.3-1.6c0.4-0.4,1.1-0.6,1.6-0.4l50.8,19.8c0.5,0.2,0.9,0.7,0.9,1.2c0.1,0.5-0.2,1.1-0.6,1.4
			l-11.4,8.6l15,15.2c0.6,0.6,0.6,1.5,0,2.1l-7.6,8C266,133.6,265.6,133.8,265.2,133.8L265.2,133.8z M248.8,114.4
			c0.4,0,0.8,0.2,1.1,0.4l15.3,15.3l5.5-5.8L255.5,109c-0.3-0.3-0.5-0.7-0.4-1.2c0-0.4,0.2-0.8,0.6-1.1l10.6-8l-45-17.5l18.1,43.1
			l8.2-9.4C247.9,114.6,248.3,114.4,248.8,114.4L248.8,114.4z"/>
	</g>
	<g>
		<polygon class="st1" points="221.8,79 272.6,98.7 259.8,108.4 276,124.8 268.3,132.8 251.9,116.4 242.1,127.6 		"/>
		<path class="st0" d="M268.3,134.3c-0.4,0-0.8-0.2-1.1-0.4L252,118.6l-8.7,10c-0.3,0.4-0.9,0.6-1.4,0.5s-0.9-0.4-1.1-0.9
			l-20.3-48.6c-0.2-0.6-0.1-1.2,0.3-1.6c0.4-0.4,1.1-0.6,1.6-0.4l50.8,19.7c0.5,0.2,0.9,0.7,0.9,1.2c0.1,0.5-0.1,1.1-0.6,1.4
			l-11.4,8.7l15,15.2c0.6,0.6,0.6,1.5,0,2.1l-7.7,8C269.1,134.1,268.7,134.3,268.3,134.3L268.3,134.3z M251.9,114.9
			c0.4,0,0.8,0.2,1.1,0.4l15.3,15.3l5.6-5.8l-15.2-15.4c-0.3-0.3-0.5-0.7-0.4-1.2s0.2-0.8,0.6-1.1l10.7-8.1l-45-17.5l18,43.1
			l8.2-9.4C251,115.1,251.4,114.9,251.9,114.9L251.9,114.9z"/>
	</g>
	<g>
		<g class="st2">
			<path class="st1" d="M38.4,43.7V26.2c0-0.6,0.3-1,1-1h7.8c0.6,0,1,0.3,1,1c0,0.6-0.3,1-1,1h-6.8V33h4.9c0.6,0,1,0.3,1,1
				c0,0.6-0.3,1-1,1h-4.9v7.8h6.8c0.6,0,1,0.3,1,1c0,0.6-0.3,1-1,1h-7.8C38.7,44.7,38.4,44.4,38.4,43.7z"/>
			<path class="st1" d="M59.8,41.3c0-0.6-0.3-1.1-0.8-1.3l-5-2.4c-1.3-0.6-2-1.7-2-3.1c0-1.1,0.5-2,1.4-2.6c0.8-0.5,1.8-0.8,3-0.8
				c1.4,0,2.7,0.4,3.9,1.1c0.3,0.2,0.5,0.5,0.5,0.9c0,0.3-0.1,0.5-0.3,0.7C60.3,33.9,60,34,59.8,34s-0.3,0-0.5-0.1
				c-0.9-0.6-1.9-0.8-3-0.8c-1.6,0-2.4,0.5-2.4,1.4c0,0.6,0.3,1,0.8,1.3l5,2.4c1.3,0.6,1.9,1.7,1.9,3.1c0,1.2-0.5,2.1-1.4,2.7
				c-0.8,0.5-1.8,0.8-3.1,0.8c-1.9,0-3.4-0.4-4.7-1.1c-0.4-0.2-0.5-0.5-0.5-0.9c0-0.3,0.1-0.5,0.3-0.7s0.4-0.3,0.7-0.3
				c0.1,0,0.3,0,0.4,0.1c0.3,0.1,0.8,0.3,1.4,0.5c0.9,0.2,1.7,0.4,2.6,0.4C58.9,42.8,59.8,42.3,59.8,41.3z"/>
			<path class="st1" d="M65.6,32.1c0-0.6,0.3-1,1-1h4.9c1.1,0,2,0.4,2.8,1.1c0.8,0.8,1.1,1.7,1.1,2.8v5.8c0,1.1-0.4,2-1.1,2.8
				s-1.7,1.1-2.8,1.1h-3.9v4.9c0,0.6-0.3,1-1,1s-1-0.3-1-1V32.1z M67.5,33v9.7h3.9c0.5,0,1-0.2,1.4-0.6s0.6-0.8,0.6-1.4V35
				c0-0.5-0.2-1-0.6-1.4C72.4,33.2,72,33,71.4,33H67.5z"/>
			<path class="st1" d="M81.1,38.9v1.9c0,0.5,0.2,1,0.6,1.4s0.8,0.6,1.4,0.6H88c0.6,0,1,0.3,1,1c0,0.6-0.3,1-1,1h-4.9
				c-1.1,0-2-0.4-2.8-1.1c-0.8-0.8-1.1-1.7-1.1-2.8V36c0-1.3,0.5-2.5,1.4-3.4c0.9-0.9,2.1-1.4,3.4-1.4c1.4,0,2.5,0.5,3.5,1.4
				c0.9,0.9,1.4,2.1,1.4,3.5V39L81.1,38.9L81.1,38.9z M84.1,33c-0.8,0-1.5,0.3-2.1,0.9c-0.6,0.6-0.9,1.3-0.9,2.1v1H87v-1
				c0-0.8-0.3-1.5-0.9-2.1C85.6,33.3,84.9,33,84.1,33z"/>
			<path class="st1" d="M94.8,35v5.8c0,0.5,0.2,1,0.6,1.4s0.8,0.6,1.4,0.6h2.9c0.6,0,1,0.3,1,1c0,0.6-0.3,1-1,1h-2.9
				c-1.1,0-2-0.4-2.8-1.1c-0.8-0.8-1.1-1.7-1.1-2.8V35c0-1.1,0.4-2,1.1-2.8c0.8-0.8,1.7-1.1,2.8-1.1h2.9c0.6,0,1,0.3,1,1
				c0,0.6-0.3,1-1,1h-2.9c-0.5,0-1,0.2-1.4,0.6C94.9,34,94.8,34.5,94.8,35z"/>
			<path class="st1" d="M104.5,27.2v-1c0-0.6,0.3-1,1-1s1,0.3,1,1v1c0,0.6-0.3,1-1,1S104.5,27.9,104.5,27.2z M104.5,32.1
				c0-0.6,0.3-1,1-1s1,0.3,1,1v11.7c0,0.6-0.3,1-1,1s-1-0.3-1-1V32.1z"/>
			<path class="st1" d="M111.3,31.1h1v-1.9c0-1.1,0.4-2,1.1-2.8c0.8-0.8,1.7-1.1,2.8-1.1h1c0.6,0,1,0.3,1,1c0,0.6-0.3,1-1,1h-1
				c-0.5,0-1,0.2-1.4,0.6s-0.6,0.8-0.6,1.4v1.9h2.9c0.6,0,1,0.3,1,1c0,0.6-0.3,1-1,1h-2.9v10.7c0,0.6-0.3,1-1,1s-1-0.3-1-1V33h-1
				c-0.6,0-1-0.3-1-1C110.3,31.4,110.6,31.1,111.3,31.1z"/>
			<path class="st1" d="M122,27.2v-1c0-0.6,0.3-1,1-1s1,0.3,1,1v1c0,0.6-0.3,1-1,1S122,27.9,122,27.2z M122,32.1c0-0.6,0.3-1,1-1
				s1,0.3,1,1v11.7c0,0.6-0.3,1-1,1s-1-0.3-1-1V32.1z"/>
			<path class="st1" d="M129.7,35v5.8c0,0.5,0.2,1,0.6,1.4c0.4,0.4,0.8,0.6,1.4,0.6h2.9c0.6,0,1,0.3,1,1c0,0.6-0.3,1-1,1h-2.9
				c-1.1,0-2-0.4-2.8-1.1c-0.8-0.8-1.1-1.7-1.1-2.8V35c0-1.1,0.4-2,1.1-2.8c0.8-0.8,1.7-1.1,2.8-1.1h2.9c0.6,0,1,0.3,1,1
				c0,0.6-0.3,1-1,1h-2.9c-0.5,0-1,0.2-1.4,0.6C129.9,34,129.7,34.5,129.7,35z"/>
			<path class="st1" d="M143.4,44.7c-1.1,0-2-0.4-2.8-1.1s-1.1-1.7-1.1-2.8c0-0.7,0.2-1.4,0.5-2c0.7-1.3,1.9-1.9,3.4-1.9h3.9V35
				c0-0.5-0.2-1-0.6-1.4c-0.4-0.4-0.8-0.6-1.4-0.6h-3.9c-0.6,0-1-0.3-1-1c0-0.6,0.3-1,1-1h3.9c1.1,0,2,0.4,2.8,1.1
				c0.8,0.8,1.1,1.7,1.1,2.8v8.7c0,0.6-0.3,1-1,1h-4.8L143.4,44.7L143.4,44.7z M147.2,38.9h-3.9c-0.5,0-1,0.2-1.4,0.6
				s-0.6,0.8-0.6,1.4c0,0.5,0.2,1,0.6,1.4s0.8,0.6,1.4,0.6h3.9V38.9z"/>
			<path class="st1" d="M155,35v5.8c0,0.5,0.2,1,0.6,1.4c0.4,0.4,0.8,0.6,1.4,0.6h2.9c0.6,0,1,0.3,1,1c0,0.6-0.3,1-1,1H157
				c-1.1,0-2-0.4-2.8-1.1c-0.8-0.8-1.1-1.7-1.1-2.8V35c0-1.1,0.4-2,1.1-2.8c0.8-0.8,1.7-1.1,2.8-1.1h2.9c0.6,0,1,0.3,1,1
				c0,0.6-0.3,1-1,1H157c-0.5,0-1,0.2-1.4,0.6C155.2,34,155,34.5,155,35z"/>
			<path class="st1" d="M164.7,27.2v-1c0-0.6,0.3-1,1-1s1,0.3,1,1v1c0,0.6-0.3,1-1,1S164.7,27.9,164.7,27.2z M164.7,32.1
				c0-0.6,0.3-1,1-1s1,0.3,1,1v11.7c0,0.6-0.3,1-1,1s-1-0.3-1-1V32.1z"/>
			<path class="st1" d="M170.6,39.9V36c0-1.3,0.5-2.5,1.4-3.4s2.1-1.4,3.4-1.4c1.4,0,2.5,0.5,3.5,1.4c1,0.9,1.4,2.1,1.4,3.5V40
				c0,1.3-0.5,2.5-1.4,3.4s-2.1,1.4-3.4,1.4c-1.3,0-2.5-0.5-3.4-1.4S170.6,41.2,170.6,39.9z M178.3,39.9V36c0-0.8-0.3-1.5-0.9-2.1
				s-1.3-0.9-2.1-0.9s-1.5,0.3-2.1,0.9c-0.6,0.6-0.9,1.3-0.9,2.1v3.9c0,0.8,0.3,1.5,0.8,2.1c0.6,0.6,1.3,0.8,2.1,0.8
				s1.5-0.3,2.1-0.9S178.3,40.7,178.3,39.9z"/>
			<path class="st1" d="M184.2,43.7V32.1c0-0.6,0.3-1,1-1h4.9c1.1,0,2,0.4,2.8,1.1c0.8,0.8,1.1,1.7,1.1,2.8v8.7c0,0.6-0.3,1-1,1
				c-0.6,0-1-0.3-1-1V35c0-0.5-0.2-1-0.6-1.4c-0.4-0.4-0.8-0.6-1.4-0.6h-3.9v10.7c0,0.6-0.3,1-1,1S184.2,44.4,184.2,43.7z"/>
			<path class="st1" d="M199.7,38.9v1.9c0,0.5,0.2,1,0.6,1.4s0.8,0.6,1.4,0.6h4.9c0.6,0,1,0.3,1,1c0,0.6-0.3,1-1,1h-4.9
				c-1.1,0-2-0.4-2.8-1.1s-1.1-1.7-1.1-2.8V36c0-1.3,0.5-2.5,1.4-3.4c0.9-0.9,2.1-1.4,3.4-1.4c1.4,0,2.5,0.5,3.5,1.4
				c1,0.9,1.4,2.1,1.4,3.5V39L199.7,38.9L199.7,38.9z M202.6,33c-0.8,0-1.5,0.3-2.1,0.9s-0.9,1.3-0.9,2.1v1h5.8v-1
				c0-0.8-0.3-1.5-0.9-2.1C204.1,33.3,203.4,33,202.6,33z"/>
			<path class="st1" d="M219.2,41.3c0-0.6-0.3-1.1-0.8-1.3l-5-2.4c-1.3-0.6-2-1.7-2-3.1c0-1.1,0.5-2,1.4-2.6c0.8-0.5,1.8-0.8,3-0.8
				c1.4,0,2.7,0.4,3.9,1.1c0.3,0.2,0.5,0.5,0.5,0.9c0,0.3-0.1,0.5-0.3,0.7s-0.4,0.3-0.7,0.3c-0.2,0-0.3,0-0.5-0.1
				c-0.9-0.6-1.9-0.8-3-0.8c-1.6,0-2.4,0.5-2.4,1.4c0,0.6,0.3,1,0.8,1.3l5,2.4c1.3,0.6,1.9,1.7,1.9,3.1c0,1.2-0.5,2.1-1.4,2.7
				c-0.8,0.5-1.8,0.8-3.1,0.8c-1.9,0-3.4-0.4-4.7-1.1c-0.4-0.2-0.5-0.5-0.5-0.9c0-0.3,0.1-0.5,0.3-0.7s0.4-0.3,0.7-0.3
				c0.1,0,0.2,0,0.4,0.1c0.3,0.1,0.8,0.3,1.4,0.5c0.9,0.2,1.7,0.4,2.6,0.4C218.3,42.8,219.2,42.3,219.2,41.3z"/>
		</g>
		<g class="st2">
			<path class="st1" d="M58.9,61.5c0-0.9,0.4-1.3,1.3-1.3h12.9c0.9,0,1.3,0.4,1.3,1.3c0,0.9-0.4,1.3-1.3,1.3H68v21.9
				c0,0.9-0.4,1.3-1.3,1.3s-1.3-0.4-1.3-1.3v-22h-5.1C59.3,62.7,58.9,62.3,58.9,61.5z"/>
			<path class="st1" d="M79.5,84.6V61.5c0-0.9,0.4-1.3,1.3-1.3h10.3c0.9,0,1.3,0.4,1.3,1.3c0,0.9-0.4,1.3-1.3,1.3h-9v7.7h6.4
				c0.9,0,1.3,0.4,1.3,1.3S89.4,73,88.5,73h-6.4v10.3h9c0.9,0,1.3,0.4,1.3,1.3s-0.4,1.3-1.3,1.3H80.8C79.9,85.9,79.5,85.5,79.5,84.6
				z M83.4,56.3c-0.9,0-1.3-0.4-1.3-1.3c0-0.4,0.2-0.8,0.5-1l5.1-3.9c0.2-0.2,0.5-0.3,0.8-0.3c0.9,0,1.3,0.4,1.3,1.3
				c0,0.4-0.2,0.8-0.5,1L84.2,56C83.9,56.2,83.7,56.3,83.4,56.3z"/>
			<path class="st1" d="M109.1,60.2c0.9,0,1.3,0.4,1.3,1.3c0,0.9-0.4,1.3-1.3,1.3H104c-1.1,0-2,0.4-2.7,1.1
				c-0.7,0.8-1.1,1.7-1.1,2.7v12.9c0,1.1,0.4,2,1.1,2.7s1.7,1.1,2.7,1.1h5.1c0.9,0,1.3,0.4,1.3,1.3s-0.4,1.3-1.3,1.3H104
				c-1.8,0-3.3-0.6-4.6-1.9c-1.3-1.3-1.9-2.8-1.9-4.6V66.6c0-1.8,0.6-3.3,1.9-4.6s2.8-1.9,4.6-1.9h5.1V60.2z"/>
			<path class="st1" d="M128.4,79.7V61.5c0-0.9,0.4-1.3,1.3-1.3c0.9,0,1.3,0.4,1.3,1.3v23.2c0,0.9-0.4,1.3-1.3,1.3
				c-0.5,0-0.9-0.2-1.1-0.6l-10.5-18.9v18.2c0,0.9-0.4,1.3-1.3,1.3s-1.3-0.4-1.3-1.3V61.5c0-0.9,0.4-1.3,1.3-1.3
				c0.5,0,0.9,0.3,1.2,0.8L128.4,79.7z"/>
			<path class="st1" d="M137.4,85.9c-0.9,0-1.3-0.4-1.3-1.3V61.5c0-0.9,0.4-1.3,1.3-1.3s1.3,0.4,1.3,1.3v23.2
				C138.7,85.5,138.3,85.9,137.4,85.9z"/>
			<path class="st1" d="M155.4,60.2c0.9,0,1.3,0.4,1.3,1.3c0,0.9-0.4,1.3-1.3,1.3h-5.1c-1.1,0-2,0.4-2.7,1.1
				c-0.7,0.8-1.1,1.7-1.1,2.7v12.9c0,1.1,0.4,2,1.1,2.7s1.7,1.1,2.7,1.1h5.1c0.9,0,1.3,0.4,1.3,1.3s-0.4,1.3-1.3,1.3h-5.1
				c-1.8,0-3.3-0.6-4.6-1.9s-1.9-2.8-1.9-4.6V66.6c0-1.8,0.6-3.3,1.9-4.6c1.3-1.3,2.8-1.9,4.6-1.9h5.1V60.2z"/>
			<path class="st1" d="M179.9,84.6c0,0.9-0.4,1.3-1.3,1.3c-0.6,0-1-0.3-1.2-0.9l-1.9-5.6h-9.3l-1.9,5.6c-0.2,0.6-0.6,0.9-1.2,0.9
				c-0.9,0-1.3-0.4-1.3-1.3c0-0.2,0-0.3,0.1-0.4l7.7-23c0.2-0.7,0.7-1,1.3-1s1,0.3,1.3,1l7.7,23.1C179.9,84.3,179.9,84.5,179.9,84.6
				z M170.9,65.6l-3.8,11.3h7.6L170.9,65.6z"/>
			<path class="st1" d="M200.5,79.5c0,1.8-0.6,3.3-1.9,4.5s-2.8,1.9-4.5,1.9c-3.2,0-6-0.9-8.4-2.8c-0.4-0.3-0.6-0.6-0.6-1.1
				c0-0.4,0.1-0.7,0.4-0.9c0.3-0.3,0.6-0.4,0.9-0.4c0.2,0,0.5,0.1,0.7,0.2c0.8,0.5,1.9,1.1,3.5,1.8c1.1,0.4,2.2,0.5,3.4,0.5
				c1.1,0,2-0.4,2.7-1.1s1.1-1.7,1.1-2.7c0-1.6-0.7-2.7-2.1-3.5l-7.2-3.7c-2.3-1.2-3.5-3.1-3.5-5.7c0-1.8,0.6-3.3,1.9-4.5
				c1.3-1.3,2.8-1.9,4.5-1.9c3,0,5.4,0.5,7,1.4c0.5,0.3,0.8,0.7,0.8,1.2c0,0.4-0.1,0.7-0.4,0.9c-0.3,0.3-0.6,0.4-0.9,0.4
				c-0.1,0-0.3,0-0.5-0.1c-2-0.8-3.9-1.2-5.9-1.2c-1.1,0-2,0.4-2.7,1.1c-0.8,0.8-1.1,1.7-1.1,2.7c0,1.6,0.7,2.7,2.1,3.4l7.2,3.7
				C199.3,75,200.5,76.9,200.5,79.5z"/>
		</g>
	</g>
	<g class="st2">
		<path class="st0" d="M129,115.2c0.5,0,0.7,0.2,0.7,0.7s-0.2,0.7-0.7,0.7h-3c-0.6,0-1.2,0.2-1.6,0.7c-0.4,0.4-0.6,1-0.6,1.6v7.4
			c0,0.6,0.2,1.1,0.7,1.6c0.4,0.4,1,0.7,1.6,0.7h3c0.5,0,0.7,0.2,0.7,0.7c0,0.5-0.2,0.7-0.7,0.7h-3c-1,0-1.9-0.4-2.6-1.1
			c-0.7-0.7-1.1-1.6-1.1-2.6v-7.4c0-1,0.4-1.9,1.1-2.6c0.7-0.7,1.6-1.1,2.6-1.1H129z"/>
		<path class="st0" d="M132.7,116c0-0.5,0.2-0.7,0.7-0.7c0.5,0,0.7,0.2,0.7,0.7v11.9c0,0.4,0.2,0.6,0.7,0.7c0.5,0.1,0.7,0.4,0.7,0.7
			c0,0.5-0.2,0.7-0.7,0.7c-0.7,0-1.2-0.2-1.6-0.6c-0.4-0.4-0.6-0.9-0.6-1.6V116z"/>
		<path class="st0" d="M138.7,116.7V116c0-0.5,0.2-0.7,0.7-0.7c0.5,0,0.7,0.2,0.7,0.7v0.7c0,0.5-0.2,0.7-0.7,0.7
			C138.9,117.4,138.7,117.2,138.7,116.7z M138.7,120.4c0-0.5,0.2-0.7,0.7-0.7c0.5,0,0.7,0.2,0.7,0.7v8.9c0,0.5-0.2,0.7-0.7,0.7
			c-0.5,0-0.7-0.2-0.7-0.7V120.4z"/>
		<path class="st0" d="M144.7,122.7v4.5c0,0.4,0.1,0.8,0.4,1c0.3,0.3,0.6,0.4,1,0.4h2.2c0.5,0,0.7,0.2,0.7,0.7
			c0,0.5-0.2,0.7-0.7,0.7h-2.2c-0.8,0-1.5-0.3-2.1-0.9c-0.6-0.6-0.9-1.3-0.9-2.1v-4.5c0-0.8,0.3-1.5,0.9-2.1
			c0.6-0.6,1.3-0.9,2.1-0.9h2.2c0.5,0,0.7,0.2,0.7,0.7c0,0.5-0.2,0.7-0.7,0.7h-2.2c-0.4,0-0.8,0.1-1.1,0.4
			C144.8,121.9,144.7,122.2,144.7,122.7z"/>
		<path class="st0" d="M153.6,125.3v4.1c0,0.5-0.2,0.7-0.7,0.7s-0.7-0.2-0.7-0.7V116c0-0.5,0.2-0.7,0.7-0.7s0.7,0.2,0.7,0.7v7.4
			l4.8-3.6c0.1-0.1,0.3-0.1,0.5-0.1c0.5,0,0.7,0.2,0.7,0.7c0,0.3-0.1,0.5-0.3,0.6l-2.9,2.2l3.1,5.8c0.1,0.1,0.1,0.2,0.1,0.4
			c0,0.2-0.1,0.4-0.2,0.5c-0.1,0.1-0.3,0.2-0.5,0.2c-0.3,0-0.5-0.1-0.7-0.4l-3-5.6L153.6,125.3z"/>
		<path class="st0" d="M174.4,130.1c-0.8,0-1.5-0.3-2.1-0.9c-0.6-0.6-0.9-1.3-0.9-2.1c0-0.5,0.1-1,0.4-1.5c0.6-1,1.4-1.5,2.6-1.5h3
			v-1.5c0-0.4-0.1-0.8-0.4-1.1s-0.6-0.4-1.1-0.4h-3c-0.5,0-0.7-0.2-0.7-0.7c0-0.5,0.2-0.7,0.7-0.7h3c0.8,0,1.5,0.3,2.1,0.9
			c0.6,0.6,0.9,1.3,0.9,2.1v6.7c0,0.5-0.2,0.7-0.7,0.7H174.4z M177.4,125.6h-3c-0.4,0-0.8,0.1-1.1,0.4c-0.3,0.3-0.4,0.6-0.4,1.1
			c0,0.4,0.1,0.8,0.4,1c0.3,0.3,0.6,0.4,1,0.4h3V125.6z"/>
		<path class="st0" d="M189.3,120.4v13.4c0,0.5-0.2,0.7-0.7,0.7s-0.7-0.2-0.7-0.7v-3.7h-3c-0.8,0-1.5-0.3-2.1-0.9s-0.9-1.3-0.9-2.1
			v-4.5c0-0.8,0.3-1.5,0.9-2.1s1.3-0.9,2.1-0.9h3.7C189.1,119.7,189.3,119.9,189.3,120.4z M187.8,121.2h-3c-0.4,0-0.8,0.1-1.1,0.4
			c-0.3,0.3-0.4,0.6-0.4,1.1v4.5c0,0.4,0.1,0.8,0.4,1c0.3,0.3,0.6,0.4,1,0.4h3V121.2z"/>
		<path class="st0" d="M199.8,120.4v8.9c0,0.5-0.2,0.7-0.7,0.7h-3.7c-0.8,0-1.5-0.3-2.1-0.9s-0.9-1.3-0.9-2.1v-6.7
			c0-0.5,0.2-0.7,0.7-0.7c0.5,0,0.7,0.2,0.7,0.7v6.7c0,0.4,0.1,0.8,0.4,1c0.3,0.3,0.6,0.4,1,0.4h3v-8.2c0-0.5,0.2-0.7,0.7-0.7
			S199.8,119.9,199.8,120.4z"/>
		<path class="st0" d="M202.7,116.7V116c0-0.5,0.2-0.7,0.7-0.7c0.5,0,0.7,0.2,0.7,0.7v0.7c0,0.5-0.2,0.7-0.7,0.7
			C203,117.4,202.7,117.2,202.7,116.7z M202.7,120.4c0-0.5,0.2-0.7,0.7-0.7c0.5,0,0.7,0.2,0.7,0.7v8.9c0,0.5-0.2,0.7-0.7,0.7
			c-0.5,0-0.7-0.2-0.7-0.7V120.4z"/>
	</g>
</g>
</svg>
