<svg id="Capa_1" data-name="Capa 1" xmlns="http://www.w3.org/2000/svg" viewBox="0 0 1130.55 565.4"><defs><style>.cls-1{fill:#3f52a0;}</style></defs><g id="Layer_2" data-name="Layer 2"><g id="Layer_1-2" data-name="Layer 1-2"><path class="cls-1" d="M103.65,137.55a3.87,3.87,0,0,0-3.9,3.7v.2a3.9,3.9,0,0,0,7.8,0h0v-.2A3.87,3.87,0,0,0,103.65,137.55Z"/><path class="cls-1" d="M66,137.55a3.87,3.87,0,0,0-3.9,3.7v.2a3.9,3.9,0,1,0,7.8,0h0v-.2A3.87,3.87,0,0,0,66,137.55Z"/><path class="cls-1" d="M28.25,137.55a3.87,3.87,0,0,0-3.9,3.7v.2a3.9,3.9,0,0,0,7.8,0v-.2A3.87,3.87,0,0,0,28.25,137.55Z"/><path class="cls-1" d="M122.55,118.65a3.9,3.9,0,1,0,3.9,3.9A4,4,0,0,0,122.55,118.65Z"/><path class="cls-1" d="M84.85,118.65a3.9,3.9,0,1,0,3.9,3.9A4,4,0,0,0,84.85,118.65Z"/><path class="cls-1" d="M47.15,118.65a3.9,3.9,0,1,0,3.9,3.9A4,4,0,0,0,47.15,118.65Z"/><path class="cls-1" d="M9.45,118.65a3.9,3.9,0,1,0,3.9,3.9A4,4,0,0,0,9.45,118.65Z"/><path class="cls-1" d="M103.65,99.85a3.9,3.9,0,1,0,3.9,3.9,3.84,3.84,0,0,0-3.78-3.9Z"/><path class="cls-1" d="M66,99.85a3.9,3.9,0,1,0,3.9,3.9,3.84,3.84,0,0,0-3.78-3.9Z"/><path class="cls-1" d="M28.25,99.85a3.9,3.9,0,1,0,3.9,3.9,3.84,3.84,0,0,0-3.78-3.9Z"/><path class="cls-1" d="M122.55,81a3.9,3.9,0,1,0,3.9,3.9A4,4,0,0,0,122.55,81Z"/><path class="cls-1" d="M84.85,81a3.9,3.9,0,1,0,3.9,3.9A4,4,0,0,0,84.85,81Z"/><path class="cls-1" d="M47.15,81a3.9,3.9,0,1,0,3.9,3.9A4,4,0,0,0,47.15,81Z"/><path class="cls-1" d="M9.45,81a3.9,3.9,0,1,0,3.9,3.9A4,4,0,0,0,9.45,81Z"/><path class="cls-1" d="M103.65,62.15a3.9,3.9,0,1,0,3.9,3.9,3.84,3.84,0,0,0-3.78-3.9Z"/><path class="cls-1" d="M66,62.15a3.9,3.9,0,1,0,3.9,3.9,3.84,3.84,0,0,0-3.78-3.9Z"/><path class="cls-1" d="M28.25,62.15a3.9,3.9,0,1,0,3.9,3.9,3.84,3.84,0,0,0-3.78-3.9Z"/><path class="cls-1" d="M122.55,43.35a3.9,3.9,0,1,0,3.9,3.9A4,4,0,0,0,122.55,43.35Z"/><path class="cls-1" d="M84.85,43.35a3.9,3.9,0,1,0,3.9,3.9,3.91,3.91,0,0,0-3.9-3.9Z"/><path class="cls-1" d="M47.15,43.35a3.9,3.9,0,1,0,3.9,3.9,3.91,3.91,0,0,0-3.9-3.9Z"/><path class="cls-1" d="M9.45,43.35a3.9,3.9,0,1,0,3.9,3.9,3.91,3.91,0,0,0-3.9-3.9Z"/><path class="cls-1" d="M103.65,24.45a3.9,3.9,0,1,0,3.9,3.9,3.91,3.91,0,0,0-3.9-3.9Z"/><path class="cls-1" d="M66,24.45a3.9,3.9,0,1,0,3.9,3.9,3.91,3.91,0,0,0-3.9-3.9Z"/><path class="cls-1" d="M28.25,24.45a3.9,3.9,0,1,0,3.9,3.9h0A3.91,3.91,0,0,0,28.25,24.45Z"/><path class="cls-1" d="M122.55,5.65a3.9,3.9,0,1,0,3.9,3.9A4,4,0,0,0,122.55,5.65Z"/><path class="cls-1" d="M84.85,5.65a3.9,3.9,0,1,0,3.9,3.9,3.91,3.91,0,0,0-3.9-3.9Z"/><path class="cls-1" d="M47.15,5.65a3.9,3.9,0,1,0,3.9,3.9,3.91,3.91,0,0,0-3.9-3.9Z"/><path class="cls-1" d="M9.45,5.65a3.9,3.9,0,1,0,3.9,3.9h0A3.91,3.91,0,0,0,9.45,5.65Z"/><path class="cls-1" d="M254.45,137.55a3.87,3.87,0,0,0-3.9,3.7v.2a3.9,3.9,0,0,0,7.8,0h0v-.2A3.87,3.87,0,0,0,254.45,137.55Z"/><path class="cls-1" d="M216.75,137.55a3.87,3.87,0,0,0-3.9,3.7v.2a3.9,3.9,0,0,0,7.8,0h0v-.2A3.87,3.87,0,0,0,216.75,137.55Z"/><path class="cls-1" d="M179.05,137.55a3.87,3.87,0,0,0-3.9,3.7v.2a3.9,3.9,0,1,0,7.8,0h0v-.2A3.87,3.87,0,0,0,179.05,137.55Z"/><path class="cls-1" d="M141.35,137.55h-.2a3.9,3.9,0,0,0-3.7,3.7v.2a3.87,3.87,0,0,0,3.7,3.9h.2a3.91,3.91,0,0,0,3.9-3.9v-.2A3.87,3.87,0,0,0,141.35,137.55Z"/><path class="cls-1" d="M273.25,118.65a3.9,3.9,0,1,0,3.9,3.9h0A3.91,3.91,0,0,0,273.25,118.65Z"/><path class="cls-1" d="M235.55,118.65a3.9,3.9,0,1,0,3.9,3.9h0A3.91,3.91,0,0,0,235.55,118.65Z"/><path class="cls-1" d="M197.85,118.65a3.9,3.9,0,1,0,3.9,3.9h0A3.91,3.91,0,0,0,197.85,118.65Z"/><path class="cls-1" d="M160.15,118.65a3.9,3.9,0,1,0,3.9,3.9h0A3.91,3.91,0,0,0,160.15,118.65Z"/><path class="cls-1" d="M254.45,99.85a3.9,3.9,0,1,0,3.9,3.9h0A3.91,3.91,0,0,0,254.45,99.85Z"/><path class="cls-1" d="M216.75,99.85a3.9,3.9,0,1,0,3.9,3.9h0A3.91,3.91,0,0,0,216.75,99.85Z"/><path class="cls-1" d="M179.05,99.85a3.9,3.9,0,1,0,3.9,3.9h0A3.91,3.91,0,0,0,179.05,99.85Z"/><path class="cls-1" d="M141.35,99.85h-.2a3.91,3.91,0,0,0,0,7.8h.2a3.9,3.9,0,1,0,0-7.8Z"/><path class="cls-1" d="M273.25,81a3.9,3.9,0,1,0,3.9,3.9h0A3.91,3.91,0,0,0,273.25,81Z"/><path class="cls-1" d="M235.55,81a3.9,3.9,0,1,0,3.9,3.9h0A3.91,3.91,0,0,0,235.55,81Z"/><path class="cls-1" d="M197.85,81a3.9,3.9,0,1,0,3.9,3.9h0A3.91,3.91,0,0,0,197.85,81Z"/><path class="cls-1" d="M160.15,81a3.9,3.9,0,1,0,3.9,3.9h0A3.91,3.91,0,0,0,160.15,81Z"/><path class="cls-1" d="M254.45,62.15a3.9,3.9,0,1,0,3.9,3.9h0A3.91,3.91,0,0,0,254.45,62.15Z"/><path class="cls-1" d="M216.75,62.15a3.9,3.9,0,1,0,3.9,3.9h0A3.91,3.91,0,0,0,216.75,62.15Z"/><path class="cls-1" d="M179.05,62.15a3.9,3.9,0,1,0,3.9,3.9h0A3.91,3.91,0,0,0,179.05,62.15Z"/><path class="cls-1" d="M141.35,62.15h-.2a3.91,3.91,0,0,0,0,7.8h.2a3.9,3.9,0,1,0,0-7.8Z"/><path class="cls-1" d="M273.25,43.35a3.9,3.9,0,1,0,3.9,3.9h0a3.84,3.84,0,0,0-3.78-3.9Z"/><path class="cls-1" d="M235.55,43.35a3.9,3.9,0,1,0,3.9,3.9h0a3.84,3.84,0,0,0-3.78-3.9Z"/><path class="cls-1" d="M197.85,43.35a3.9,3.9,0,1,0,3.9,3.9h0a3.84,3.84,0,0,0-3.78-3.9Z"/><path class="cls-1" d="M160.15,43.35a3.9,3.9,0,1,0,3.9,3.9h0a3.84,3.84,0,0,0-3.78-3.9Z"/><path class="cls-1" d="M254.45,24.45a3.9,3.9,0,1,0,3.9,3.9h0A4,4,0,0,0,254.45,24.45Z"/><path class="cls-1" d="M216.75,24.45a3.9,3.9,0,1,0,3.9,3.9h0A4,4,0,0,0,216.75,24.45Z"/><path class="cls-1" d="M179.05,24.45a3.9,3.9,0,1,0,3.9,3.9h0A4,4,0,0,0,179.05,24.45Z"/><path class="cls-1" d="M141.35,24.45h-.2a3.91,3.91,0,0,0,0,7.8h.2a3.91,3.91,0,0,0,3.9-3.9A4,4,0,0,0,141.35,24.45Z"/><path class="cls-1" d="M273.25,5.65a3.9,3.9,0,1,0,3.9,3.9h0a3.84,3.84,0,0,0-3.78-3.9Z"/><path class="cls-1" d="M235.55,5.65a3.9,3.9,0,1,0,3.9,3.9h0a3.84,3.84,0,0,0-3.78-3.9Z"/><path class="cls-1" d="M197.85,5.65a3.9,3.9,0,1,0,3.9,3.9h0A3.84,3.84,0,0,0,198,5.65Z"/><path class="cls-1" d="M160.15,5.65a3.9,3.9,0,1,0,3.9,3.9h0a3.84,3.84,0,0,0-3.78-3.9Z"/><path class="cls-1" d="M103.65,288.25a3.87,3.87,0,0,0-3.9,3.7v.2a3.9,3.9,0,1,0,7.8,0V292A3.94,3.94,0,0,0,103.65,288.25Z"/><path class="cls-1" d="M66,288.25a3.87,3.87,0,0,0-3.9,3.7v.2a3.9,3.9,0,1,0,7.8,0V292A3.94,3.94,0,0,0,66,288.25Z"/><path class="cls-1" d="M28.25,288.25a3.87,3.87,0,0,0-3.9,3.7v.2a3.9,3.9,0,1,0,7.8,0h0V292A3.94,3.94,0,0,0,28.25,288.25Z"/><path class="cls-1" d="M122.55,269.45a3.9,3.9,0,1,0,3.9,3.9h0A4,4,0,0,0,122.55,269.45Z"/><path class="cls-1" d="M84.85,269.45a3.9,3.9,0,1,0,3.9,3.9h0A3.91,3.91,0,0,0,84.85,269.45Z"/><path class="cls-1" d="M47.15,269.45a3.9,3.9,0,1,0,3.9,3.9h0A3.91,3.91,0,0,0,47.15,269.45Z"/><path class="cls-1" d="M9.45,269.45a3.9,3.9,0,1,0,3.9,3.9h0A3.91,3.91,0,0,0,9.45,269.45Z"/><path class="cls-1" d="M103.65,250.65a3.9,3.9,0,1,0,3.9,3.9h0a3.84,3.84,0,0,0-3.78-3.9Z"/><path class="cls-1" d="M66,250.65a3.9,3.9,0,1,0,3.9,3.9h0a3.84,3.84,0,0,0-3.78-3.9Z"/><path class="cls-1" d="M28.25,250.65a3.9,3.9,0,1,0,3.9,3.9h0a3.84,3.84,0,0,0-3.78-3.9Z"/><path class="cls-1" d="M122.55,231.75a3.9,3.9,0,1,0,3.9,3.9h0A4,4,0,0,0,122.55,231.75Z"/><path class="cls-1" d="M84.85,231.75a3.9,3.9,0,1,0,3.9,3.9h0A4,4,0,0,0,84.85,231.75Z"/><path class="cls-1" d="M47.15,231.75a3.9,3.9,0,1,0,3.9,3.9h0A4,4,0,0,0,47.15,231.75Z"/><path class="cls-1" d="M9.45,231.75a3.9,3.9,0,1,0,3.9,3.9h0A4,4,0,0,0,9.45,231.75Z"/><path class="cls-1" d="M103.65,213a3.9,3.9,0,1,0,3.9,3.9h0a3.84,3.84,0,0,0-3.78-3.9Z"/><path class="cls-1" d="M66,213a3.9,3.9,0,1,0,3.9,3.9h0a3.84,3.84,0,0,0-3.78-3.9Z"/><path class="cls-1" d="M28.25,213a3.9,3.9,0,1,0,3.9,3.9h0a3.84,3.84,0,0,0-3.78-3.9Z"/><path class="cls-1" d="M122.55,194.05a3.9,3.9,0,1,0,3.9,3.9h0A4,4,0,0,0,122.55,194.05Z"/><path class="cls-1" d="M84.85,194.05a3.9,3.9,0,1,0,3.9,3.9h0A4,4,0,0,0,84.85,194.05Z"/><path class="cls-1" d="M47.15,194.05a3.9,3.9,0,1,0,3.9,3.9h0A4,4,0,0,0,47.15,194.05Z"/><path class="cls-1" d="M9.45,194.05a3.9,3.9,0,1,0,3.9,3.9h0A4,4,0,0,0,9.45,194.05Z"/><path class="cls-1" d="M103.65,175.25a3.9,3.9,0,1,0,3.9,3.9h0a3.84,3.84,0,0,0-3.78-3.9Z"/><path class="cls-1" d="M66,175.25a3.9,3.9,0,1,0,3.9,3.9h0a3.84,3.84,0,0,0-3.78-3.9Z"/><path class="cls-1" d="M28.25,175.25a3.9,3.9,0,1,0,3.9,3.9h0a3.84,3.84,0,0,0-3.78-3.9Z"/><path class="cls-1" d="M122.55,156.35a3.9,3.9,0,1,0,3.9,3.9h0A4,4,0,0,0,122.55,156.35Z"/><path class="cls-1" d="M84.85,156.35a3.9,3.9,0,1,0,3.9,3.9h0A4,4,0,0,0,84.85,156.35Z"/><path class="cls-1" d="M47.15,156.35a3.9,3.9,0,1,0,3.9,3.9h0A4,4,0,0,0,47.15,156.35Z"/><path class="cls-1" d="M9.45,156.35a3.9,3.9,0,1,0,3.9,3.9h0A4,4,0,0,0,9.45,156.35Z"/><path class="cls-1" d="M254.45,288.25a3.87,3.87,0,0,0-3.9,3.7v.2a3.9,3.9,0,0,0,7.8,0V292A3.94,3.94,0,0,0,254.45,288.25Z"/><path class="cls-1" d="M216.75,288.25a3.87,3.87,0,0,0-3.9,3.7v.2a3.9,3.9,0,0,0,7.8,0V292A3.94,3.94,0,0,0,216.75,288.25Z"/><path class="cls-1" d="M179.05,288.25a3.87,3.87,0,0,0-3.9,3.7v.2a3.9,3.9,0,0,0,7.8,0V292A3.94,3.94,0,0,0,179.05,288.25Z"/><path class="cls-1" d="M141.35,288.25h-.2a3.9,3.9,0,0,0-3.7,3.7v.2a3.87,3.87,0,0,0,3.7,3.9h.2a3.91,3.91,0,0,0,3.9-3.9V292A3.94,3.94,0,0,0,141.35,288.25Z"/><path class="cls-1" d="M273.25,269.45a3.9,3.9,0,1,0,3.9,3.9h0a3.84,3.84,0,0,0-3.78-3.9Z"/><path class="cls-1" d="M235.55,269.45a3.9,3.9,0,1,0,3.9,3.9h0a3.84,3.84,0,0,0-3.78-3.9Z"/><path class="cls-1" d="M197.85,269.45a3.9,3.9,0,1,0,3.9,3.9h0a3.84,3.84,0,0,0-3.78-3.9Z"/><path class="cls-1" d="M160.15,269.45a3.9,3.9,0,1,0,3.9,3.9h0a3.84,3.84,0,0,0-3.78-3.9Z"/><path class="cls-1" d="M254.45,250.65a3.9,3.9,0,1,0,3.9,3.9h0A3.91,3.91,0,0,0,254.45,250.65Z"/><path class="cls-1" d="M216.75,250.65a3.9,3.9,0,1,0,3.9,3.9h0A3.91,3.91,0,0,0,216.75,250.65Z"/><path class="cls-1" d="M179.05,250.65a3.9,3.9,0,1,0,3.9,3.9h0A3.91,3.91,0,0,0,179.05,250.65Z"/><path class="cls-1" d="M141.35,250.65h-.2a3.91,3.91,0,0,0,0,7.8h.2a3.9,3.9,0,0,0,0-7.8Z"/><path class="cls-1" d="M273.25,231.75a3.9,3.9,0,1,0,3.9,3.9h0A3.91,3.91,0,0,0,273.25,231.75Z"/><path class="cls-1" d="M235.55,231.75a3.9,3.9,0,1,0,3.9,3.9h0A3.91,3.91,0,0,0,235.55,231.75Z"/><path class="cls-1" d="M197.85,231.75a3.9,3.9,0,1,0,3.9,3.9h0A3.91,3.91,0,0,0,197.85,231.75Z"/><path class="cls-1" d="M160.15,231.75a3.9,3.9,0,1,0,3.9,3.9h0A3.91,3.91,0,0,0,160.15,231.75Z"/><path class="cls-1" d="M254.45,213a3.9,3.9,0,1,0,3.9,3.9h0A3.91,3.91,0,0,0,254.45,213Z"/><path class="cls-1" d="M216.75,213a3.9,3.9,0,1,0,3.9,3.9h0A3.91,3.91,0,0,0,216.75,213Z"/><path class="cls-1" d="M179.05,213a3.9,3.9,0,1,0,3.9,3.9h0A3.91,3.91,0,0,0,179.05,213Z"/><path class="cls-1" d="M141.35,213h-.2a3.91,3.91,0,0,0,0,7.8h.2a3.9,3.9,0,0,0,0-7.8Z"/><path class="cls-1" d="M273.25,194.05a3.9,3.9,0,1,0,3.9,3.9h0A3.91,3.91,0,0,0,273.25,194.05Z"/><path class="cls-1" d="M235.55,194.05a3.9,3.9,0,1,0,3.9,3.9h0A3.91,3.91,0,0,0,235.55,194.05Z"/><path class="cls-1" d="M197.85,194.05a3.9,3.9,0,1,0,3.9,3.9h0A3.91,3.91,0,0,0,197.85,194.05Z"/><path class="cls-1" d="M160.15,194.05a3.9,3.9,0,1,0,3.9,3.9h0A3.91,3.91,0,0,0,160.15,194.05Z"/><path class="cls-1" d="M254.45,175.25a3.9,3.9,0,1,0,3.9,3.9h0A3.91,3.91,0,0,0,254.45,175.25Z"/><path class="cls-1" d="M216.75,175.25a3.9,3.9,0,1,0,3.9,3.9h0A3.91,3.91,0,0,0,216.75,175.25Z"/><path class="cls-1" d="M179.05,175.25a3.9,3.9,0,1,0,3.9,3.9h0A3.91,3.91,0,0,0,179.05,175.25Z"/><path class="cls-1" d="M141.35,175.25h-.2a3.91,3.91,0,0,0,0,7.8h.2a3.9,3.9,0,0,0,0-7.8Z"/><path class="cls-1" d="M273.25,156.35a3.9,3.9,0,1,0,3.9,3.9h0A3.91,3.91,0,0,0,273.25,156.35Z"/><path class="cls-1" d="M235.55,156.35a3.9,3.9,0,1,0,3.9,3.9h0A3.91,3.91,0,0,0,235.55,156.35Z"/><path class="cls-1" d="M197.85,156.35a3.9,3.9,0,1,0,3.9,3.9h0A3.91,3.91,0,0,0,197.85,156.35Z"/><path class="cls-1" d="M160.15,156.35a3.9,3.9,0,1,0,3.9,3.9h0A3.91,3.91,0,0,0,160.15,156.35Z"/><path class="cls-1" d="M405.15,137.55a3.87,3.87,0,0,0-3.9,3.7v.2a3.9,3.9,0,1,0,7.8,0h0v-.2A3.87,3.87,0,0,0,405.15,137.55Z"/><path class="cls-1" d="M367.45,137.55a3.87,3.87,0,0,0-3.9,3.7v.2a3.9,3.9,0,1,0,7.8,0h0v-.2A3.87,3.87,0,0,0,367.45,137.55Z"/><path class="cls-1" d="M329.85,137.55a3.87,3.87,0,0,0-3.9,3.7v.2a3.9,3.9,0,1,0,7.8,0h0v-.2A4,4,0,0,0,329.85,137.55Z"/><path class="cls-1" d="M292.15,137.55H292a3.9,3.9,0,0,0-3.7,3.7v.2a3.87,3.87,0,0,0,3.7,3.9h.2a3.91,3.91,0,0,0,3.9-3.9v-.2A3.87,3.87,0,0,0,292.15,137.55Z"/><path class="cls-1" d="M424.05,118.65a3.9,3.9,0,1,0,3.9,3.9h0A4,4,0,0,0,424.05,118.65Z"/><path class="cls-1" d="M386.35,118.65a3.9,3.9,0,1,0,3.9,3.9h0A4,4,0,0,0,386.35,118.65Z"/><path class="cls-1" d="M348.65,118.65a3.9,3.9,0,1,0,3.9,3.9h0A4,4,0,0,0,348.65,118.65Z"/><path class="cls-1" d="M311,118.65a3.9,3.9,0,1,0,3.9,3.9h0A3.91,3.91,0,0,0,311,118.65Z"/><path class="cls-1" d="M405.15,99.85a3.9,3.9,0,1,0,3.9,3.9h0a3.84,3.84,0,0,0-3.78-3.9Z"/><path class="cls-1" d="M367.45,99.85a3.9,3.9,0,1,0,3.9,3.9h0a3.84,3.84,0,0,0-3.78-3.9Z"/><path class="cls-1" d="M329.85,99.85a3.9,3.9,0,1,0,3.9,3.9h0A4,4,0,0,0,329.85,99.85Z"/><path class="cls-1" d="M292.15,99.85H292a3.91,3.91,0,0,0,0,7.8h.2a3.9,3.9,0,1,0,0-7.8Z"/><path class="cls-1" d="M424.05,81a3.9,3.9,0,1,0,3.9,3.9h0A4,4,0,0,0,424.05,81Z"/><path class="cls-1" d="M386.35,81a3.9,3.9,0,1,0,3.9,3.9h0A4,4,0,0,0,386.35,81Z"/><path class="cls-1" d="M348.65,81a3.9,3.9,0,1,0,3.9,3.9h0A4,4,0,0,0,348.65,81Z"/><path class="cls-1" d="M311,81a3.9,3.9,0,1,0,3.9,3.9h0A3.91,3.91,0,0,0,311,81Z"/><path class="cls-1" d="M405.15,62.15a3.9,3.9,0,1,0,3.9,3.9h0a3.84,3.84,0,0,0-3.78-3.9Z"/><path class="cls-1" d="M367.45,62.15a3.9,3.9,0,1,0,3.9,3.9h0a3.84,3.84,0,0,0-3.78-3.9Z"/><path class="cls-1" d="M329.85,62.15a3.9,3.9,0,1,0,3.9,3.9h0A4,4,0,0,0,329.85,62.15Z"/><path class="cls-1" d="M292.15,62.15H292a3.91,3.91,0,0,0,0,7.8h.2a3.9,3.9,0,1,0,0-7.8Z"/><path class="cls-1" d="M424.05,43.35a3.9,3.9,0,1,0,3.9,3.9h0A3.91,3.91,0,0,0,424.05,43.35Z"/><path class="cls-1" d="M386.35,43.35a3.9,3.9,0,1,0,3.9,3.9h0A3.91,3.91,0,0,0,386.35,43.35Z"/><path class="cls-1" d="M348.65,43.35a3.9,3.9,0,1,0,3.9,3.9h0A3.91,3.91,0,0,0,348.65,43.35Z"/><path class="cls-1" d="M311,43.35a3.9,3.9,0,1,0,3.9,3.9h0a3.84,3.84,0,0,0-3.78-3.9Z"/><path class="cls-1" d="M405.15,24.45a3.9,3.9,0,1,0,3.9,3.9h0A3.91,3.91,0,0,0,405.15,24.45Z"/><path class="cls-1" d="M367.45,24.45a3.9,3.9,0,1,0,3.9,3.9h0A3.91,3.91,0,0,0,367.45,24.45Z"/><path class="cls-1" d="M329.85,24.45a3.9,3.9,0,1,0,3.9,3.9h0A4,4,0,0,0,329.85,24.45Z"/><path class="cls-1" d="M292.15,24.45H292a3.91,3.91,0,0,0,0,7.8h.2a3.91,3.91,0,0,0,3.9-3.9A4,4,0,0,0,292.15,24.45Z"/><path class="cls-1" d="M424.05,5.65a3.9,3.9,0,1,0,3.9,3.9h0A3.91,3.91,0,0,0,424.05,5.65Z"/><path class="cls-1" d="M386.35,5.65a3.9,3.9,0,1,0,3.9,3.9h0A3.91,3.91,0,0,0,386.35,5.65Z"/><path class="cls-1" d="M348.65,5.65a3.9,3.9,0,1,0,3.9,3.9h0A3.91,3.91,0,0,0,348.65,5.65Z"/><path class="cls-1" d="M311,5.65a3.9,3.9,0,1,0,3.9,3.9h0a3.84,3.84,0,0,0-3.78-3.9Z"/><path class="cls-1" d="M556,137.55a3.87,3.87,0,0,0-3.9,3.7v.2a3.9,3.9,0,1,0,7.8,0h0v-.2A3.87,3.87,0,0,0,556,137.55Z"/><path class="cls-1" d="M518.25,137.55a3.87,3.87,0,0,0-3.9,3.7v.2a3.9,3.9,0,0,0,7.8,0v-.2A3.87,3.87,0,0,0,518.25,137.55Z"/><path class="cls-1" d="M480.55,137.55a3.87,3.87,0,0,0-3.9,3.7v.2a3.9,3.9,0,0,0,7.8,0v-.2A3.87,3.87,0,0,0,480.55,137.55Z"/><path class="cls-1" d="M442.85,137.55h-.2a3.9,3.9,0,0,0-3.7,3.7v.2a3.87,3.87,0,0,0,3.7,3.9h.2a3.91,3.91,0,0,0,3.9-3.9v-.2A3.87,3.87,0,0,0,442.85,137.55Z"/><path class="cls-1" d="M574.75,118.65a3.9,3.9,0,1,0,3.9,3.9,3.91,3.91,0,0,0-3.9-3.9Z"/><path class="cls-1" d="M537.15,118.65a3.9,3.9,0,1,0,3.9,3.9A4,4,0,0,0,537.15,118.65Z"/><path class="cls-1" d="M499.45,118.65a3.9,3.9,0,1,0,3.9,3.9h0A4,4,0,0,0,499.45,118.65Z"/><path class="cls-1" d="M461.75,118.65a3.9,3.9,0,1,0,3.9,3.9h0A4,4,0,0,0,461.75,118.65Z"/><path class="cls-1" d="M556,99.85a3.9,3.9,0,1,0,3.9,3.9,3.91,3.91,0,0,0-3.9-3.9Z"/><path class="cls-1" d="M518.25,99.85a3.9,3.9,0,1,0,3.9,3.9,3.84,3.84,0,0,0-3.78-3.9Z"/><path class="cls-1" d="M480.55,99.85a3.9,3.9,0,1,0,3.9,3.9h0a3.84,3.84,0,0,0-3.78-3.9Z"/><path class="cls-1" d="M442.85,99.85h-.2a3.91,3.91,0,0,0,0,7.8h.2a3.91,3.91,0,0,0,3.9-3.9,3.84,3.84,0,0,0-3.78-3.9Z"/><path class="cls-1" d="M574.75,81a3.9,3.9,0,1,0,3.9,3.9,3.91,3.91,0,0,0-3.9-3.9Z"/><path class="cls-1" d="M537.15,81a3.9,3.9,0,1,0,3.9,3.9A4,4,0,0,0,537.15,81Z"/><path class="cls-1" d="M499.45,81a3.9,3.9,0,1,0,3.9,3.9h0A4,4,0,0,0,499.45,81Z"/><path class="cls-1" d="M461.75,81a3.9,3.9,0,1,0,3.9,3.9h0A4,4,0,0,0,461.75,81Z"/><path class="cls-1" d="M556,62.15a3.9,3.9,0,1,0,3.9,3.9,3.91,3.91,0,0,0-3.9-3.9Z"/><path class="cls-1" d="M518.25,62.15a3.9,3.9,0,1,0,3.9,3.9,3.84,3.84,0,0,0-3.78-3.9Z"/><path class="cls-1" d="M480.55,62.15a3.9,3.9,0,1,0,3.9,3.9h0a3.84,3.84,0,0,0-3.78-3.9Z"/><path class="cls-1" d="M442.85,62.15h-.2a3.91,3.91,0,0,0,0,7.8h.2a3.91,3.91,0,0,0,3.9-3.9,3.84,3.84,0,0,0-3.78-3.9Z"/><path class="cls-1" d="M574.75,43.35a3.9,3.9,0,1,0,3.9,3.9,3.84,3.84,0,0,0-3.78-3.9Z"/><path class="cls-1" d="M537.15,43.35a3.9,3.9,0,1,0,3.9,3.9A4,4,0,0,0,537.15,43.35Z"/><path class="cls-1" d="M499.45,43.35a3.9,3.9,0,1,0,3.9,3.9h0A3.91,3.91,0,0,0,499.45,43.35Z"/><path class="cls-1" d="M461.75,43.35a3.9,3.9,0,1,0,3.9,3.9h0A3.91,3.91,0,0,0,461.75,43.35Z"/><path class="cls-1" d="M556,24.45a3.9,3.9,0,1,0,3.9,3.9A4,4,0,0,0,556,24.45Z"/><path class="cls-1" d="M518.25,24.45a3.9,3.9,0,1,0,3.9,3.9,3.91,3.91,0,0,0-3.9-3.9Z"/><path class="cls-1" d="M480.55,24.45a3.9,3.9,0,1,0,3.9,3.9h0A3.91,3.91,0,0,0,480.55,24.45Z"/><path class="cls-1" d="M442.85,24.45h-.2a3.91,3.91,0,0,0,0,7.8h.2a3.9,3.9,0,0,0,0-7.8Z"/><path class="cls-1" d="M574.75,5.65a3.9,3.9,0,1,0,3.9,3.9,3.84,3.84,0,0,0-3.78-3.9Z"/><path class="cls-1" d="M537.15,5.65a3.9,3.9,0,1,0,3.9,3.9A4,4,0,0,0,537.15,5.65Z"/><path class="cls-1" d="M499.45,5.65a3.9,3.9,0,1,0,3.9,3.9h0A3.91,3.91,0,0,0,499.45,5.65Z"/><path class="cls-1" d="M461.75,5.65a3.9,3.9,0,1,0,3.9,3.9h0A3.91,3.91,0,0,0,461.75,5.65Z"/><path class="cls-1" d="M405.15,288.25a3.87,3.87,0,0,0-3.9,3.7v.2a3.9,3.9,0,1,0,7.8,0h0V292A3.94,3.94,0,0,0,405.15,288.25Z"/><path class="cls-1" d="M367.45,288.25a3.87,3.87,0,0,0-3.9,3.7v.2a3.9,3.9,0,0,0,7.8,0V292A3.94,3.94,0,0,0,367.45,288.25Z"/><path class="cls-1" d="M329.85,288.25A3.87,3.87,0,0,0,326,292v.2a3.9,3.9,0,1,0,7.8,0h0V292A4.1,4.1,0,0,0,329.85,288.25Z"/><path class="cls-1" d="M292.15,288.25H292a3.9,3.9,0,0,0-3.7,3.7v.2a3.87,3.87,0,0,0,3.7,3.9h.2a3.91,3.91,0,0,0,3.9-3.9V292A3.94,3.94,0,0,0,292.15,288.25Z"/><path class="cls-1" d="M424.05,269.45a3.9,3.9,0,1,0,3.9,3.9h0A3.91,3.91,0,0,0,424.05,269.45Z"/><path class="cls-1" d="M386.35,269.45a3.9,3.9,0,1,0,3.9,3.9h0A3.91,3.91,0,0,0,386.35,269.45Z"/><path class="cls-1" d="M348.65,269.45a3.9,3.9,0,1,0,3.9,3.9h0A3.91,3.91,0,0,0,348.65,269.45Z"/><path class="cls-1" d="M311,269.45a3.9,3.9,0,1,0,3.9,3.9h0a3.84,3.84,0,0,0-3.78-3.9Z"/><path class="cls-1" d="M405.15,250.65a3.9,3.9,0,1,0,3.9,3.9h0a3.84,3.84,0,0,0-3.78-3.9Z"/><path class="cls-1" d="M367.45,250.65a3.9,3.9,0,1,0,3.9,3.9h0a3.84,3.84,0,0,0-3.78-3.9Z"/><path class="cls-1" d="M329.85,250.65a3.9,3.9,0,1,0,3.9,3.9h0A4,4,0,0,0,329.85,250.65Z"/><path class="cls-1" d="M292.15,250.65H292a3.91,3.91,0,0,0,0,7.8h.2a3.9,3.9,0,1,0,0-7.8Z"/><path class="cls-1" d="M424.05,231.75a3.9,3.9,0,1,0,3.9,3.9h0A4,4,0,0,0,424.05,231.75Z"/><path class="cls-1" d="M386.35,231.75a3.9,3.9,0,1,0,3.9,3.9h0A4,4,0,0,0,386.35,231.75Z"/><path class="cls-1" d="M348.65,231.75a3.9,3.9,0,1,0,3.9,3.9h0A4,4,0,0,0,348.65,231.75Z"/><path class="cls-1" d="M311,231.75a3.9,3.9,0,1,0,3.9,3.9h0A3.91,3.91,0,0,0,311,231.75Z"/><path class="cls-1" d="M405.15,213a3.9,3.9,0,1,0,3.9,3.9h0a3.84,3.84,0,0,0-3.78-3.9Z"/><path class="cls-1" d="M367.45,213a3.9,3.9,0,1,0,3.9,3.9h0a3.84,3.84,0,0,0-3.78-3.9Z"/><path class="cls-1" d="M329.85,213a3.9,3.9,0,1,0,3.9,3.9h0A4,4,0,0,0,329.85,213Z"/><path class="cls-1" d="M292.15,213H292a3.91,3.91,0,0,0,0,7.8h.2a3.9,3.9,0,1,0,0-7.8Z"/><path class="cls-1" d="M424.05,194.05A3.9,3.9,0,1,0,428,198h0A4,4,0,0,0,424.05,194.05Z"/><path class="cls-1" d="M386.35,194.05a3.9,3.9,0,1,0,3.9,3.9h0A4,4,0,0,0,386.35,194.05Z"/><path class="cls-1" d="M348.65,194.05a3.9,3.9,0,1,0,3.9,3.9h0A4,4,0,0,0,348.65,194.05Z"/><path class="cls-1" d="M311,194.05a3.9,3.9,0,1,0,3.9,3.9h0A3.91,3.91,0,0,0,311,194.05Z"/><path class="cls-1" d="M405.15,175.25a3.9,3.9,0,1,0,3.9,3.9h0a3.84,3.84,0,0,0-3.78-3.9Z"/><path class="cls-1" d="M367.45,175.25a3.9,3.9,0,1,0,3.9,3.9h0a3.84,3.84,0,0,0-3.78-3.9Z"/><path class="cls-1" d="M329.85,175.25a3.9,3.9,0,1,0,3.9,3.9h0A4,4,0,0,0,329.85,175.25Z"/><path class="cls-1" d="M292.15,175.25H292a3.91,3.91,0,0,0,0,7.8h.2a3.9,3.9,0,1,0,0-7.8Z"/><path class="cls-1" d="M424.05,156.35a3.9,3.9,0,1,0,3.9,3.9h0A4,4,0,0,0,424.05,156.35Z"/><path class="cls-1" d="M386.35,156.35a3.9,3.9,0,1,0,3.9,3.9h0A4,4,0,0,0,386.35,156.35Z"/><path class="cls-1" d="M348.65,156.35a3.9,3.9,0,1,0,3.9,3.9h0A4,4,0,0,0,348.65,156.35Z"/><path class="cls-1" d="M311,156.35a3.9,3.9,0,1,0,3.9,3.9h0A3.91,3.91,0,0,0,311,156.35Z"/><path class="cls-1" d="M556,288.25a3.87,3.87,0,0,0-3.9,3.7v.2a3.9,3.9,0,1,0,7.8,0h0V292A3.94,3.94,0,0,0,556,288.25Z"/><path class="cls-1" d="M518.25,288.25a3.87,3.87,0,0,0-3.9,3.7v.2a3.9,3.9,0,0,0,7.8,0V292A3.94,3.94,0,0,0,518.25,288.25Z"/><path class="cls-1" d="M480.55,288.25a3.87,3.87,0,0,0-3.9,3.7v.2a3.9,3.9,0,0,0,7.8,0V292A3.94,3.94,0,0,0,480.55,288.25Z"/><path class="cls-1" d="M442.85,288.25h-.2A3.9,3.9,0,0,0,439,292v.2a3.87,3.87,0,0,0,3.7,3.9h.2a3.91,3.91,0,0,0,3.9-3.9V292A3.94,3.94,0,0,0,442.85,288.25Z"/><path class="cls-1" d="M574.75,269.45a3.9,3.9,0,1,0,3.9,3.9,3.84,3.84,0,0,0-3.78-3.9Z"/><path class="cls-1" d="M537.15,269.45a3.9,3.9,0,1,0,3.9,3.9A4,4,0,0,0,537.15,269.45Z"/><path class="cls-1" d="M499.45,269.45a3.9,3.9,0,1,0,3.9,3.9h0A3.91,3.91,0,0,0,499.45,269.45Z"/><path class="cls-1" d="M461.75,269.45a3.9,3.9,0,1,0,3.9,3.9h0A3.91,3.91,0,0,0,461.75,269.45Z"/><path class="cls-1" d="M556,250.65a3.9,3.9,0,1,0,3.9,3.9,3.91,3.91,0,0,0-3.9-3.9Z"/><path class="cls-1" d="M518.25,250.65a3.9,3.9,0,1,0,3.9,3.9,3.84,3.84,0,0,0-3.78-3.9Z"/><path class="cls-1" d="M480.55,250.65a3.9,3.9,0,1,0,3.9,3.9h0a3.84,3.84,0,0,0-3.78-3.9Z"/><path class="cls-1" d="M442.85,250.65h-.2a3.91,3.91,0,0,0,0,7.8h.2a3.91,3.91,0,0,0,3.9-3.9,3.84,3.84,0,0,0-3.78-3.9Z"/><path class="cls-1" d="M574.75,231.75a3.9,3.9,0,1,0,3.9,3.9,3.91,3.91,0,0,0-3.9-3.9Z"/><path class="cls-1" d="M537.15,231.75a3.9,3.9,0,1,0,3.9,3.9A4,4,0,0,0,537.15,231.75Z"/><path class="cls-1" d="M499.45,231.75a3.9,3.9,0,1,0,3.9,3.9h0A4,4,0,0,0,499.45,231.75Z"/><path class="cls-1" d="M461.75,231.75a3.9,3.9,0,1,0,3.9,3.9h0A4,4,0,0,0,461.75,231.75Z"/><path class="cls-1" d="M556,213a3.9,3.9,0,1,0,3.9,3.9A3.91,3.91,0,0,0,556,213Z"/><path class="cls-1" d="M518.25,213a3.9,3.9,0,1,0,3.9,3.9,3.84,3.84,0,0,0-3.78-3.9Z"/><path class="cls-1" d="M480.55,213a3.9,3.9,0,1,0,3.9,3.9h0a3.84,3.84,0,0,0-3.78-3.9Z"/><path class="cls-1" d="M442.85,213h-.2a3.91,3.91,0,0,0,0,7.8h.2a3.91,3.91,0,0,0,3.9-3.9A3.84,3.84,0,0,0,443,213Z"/><path class="cls-1" d="M574.75,194.05a3.9,3.9,0,1,0,3.9,3.9,3.91,3.91,0,0,0-3.9-3.9Z"/><path class="cls-1" d="M537.15,194.05a3.9,3.9,0,1,0,3.9,3.9A4,4,0,0,0,537.15,194.05Z"/><path class="cls-1" d="M499.45,194.05a3.9,3.9,0,1,0,3.9,3.9h0A4,4,0,0,0,499.45,194.05Z"/><path class="cls-1" d="M461.75,194.05a3.9,3.9,0,1,0,3.9,3.9h0A4,4,0,0,0,461.75,194.05Z"/><path class="cls-1" d="M556,175.25a3.9,3.9,0,1,0,3.9,3.9,3.91,3.91,0,0,0-3.9-3.9Z"/><path class="cls-1" d="M518.25,175.25a3.9,3.9,0,1,0,3.9,3.9,3.84,3.84,0,0,0-3.78-3.9Z"/><path class="cls-1" d="M480.55,175.25a3.9,3.9,0,1,0,3.9,3.9h0a3.84,3.84,0,0,0-3.78-3.9Z"/><path class="cls-1" d="M442.85,175.25h-.2a3.91,3.91,0,0,0,0,7.8h.2a3.91,3.91,0,0,0,3.9-3.9,3.84,3.84,0,0,0-3.78-3.9Z"/><path class="cls-1" d="M574.75,156.35a3.9,3.9,0,1,0,3.9,3.9,3.91,3.91,0,0,0-3.9-3.9Z"/><path class="cls-1" d="M537.15,156.35a3.9,3.9,0,1,0,3.9,3.9A4,4,0,0,0,537.15,156.35Z"/><path class="cls-1" d="M499.45,156.35a3.9,3.9,0,1,0,3.9,3.9h0A4,4,0,0,0,499.45,156.35Z"/><path class="cls-1" d="M461.75,156.35a3.9,3.9,0,1,0,3.9,3.9h0A4,4,0,0,0,461.75,156.35Z"/><path class="cls-1" d="M103.65,439.05a3.87,3.87,0,0,0-3.9,3.7v.2a3.9,3.9,0,1,0,7.8,0v-.2A3.94,3.94,0,0,0,103.65,439.05Z"/><path class="cls-1" d="M66,439.05a3.87,3.87,0,0,0-3.9,3.7v.2a3.9,3.9,0,1,0,7.8,0v-.2A3.94,3.94,0,0,0,66,439.05Z"/><path class="cls-1" d="M28.25,439.05a3.87,3.87,0,0,0-3.9,3.7v.2a3.9,3.9,0,1,0,7.8,0v-.2A3.94,3.94,0,0,0,28.25,439.05Z"/><path class="cls-1" d="M122.55,420.25a3.9,3.9,0,1,0,3.9,3.9h0A4,4,0,0,0,122.55,420.25Z"/><path class="cls-1" d="M84.85,420.25a3.9,3.9,0,1,0,3.9,3.9h0A3.91,3.91,0,0,0,84.85,420.25Z"/><path class="cls-1" d="M47.15,420.25a3.9,3.9,0,1,0,3.9,3.9h0A3.91,3.91,0,0,0,47.15,420.25Z"/><path class="cls-1" d="M9.45,420.25a3.9,3.9,0,1,0,3.9,3.9h0A3.91,3.91,0,0,0,9.45,420.25Z"/><path class="cls-1" d="M103.65,401.35a3.9,3.9,0,1,0,3.9,3.9h0A3.91,3.91,0,0,0,103.65,401.35Z"/><path class="cls-1" d="M66,401.35a3.9,3.9,0,1,0,3.9,3.9h0A3.91,3.91,0,0,0,66,401.35Z"/><path class="cls-1" d="M28.25,401.35a3.9,3.9,0,1,0,3.9,3.9h0A3.91,3.91,0,0,0,28.25,401.35Z"/><path class="cls-1" d="M122.55,382.55a3.9,3.9,0,1,0,3.9,3.9h0A4,4,0,0,0,122.55,382.55Z"/><path class="cls-1" d="M84.85,382.55a3.9,3.9,0,1,0,3.9,3.9h0A3.91,3.91,0,0,0,84.85,382.55Z"/><path class="cls-1" d="M47.15,382.55a3.9,3.9,0,1,0,3.9,3.9h0A3.91,3.91,0,0,0,47.15,382.55Z"/><path class="cls-1" d="M9.45,382.55a3.9,3.9,0,1,0,3.9,3.9h0A3.91,3.91,0,0,0,9.45,382.55Z"/><path class="cls-1" d="M103.65,363.65a3.9,3.9,0,1,0,3.9,3.9h0A3.91,3.91,0,0,0,103.65,363.65Z"/><path class="cls-1" d="M66,363.65a3.9,3.9,0,1,0,3.9,3.9h0A3.91,3.91,0,0,0,66,363.65Z"/><path class="cls-1" d="M28.25,363.65a3.9,3.9,0,1,0,3.9,3.9h0A3.91,3.91,0,0,0,28.25,363.65Z"/><path class="cls-1" d="M122.55,344.85a3.9,3.9,0,1,0,3.9,3.9h0A4,4,0,0,0,122.55,344.85Z"/><path class="cls-1" d="M84.85,344.85a3.9,3.9,0,1,0,3.9,3.9h0A3.91,3.91,0,0,0,84.85,344.85Z"/><path class="cls-1" d="M47.15,344.85a3.9,3.9,0,1,0,3.9,3.9h0A3.91,3.91,0,0,0,47.15,344.85Z"/><path class="cls-1" d="M9.45,344.85a3.9,3.9,0,1,0,3.9,3.9h0A3.91,3.91,0,0,0,9.45,344.85Z"/><path class="cls-1" d="M103.65,326a3.9,3.9,0,1,0,3.9,3.9h0A3.91,3.91,0,0,0,103.65,326Z"/><path class="cls-1" d="M66,326a3.9,3.9,0,1,0,3.9,3.9h0A3.91,3.91,0,0,0,66,326Z"/><path class="cls-1" d="M28.25,326a3.9,3.9,0,1,0,3.9,3.9h0A3.91,3.91,0,0,0,28.25,326Z"/><path class="cls-1" d="M122.55,307.15a3.9,3.9,0,1,0,3.9,3.9h0A4,4,0,0,0,122.55,307.15Z"/><path class="cls-1" d="M84.85,307.15a3.9,3.9,0,1,0,3.9,3.9h0A3.91,3.91,0,0,0,84.85,307.15Z"/><path class="cls-1" d="M47.15,307.15a3.9,3.9,0,1,0,3.9,3.9h0A3.91,3.91,0,0,0,47.15,307.15Z"/><path class="cls-1" d="M9.45,307.15a3.9,3.9,0,1,0,3.9,3.9h0A3.91,3.91,0,0,0,9.45,307.15Z"/><path class="cls-1" d="M254.45,439.05a3.87,3.87,0,0,0-3.9,3.7v.2a3.9,3.9,0,0,0,7.8,0v-.2A3.94,3.94,0,0,0,254.45,439.05Z"/><path class="cls-1" d="M216.75,439.05a3.87,3.87,0,0,0-3.9,3.7v.2a3.9,3.9,0,1,0,7.8,0v-.2A3.94,3.94,0,0,0,216.75,439.05Z"/><path class="cls-1" d="M179.05,439.05a3.87,3.87,0,0,0-3.9,3.7v.2a3.9,3.9,0,1,0,7.8,0v-.2A3.94,3.94,0,0,0,179.05,439.05Z"/><path class="cls-1" d="M141.35,439.05h-.2a3.9,3.9,0,0,0-3.7,3.7v.2a3.87,3.87,0,0,0,3.7,3.9h.2a3.91,3.91,0,0,0,3.9-3.9v-.2A3.94,3.94,0,0,0,141.35,439.05Z"/><path class="cls-1" d="M273.25,420.25a3.9,3.9,0,1,0,3.9,3.9h0a3.84,3.84,0,0,0-3.78-3.9Z"/><path class="cls-1" d="M235.55,420.25a3.9,3.9,0,1,0,3.9,3.9h0a3.84,3.84,0,0,0-3.78-3.9Z"/><path class="cls-1" d="M197.85,420.25a3.9,3.9,0,1,0,3.9,3.9h0a3.84,3.84,0,0,0-3.78-3.9Z"/><path class="cls-1" d="M160.15,420.25a3.9,3.9,0,1,0,3.9,3.9h0a3.84,3.84,0,0,0-3.78-3.9Z"/><path class="cls-1" d="M254.45,401.35a3.9,3.9,0,1,0,3.9,3.9h0A4,4,0,0,0,254.45,401.35Z"/><path class="cls-1" d="M216.75,401.35a3.9,3.9,0,1,0,3.9,3.9h0A4,4,0,0,0,216.75,401.35Z"/><path class="cls-1" d="M179.05,401.35a3.9,3.9,0,1,0,3.9,3.9h0A4,4,0,0,0,179.05,401.35Z"/><path class="cls-1" d="M141.35,401.35h-.2a3.91,3.91,0,0,0,0,7.8h.2a3.91,3.91,0,0,0,3.9-3.9A4,4,0,0,0,141.35,401.35Z"/><path class="cls-1" d="M273.25,382.55a3.9,3.9,0,1,0,3.9,3.9h0a3.84,3.84,0,0,0-3.78-3.9Z"/><path class="cls-1" d="M235.55,382.55a3.9,3.9,0,1,0,3.9,3.9h0a3.84,3.84,0,0,0-3.78-3.9Z"/><path class="cls-1" d="M197.85,382.55a3.9,3.9,0,1,0,3.9,3.9h0a3.84,3.84,0,0,0-3.78-3.9Z"/><path class="cls-1" d="M160.15,382.55a3.9,3.9,0,1,0,3.9,3.9h0a3.84,3.84,0,0,0-3.78-3.9Z"/><path class="cls-1" d="M254.45,363.65a3.9,3.9,0,1,0,3.9,3.9h0A4,4,0,0,0,254.45,363.65Z"/><path class="cls-1" d="M216.75,363.65a3.9,3.9,0,1,0,3.9,3.9h0A4,4,0,0,0,216.75,363.65Z"/><path class="cls-1" d="M179.05,363.65a3.9,3.9,0,1,0,3.9,3.9h0A4,4,0,0,0,179.05,363.65Z"/><path class="cls-1" d="M141.35,363.65h-.2a3.91,3.91,0,0,0,0,7.8h.2a3.91,3.91,0,0,0,3.9-3.9A4,4,0,0,0,141.35,363.65Z"/><path class="cls-1" d="M273.25,344.85a3.9,3.9,0,1,0,3.9,3.9h0a3.84,3.84,0,0,0-3.78-3.9Z"/><path class="cls-1" d="M235.55,344.85a3.9,3.9,0,1,0,3.9,3.9h0a3.84,3.84,0,0,0-3.78-3.9Z"/><path class="cls-1" d="M197.85,344.85a3.9,3.9,0,1,0,3.9,3.9h0a3.84,3.84,0,0,0-3.78-3.9Z"/><path class="cls-1" d="M160.15,344.85a3.9,3.9,0,1,0,3.9,3.9h0a3.84,3.84,0,0,0-3.78-3.9Z"/><path class="cls-1" d="M254.45,326a3.9,3.9,0,1,0,3.9,3.9h0A4,4,0,0,0,254.45,326Z"/><path class="cls-1" d="M216.75,326a3.9,3.9,0,1,0,3.9,3.9h0A4,4,0,0,0,216.75,326Z"/><path class="cls-1" d="M179.05,326a3.9,3.9,0,1,0,3.9,3.9h0A4,4,0,0,0,179.05,326Z"/><path class="cls-1" d="M141.35,326h-.2a3.91,3.91,0,0,0,0,7.8h.2a3.91,3.91,0,0,0,3.9-3.9A4,4,0,0,0,141.35,326Z"/><path class="cls-1" d="M273.25,307.15a3.9,3.9,0,1,0,3.9,3.9h0a3.84,3.84,0,0,0-3.78-3.9Z"/><path class="cls-1" d="M235.55,307.15a3.9,3.9,0,1,0,3.9,3.9h0a3.84,3.84,0,0,0-3.78-3.9Z"/><path class="cls-1" d="M197.85,307.15a3.9,3.9,0,1,0,3.9,3.9h0a3.84,3.84,0,0,0-3.78-3.9Z"/><path class="cls-1" d="M160.15,307.15a3.9,3.9,0,1,0,3.9,3.9h0a3.84,3.84,0,0,0-3.78-3.9Z"/><path class="cls-1" d="M103.65,552.15a3.9,3.9,0,1,0,3.9,3.9,3.84,3.84,0,0,0-3.78-3.9Z"/><path class="cls-1" d="M66,552.15a3.9,3.9,0,1,0,3.9,3.9,3.84,3.84,0,0,0-3.78-3.9Z"/><path class="cls-1" d="M28.25,552.15a3.9,3.9,0,1,0,3.9,3.9,3.84,3.84,0,0,0-3.78-3.9Z"/><path class="cls-1" d="M122.55,533.25a3.9,3.9,0,1,0,3.9,3.9A4,4,0,0,0,122.55,533.25Z"/><path class="cls-1" d="M84.85,533.25a3.9,3.9,0,1,0,3.9,3.9A4,4,0,0,0,84.85,533.25Z"/><path class="cls-1" d="M47.15,533.25a3.9,3.9,0,1,0,3.9,3.9A4,4,0,0,0,47.15,533.25Z"/><path class="cls-1" d="M9.45,533.25a3.9,3.9,0,1,0,3.9,3.9A4,4,0,0,0,9.45,533.25Z"/><path class="cls-1" d="M103.65,514.45a3.9,3.9,0,1,0,3.9,3.9,3.84,3.84,0,0,0-3.78-3.9Z"/><path class="cls-1" d="M66,514.45a3.9,3.9,0,1,0,3.9,3.9,3.84,3.84,0,0,0-3.78-3.9Z"/><path class="cls-1" d="M28.25,514.45a3.9,3.9,0,1,0,3.9,3.9,3.84,3.84,0,0,0-3.78-3.9Z"/><path class="cls-1" d="M122.55,495.55a3.9,3.9,0,1,0,3.9,3.9h0A4,4,0,0,0,122.55,495.55Z"/><path class="cls-1" d="M84.85,495.55a3.9,3.9,0,1,0,3.9,3.9h0A4,4,0,0,0,84.85,495.55Z"/><path class="cls-1" d="M47.15,495.55a3.9,3.9,0,1,0,3.9,3.9h0A4,4,0,0,0,47.15,495.55Z"/><path class="cls-1" d="M9.45,495.55a3.9,3.9,0,1,0,3.9,3.9h0A4,4,0,0,0,9.45,495.55Z"/><path class="cls-1" d="M103.65,476.75a3.9,3.9,0,1,0,3.9,3.9h0a3.84,3.84,0,0,0-3.78-3.9Z"/><path class="cls-1" d="M66,476.75a3.9,3.9,0,1,0,3.9,3.9h0a3.84,3.84,0,0,0-3.78-3.9Z"/><path class="cls-1" d="M28.25,476.75a3.9,3.9,0,1,0,3.9,3.9h0a3.84,3.84,0,0,0-3.78-3.9Z"/><path class="cls-1" d="M122.55,458a3.9,3.9,0,1,0,3.9,3.9h0A4,4,0,0,0,122.55,458Z"/><path class="cls-1" d="M84.85,458a3.9,3.9,0,1,0,3.9,3.9h0A3.91,3.91,0,0,0,84.85,458Z"/><path class="cls-1" d="M47.15,458a3.9,3.9,0,1,0,3.9,3.9h0A3.91,3.91,0,0,0,47.15,458Z"/><path class="cls-1" d="M9.45,458a3.9,3.9,0,1,0,3.9,3.9h0A3.91,3.91,0,0,0,9.45,458Z"/><path class="cls-1" d="M254.45,552.15a3.9,3.9,0,1,0,3.9,3.9,3.91,3.91,0,0,0-3.9-3.9Z"/><path class="cls-1" d="M216.75,552.15a3.9,3.9,0,1,0,3.9,3.9,3.91,3.91,0,0,0-3.9-3.9Z"/><path class="cls-1" d="M179.05,552.15a3.9,3.9,0,1,0,3.9,3.9,3.91,3.91,0,0,0-3.9-3.9Z"/><path class="cls-1" d="M141.35,552.15h-.2a3.91,3.91,0,0,0,0,7.8h.2a3.9,3.9,0,1,0,0-7.8Z"/><path class="cls-1" d="M273.25,533.25a3.9,3.9,0,1,0,3.9,3.9,3.91,3.91,0,0,0-3.9-3.9Z"/><path class="cls-1" d="M235.55,533.25a3.9,3.9,0,1,0,3.9,3.9,3.91,3.91,0,0,0-3.9-3.9Z"/><path class="cls-1" d="M197.85,533.25a3.9,3.9,0,1,0,3.9,3.9,3.91,3.91,0,0,0-3.9-3.9Z"/><path class="cls-1" d="M160.15,533.25a3.9,3.9,0,1,0,3.9,3.9,3.91,3.91,0,0,0-3.9-3.9Z"/><path class="cls-1" d="M254.45,514.45a3.9,3.9,0,1,0,3.9,3.9,3.91,3.91,0,0,0-3.9-3.9Z"/><path class="cls-1" d="M216.75,514.45a3.9,3.9,0,1,0,3.9,3.9,3.91,3.91,0,0,0-3.9-3.9Z"/><path class="cls-1" d="M179.05,514.45a3.9,3.9,0,1,0,3.9,3.9,3.91,3.91,0,0,0-3.9-3.9Z"/><path class="cls-1" d="M141.35,514.45h-.2a3.91,3.91,0,0,0,0,7.8h.2a3.9,3.9,0,0,0,0-7.8Z"/><path class="cls-1" d="M273.25,495.55a3.9,3.9,0,1,0,3.9,3.9h0A3.91,3.91,0,0,0,273.25,495.55Z"/><path class="cls-1" d="M235.55,495.55a3.9,3.9,0,1,0,3.9,3.9h0A3.91,3.91,0,0,0,235.55,495.55Z"/><path class="cls-1" d="M197.85,495.55a3.9,3.9,0,1,0,3.9,3.9h0A3.91,3.91,0,0,0,197.85,495.55Z"/><path class="cls-1" d="M160.15,495.55a3.9,3.9,0,1,0,3.9,3.9h0A3.91,3.91,0,0,0,160.15,495.55Z"/><path class="cls-1" d="M254.45,476.75a3.9,3.9,0,1,0,3.9,3.9h0A3.91,3.91,0,0,0,254.45,476.75Z"/><path class="cls-1" d="M216.75,476.75a3.9,3.9,0,1,0,3.9,3.9h0A3.91,3.91,0,0,0,216.75,476.75Z"/><path class="cls-1" d="M179.05,476.75a3.9,3.9,0,1,0,3.9,3.9h0A3.91,3.91,0,0,0,179.05,476.75Z"/><path class="cls-1" d="M141.35,476.75h-.2a3.91,3.91,0,0,0,0,7.8h.2a3.9,3.9,0,0,0,0-7.8Z"/><path class="cls-1" d="M273.25,458a3.9,3.9,0,1,0,3.9,3.9h0a3.84,3.84,0,0,0-3.78-3.9Z"/><path class="cls-1" d="M235.55,458a3.9,3.9,0,1,0,3.9,3.9h0a3.84,3.84,0,0,0-3.78-3.9Z"/><path class="cls-1" d="M197.85,458a3.9,3.9,0,1,0,3.9,3.9h0A3.84,3.84,0,0,0,198,458Z"/><path class="cls-1" d="M160.15,458a3.9,3.9,0,1,0,3.9,3.9h0a3.84,3.84,0,0,0-3.78-3.9Z"/><path class="cls-1" d="M405.15,439.05a3.87,3.87,0,0,0-3.9,3.7v.2a3.9,3.9,0,1,0,7.8,0h0v-.2A3.94,3.94,0,0,0,405.15,439.05Z"/><path class="cls-1" d="M367.45,439.05a3.87,3.87,0,0,0-3.9,3.7v.2a3.9,3.9,0,0,0,7.8,0v-.2A3.94,3.94,0,0,0,367.45,439.05Z"/><path class="cls-1" d="M329.85,439.05a3.87,3.87,0,0,0-3.9,3.7v.2a3.9,3.9,0,1,0,7.8,0h0v-.2A4.1,4.1,0,0,0,329.85,439.05Z"/><path class="cls-1" d="M292.15,439.05H292a3.9,3.9,0,0,0-3.7,3.7v.2a3.87,3.87,0,0,0,3.7,3.9h.2a3.91,3.91,0,0,0,3.9-3.9v-.2A3.94,3.94,0,0,0,292.15,439.05Z"/><path class="cls-1" d="M424.05,420.25a3.9,3.9,0,1,0,3.9,3.9h0A3.91,3.91,0,0,0,424.05,420.25Z"/><path class="cls-1" d="M386.35,420.25a3.9,3.9,0,1,0,3.9,3.9h0A3.91,3.91,0,0,0,386.35,420.25Z"/><path class="cls-1" d="M348.65,420.25a3.9,3.9,0,1,0,3.9,3.9h0A3.91,3.91,0,0,0,348.65,420.25Z"/><path class="cls-1" d="M311,420.25a3.9,3.9,0,1,0,3.9,3.9h0a3.84,3.84,0,0,0-3.78-3.9Z"/><path class="cls-1" d="M405.15,401.35a3.9,3.9,0,1,0,3.9,3.9h0A3.91,3.91,0,0,0,405.15,401.35Z"/><path class="cls-1" d="M367.45,401.35a3.9,3.9,0,1,0,3.9,3.9h0A3.91,3.91,0,0,0,367.45,401.35Z"/><path class="cls-1" d="M329.85,401.35a3.9,3.9,0,1,0,3.9,3.9h0A4,4,0,0,0,329.85,401.35Z"/><path class="cls-1" d="M292.15,401.35H292a3.91,3.91,0,0,0,0,7.8h.2a3.91,3.91,0,0,0,3.9-3.9A4,4,0,0,0,292.15,401.35Z"/><path class="cls-1" d="M424.05,382.55a3.9,3.9,0,1,0,3.9,3.9h0A3.91,3.91,0,0,0,424.05,382.55Z"/><path class="cls-1" d="M386.35,382.55a3.9,3.9,0,1,0,3.9,3.9h0A3.91,3.91,0,0,0,386.35,382.55Z"/><path class="cls-1" d="M348.65,382.55a3.9,3.9,0,1,0,3.9,3.9h0A3.91,3.91,0,0,0,348.65,382.55Z"/><path class="cls-1" d="M311,382.55a3.9,3.9,0,1,0,3.9,3.9h0a3.84,3.84,0,0,0-3.78-3.9Z"/><path class="cls-1" d="M405.15,363.65a3.9,3.9,0,1,0,3.9,3.9h0A3.91,3.91,0,0,0,405.15,363.65Z"/><path class="cls-1" d="M367.45,363.65a3.9,3.9,0,1,0,3.9,3.9h0A3.91,3.91,0,0,0,367.45,363.65Z"/><path class="cls-1" d="M329.85,363.65a3.9,3.9,0,1,0,3.9,3.9h0A4,4,0,0,0,329.85,363.65Z"/><path class="cls-1" d="M292.15,363.65H292a3.91,3.91,0,0,0,0,7.8h.2a3.91,3.91,0,0,0,3.9-3.9A4,4,0,0,0,292.15,363.65Z"/><path class="cls-1" d="M424.05,344.85a3.9,3.9,0,1,0,3.9,3.9h0A3.91,3.91,0,0,0,424.05,344.85Z"/><path class="cls-1" d="M386.35,344.85a3.9,3.9,0,1,0,3.9,3.9h0A3.91,3.91,0,0,0,386.35,344.85Z"/><path class="cls-1" d="M348.65,344.85a3.9,3.9,0,1,0,3.9,3.9h0A3.91,3.91,0,0,0,348.65,344.85Z"/><path class="cls-1" d="M311,344.85a3.9,3.9,0,1,0,3.9,3.9h0a3.84,3.84,0,0,0-3.78-3.9Z"/><path class="cls-1" d="M405.15,326a3.9,3.9,0,1,0,3.9,3.9h0A3.91,3.91,0,0,0,405.15,326Z"/><path class="cls-1" d="M367.45,326a3.9,3.9,0,1,0,3.9,3.9h0A3.91,3.91,0,0,0,367.45,326Z"/><path class="cls-1" d="M329.85,326a3.9,3.9,0,1,0,3.9,3.9h0A4,4,0,0,0,329.85,326Z"/><path class="cls-1" d="M292.15,326H292a3.91,3.91,0,0,0,0,7.8h.2a3.91,3.91,0,0,0,3.9-3.9A4,4,0,0,0,292.15,326Z"/><path class="cls-1" d="M424.05,307.15a3.9,3.9,0,1,0,3.9,3.9h0A3.91,3.91,0,0,0,424.05,307.15Z"/><path class="cls-1" d="M386.35,307.15a3.9,3.9,0,1,0,3.9,3.9h0A3.91,3.91,0,0,0,386.35,307.15Z"/><path class="cls-1" d="M348.65,307.15a3.9,3.9,0,1,0,3.9,3.9h0A3.91,3.91,0,0,0,348.65,307.15Z"/><path class="cls-1" d="M311,307.15a3.9,3.9,0,1,0,3.9,3.9h0a3.84,3.84,0,0,0-3.78-3.9Z"/><path class="cls-1" d="M556,439.05a3.87,3.87,0,0,0-3.9,3.7v.2a3.9,3.9,0,1,0,7.8,0h0v-.2A3.94,3.94,0,0,0,556,439.05Z"/><path class="cls-1" d="M518.25,439.05a3.87,3.87,0,0,0-3.9,3.7v.2a3.9,3.9,0,0,0,7.8,0h0v-.2A3.94,3.94,0,0,0,518.25,439.05Z"/><path class="cls-1" d="M480.55,439.05a3.87,3.87,0,0,0-3.9,3.7v.2a3.9,3.9,0,0,0,7.8,0v-.2A3.94,3.94,0,0,0,480.55,439.05Z"/><path class="cls-1" d="M442.85,439.05h-.2a3.9,3.9,0,0,0-3.7,3.7v.2a3.87,3.87,0,0,0,3.7,3.9h.2a3.91,3.91,0,0,0,3.9-3.9v-.2A3.94,3.94,0,0,0,442.85,439.05Z"/><path class="cls-1" d="M574.75,420.25a3.9,3.9,0,1,0,3.9,3.9,3.84,3.84,0,0,0-3.78-3.9Z"/><path class="cls-1" d="M537.15,420.25a3.9,3.9,0,1,0,3.9,3.9A4,4,0,0,0,537.15,420.25Z"/><path class="cls-1" d="M499.45,420.25a3.9,3.9,0,1,0,3.9,3.9h0A3.91,3.91,0,0,0,499.45,420.25Z"/><path class="cls-1" d="M461.75,420.25a3.9,3.9,0,1,0,3.9,3.9h0A3.91,3.91,0,0,0,461.75,420.25Z"/><path class="cls-1" d="M556,401.35a3.9,3.9,0,1,0,3.9,3.9A4,4,0,0,0,556,401.35Z"/><path class="cls-1" d="M518.25,401.35a3.9,3.9,0,1,0,3.9,3.9,3.91,3.91,0,0,0-3.9-3.9Z"/><path class="cls-1" d="M480.55,401.35a3.9,3.9,0,1,0,3.9,3.9h0A3.91,3.91,0,0,0,480.55,401.35Z"/><path class="cls-1" d="M442.85,401.35h-.2a3.91,3.91,0,0,0,0,7.8h.2a3.9,3.9,0,0,0,0-7.8Z"/><path class="cls-1" d="M574.75,382.55a3.9,3.9,0,1,0,3.9,3.9,3.84,3.84,0,0,0-3.78-3.9Z"/><path class="cls-1" d="M537.15,382.55a3.9,3.9,0,1,0,3.9,3.9A4,4,0,0,0,537.15,382.55Z"/><path class="cls-1" d="M499.45,382.55a3.9,3.9,0,1,0,3.9,3.9h0A3.91,3.91,0,0,0,499.45,382.55Z"/><path class="cls-1" d="M461.75,382.55a3.9,3.9,0,1,0,3.9,3.9h0A3.91,3.91,0,0,0,461.75,382.55Z"/><path class="cls-1" d="M556,363.65a3.9,3.9,0,1,0,3.9,3.9A4,4,0,0,0,556,363.65Z"/><path class="cls-1" d="M518.25,363.65a3.9,3.9,0,1,0,3.9,3.9,3.91,3.91,0,0,0-3.9-3.9Z"/><path class="cls-1" d="M480.55,363.65a3.9,3.9,0,1,0,3.9,3.9h0A3.91,3.91,0,0,0,480.55,363.65Z"/><path class="cls-1" d="M442.85,363.65h-.2a3.91,3.91,0,0,0,0,7.8h.2a3.9,3.9,0,0,0,0-7.8Z"/><path class="cls-1" d="M574.75,344.85a3.9,3.9,0,1,0,3.9,3.9,3.84,3.84,0,0,0-3.78-3.9Z"/><path class="cls-1" d="M537.15,344.85a3.9,3.9,0,1,0,3.9,3.9A4,4,0,0,0,537.15,344.85Z"/><path class="cls-1" d="M499.45,344.85a3.9,3.9,0,1,0,3.9,3.9h0A3.91,3.91,0,0,0,499.45,344.85Z"/><path class="cls-1" d="M461.75,344.85a3.9,3.9,0,1,0,3.9,3.9h0A3.91,3.91,0,0,0,461.75,344.85Z"/><path class="cls-1" d="M556,326a3.9,3.9,0,1,0,3.9,3.9A4,4,0,0,0,556,326Z"/><path class="cls-1" d="M518.25,326a3.9,3.9,0,1,0,3.9,3.9,3.91,3.91,0,0,0-3.9-3.9Z"/><path class="cls-1" d="M480.55,326a3.9,3.9,0,1,0,3.9,3.9h0A3.91,3.91,0,0,0,480.55,326Z"/><path class="cls-1" d="M442.85,326h-.2a3.91,3.91,0,0,0,0,7.8h.2a3.9,3.9,0,0,0,0-7.8Z"/><path class="cls-1" d="M574.75,307.15a3.9,3.9,0,1,0,3.9,3.9,3.84,3.84,0,0,0-3.78-3.9Z"/><path class="cls-1" d="M537.15,307.15a3.9,3.9,0,1,0,3.9,3.9A4,4,0,0,0,537.15,307.15Z"/><path class="cls-1" d="M499.45,307.15a3.9,3.9,0,1,0,3.9,3.9h0A3.91,3.91,0,0,0,499.45,307.15Z"/><path class="cls-1" d="M461.75,307.15a3.9,3.9,0,1,0,3.9,3.9h0A3.91,3.91,0,0,0,461.75,307.15Z"/><path class="cls-1" d="M405.15,552.15a3.9,3.9,0,1,0,3.9,3.9,3.84,3.84,0,0,0-3.78-3.9Z"/><path class="cls-1" d="M367.45,552.15a3.9,3.9,0,1,0,3.9,3.9,3.84,3.84,0,0,0-3.78-3.9Z"/><path class="cls-1" d="M329.85,552.15a3.9,3.9,0,1,0,3.9,3.9A4,4,0,0,0,329.85,552.15Z"/><path class="cls-1" d="M292.15,552.15H292a3.91,3.91,0,0,0,0,7.8h.2a3.9,3.9,0,0,0,0-7.8Z"/><path class="cls-1" d="M424.05,533.25a3.9,3.9,0,1,0,3.9,3.9A4,4,0,0,0,424.05,533.25Z"/><path class="cls-1" d="M386.35,533.25a3.9,3.9,0,1,0,3.9,3.9A4,4,0,0,0,386.35,533.25Z"/><path class="cls-1" d="M348.65,533.25a3.9,3.9,0,1,0,3.9,3.9A4,4,0,0,0,348.65,533.25Z"/><path class="cls-1" d="M311,533.25a3.9,3.9,0,1,0,3.9,3.9,3.91,3.91,0,0,0-3.9-3.9Z"/><path class="cls-1" d="M405.15,514.45a3.9,3.9,0,1,0,3.9,3.9,3.84,3.84,0,0,0-3.78-3.9Z"/><path class="cls-1" d="M367.45,514.45a3.9,3.9,0,1,0,3.9,3.9,3.84,3.84,0,0,0-3.78-3.9Z"/><path class="cls-1" d="M329.85,514.45a3.9,3.9,0,1,0,3.9,3.9A4,4,0,0,0,329.85,514.45Z"/><path class="cls-1" d="M292.15,514.45H292a3.91,3.91,0,0,0,0,7.8h.2a3.9,3.9,0,0,0,0-7.8Z"/><path class="cls-1" d="M424.05,495.55a3.9,3.9,0,1,0,3.9,3.9h0A4,4,0,0,0,424.05,495.55Z"/><path class="cls-1" d="M386.35,495.55a3.9,3.9,0,1,0,3.9,3.9h0A4,4,0,0,0,386.35,495.55Z"/><path class="cls-1" d="M348.65,495.55a3.9,3.9,0,1,0,3.9,3.9h0A4,4,0,0,0,348.65,495.55Z"/><path class="cls-1" d="M311,495.55a3.9,3.9,0,1,0,3.9,3.9h0A3.91,3.91,0,0,0,311,495.55Z"/><path class="cls-1" d="M405.15,476.75a3.9,3.9,0,1,0,3.9,3.9h0a3.84,3.84,0,0,0-3.78-3.9Z"/><path class="cls-1" d="M367.45,476.75a3.9,3.9,0,1,0,3.9,3.9h0a3.84,3.84,0,0,0-3.78-3.9Z"/><path class="cls-1" d="M329.85,476.75a3.9,3.9,0,1,0,3.9,3.9h0A4,4,0,0,0,329.85,476.75Z"/><path class="cls-1" d="M292.15,476.75H292a3.91,3.91,0,0,0,0,7.8h.2a3.9,3.9,0,0,0,0-7.8Z"/><path class="cls-1" d="M424.05,458a3.9,3.9,0,1,0,3.9,3.9h0A3.91,3.91,0,0,0,424.05,458Z"/><path class="cls-1" d="M386.35,458a3.9,3.9,0,1,0,3.9,3.9h0A3.91,3.91,0,0,0,386.35,458Z"/><path class="cls-1" d="M348.65,458a3.9,3.9,0,1,0,3.9,3.9h0A3.91,3.91,0,0,0,348.65,458Z"/><path class="cls-1" d="M311,458a3.9,3.9,0,1,0,3.9,3.9h0a3.84,3.84,0,0,0-3.78-3.9Z"/><path class="cls-1" d="M556,552.15a3.9,3.9,0,1,0,3.9,3.9,3.91,3.91,0,0,0-3.9-3.9Z"/><path class="cls-1" d="M518.25,552.15a3.9,3.9,0,1,0,3.9,3.9,3.84,3.84,0,0,0-3.78-3.9Z"/><path class="cls-1" d="M480.55,552.15a3.9,3.9,0,1,0,3.9,3.9,3.84,3.84,0,0,0-3.78-3.9Z"/><path class="cls-1" d="M442.85,552.15h-.2a3.91,3.91,0,0,0,0,7.8h.2a3.91,3.91,0,0,0,3.9-3.9h0a3.84,3.84,0,0,0-3.78-3.9Z"/><path class="cls-1" d="M574.75,533.25a3.9,3.9,0,1,0,3.9,3.9,3.91,3.91,0,0,0-3.9-3.9Z"/><path class="cls-1" d="M537.15,533.25a3.9,3.9,0,1,0,3.9,3.9A4,4,0,0,0,537.15,533.25Z"/><path class="cls-1" d="M499.45,533.25a3.9,3.9,0,1,0,3.9,3.9A4,4,0,0,0,499.45,533.25Z"/><path class="cls-1" d="M461.75,533.25a3.9,3.9,0,1,0,3.9,3.9A4,4,0,0,0,461.75,533.25Z"/><path class="cls-1" d="M556,514.45a3.9,3.9,0,1,0,3.9,3.9,3.91,3.91,0,0,0-3.9-3.9Z"/><path class="cls-1" d="M518.25,514.45a3.9,3.9,0,1,0,3.9,3.9,3.84,3.84,0,0,0-3.78-3.9Z"/><path class="cls-1" d="M480.55,514.45a3.9,3.9,0,1,0,3.9,3.9,3.84,3.84,0,0,0-3.78-3.9Z"/><path class="cls-1" d="M442.85,514.45h-.2a3.91,3.91,0,0,0,0,7.8h.2a3.91,3.91,0,0,0,3.9-3.9h0a3.84,3.84,0,0,0-3.78-3.9Z"/><path class="cls-1" d="M574.75,495.55a3.9,3.9,0,1,0,3.9,3.9,3.91,3.91,0,0,0-3.9-3.9Z"/><path class="cls-1" d="M537.15,495.55a3.9,3.9,0,1,0,3.9,3.9A4,4,0,0,0,537.15,495.55Z"/><path class="cls-1" d="M499.45,495.55a3.9,3.9,0,1,0,3.9,3.9h0A4,4,0,0,0,499.45,495.55Z"/><path class="cls-1" d="M461.75,495.55a3.9,3.9,0,1,0,3.9,3.9h0A4,4,0,0,0,461.75,495.55Z"/><path class="cls-1" d="M556,476.75a3.9,3.9,0,1,0,3.9,3.9,3.91,3.91,0,0,0-3.9-3.9Z"/><path class="cls-1" d="M518.25,476.75a3.9,3.9,0,1,0,3.9,3.9,3.84,3.84,0,0,0-3.78-3.9Z"/><path class="cls-1" d="M480.55,476.75a3.9,3.9,0,1,0,3.9,3.9h0a3.84,3.84,0,0,0-3.78-3.9Z"/><path class="cls-1" d="M442.85,476.75h-.2a3.91,3.91,0,0,0,0,7.8h.2a3.91,3.91,0,0,0,3.9-3.9,3.84,3.84,0,0,0-3.78-3.9Z"/><path class="cls-1" d="M574.75,458a3.9,3.9,0,1,0,3.9,3.9,3.84,3.84,0,0,0-3.78-3.9Z"/><path class="cls-1" d="M537.15,458a3.9,3.9,0,1,0,3.9,3.9A4,4,0,0,0,537.15,458Z"/><path class="cls-1" d="M499.45,458a3.9,3.9,0,1,0,3.9,3.9h0A3.91,3.91,0,0,0,499.45,458Z"/><path class="cls-1" d="M461.75,458a3.9,3.9,0,1,0,3.9,3.9h0A3.91,3.91,0,0,0,461.75,458Z"/><path class="cls-1" d="M668.9,137.55a3.87,3.87,0,0,0-3.9,3.7v.2a3.9,3.9,0,1,0,7.8,0h0v-.2A3.87,3.87,0,0,0,668.9,137.55Z"/><path class="cls-1" d="M631.2,137.55a3.87,3.87,0,0,0-3.9,3.7v.2a3.9,3.9,0,1,0,7.8,0h0v-.2A3.87,3.87,0,0,0,631.2,137.55Z"/><path class="cls-1" d="M593.55,137.55a3.87,3.87,0,0,0-3.9,3.7v.2a3.9,3.9,0,1,0,7.8,0h0v-.2A3.87,3.87,0,0,0,593.55,137.55Z"/><path class="cls-1" d="M687.8,118.65a3.9,3.9,0,1,0,3.9,3.9A4,4,0,0,0,687.8,118.65Z"/><path class="cls-1" d="M650.1,118.65a3.9,3.9,0,1,0,3.9,3.9A4,4,0,0,0,650.1,118.65Z"/><path class="cls-1" d="M612.4,118.65a3.9,3.9,0,1,0,3.9,3.9A4,4,0,0,0,612.4,118.65Z"/><path class="cls-1" d="M574.7,118.65a3.9,3.9,0,1,0,3.9,3.9A4,4,0,0,0,574.7,118.65Z"/><path class="cls-1" d="M668.9,99.85a3.9,3.9,0,1,0,3.9,3.9,3.84,3.84,0,0,0-3.78-3.9Z"/><path class="cls-1" d="M631.2,99.85a3.9,3.9,0,1,0,3.9,3.9,3.84,3.84,0,0,0-3.78-3.9Z"/><path class="cls-1" d="M593.55,99.85a3.9,3.9,0,1,0,3.9,3.9,3.84,3.84,0,0,0-3.78-3.9Z"/><path class="cls-1" d="M687.8,81a3.9,3.9,0,1,0,3.9,3.9A4,4,0,0,0,687.8,81Z"/><path class="cls-1" d="M650.1,81a3.9,3.9,0,1,0,3.9,3.9A4,4,0,0,0,650.1,81Z"/><path class="cls-1" d="M612.4,81a3.9,3.9,0,1,0,3.9,3.9A4,4,0,0,0,612.4,81Z"/><path class="cls-1" d="M574.7,81a3.9,3.9,0,1,0,3.9,3.9A4,4,0,0,0,574.7,81Z"/><path class="cls-1" d="M668.9,62.15a3.9,3.9,0,1,0,3.9,3.9,3.84,3.84,0,0,0-3.78-3.9Z"/><path class="cls-1" d="M631.2,62.15a3.9,3.9,0,1,0,3.9,3.9,3.84,3.84,0,0,0-3.78-3.9Z"/><path class="cls-1" d="M593.55,62.15a3.9,3.9,0,1,0,3.9,3.9,3.84,3.84,0,0,0-3.78-3.9Z"/><path class="cls-1" d="M687.8,43.35a3.9,3.9,0,1,0,3.9,3.9A4,4,0,0,0,687.8,43.35Z"/><path class="cls-1" d="M650.1,43.35a3.9,3.9,0,1,0,3.9,3.9,3.91,3.91,0,0,0-3.9-3.9Z"/><path class="cls-1" d="M612.4,43.35a3.9,3.9,0,1,0,3.9,3.9,3.91,3.91,0,0,0-3.9-3.9Z"/><path class="cls-1" d="M574.7,43.35a3.9,3.9,0,1,0,3.9,3.9,3.91,3.91,0,0,0-3.9-3.9Z"/><path class="cls-1" d="M668.9,24.45a3.9,3.9,0,1,0,3.9,3.9,3.91,3.91,0,0,0-3.9-3.9Z"/><path class="cls-1" d="M631.2,24.45a3.9,3.9,0,1,0,3.9,3.9,3.91,3.91,0,0,0-3.9-3.9Z"/><path class="cls-1" d="M593.55,24.45a3.9,3.9,0,1,0,3.9,3.9,3.91,3.91,0,0,0-3.9-3.9Z"/><path class="cls-1" d="M687.8,5.65a3.9,3.9,0,1,0,3.9,3.9A4,4,0,0,0,687.8,5.65Z"/><path class="cls-1" d="M650.1,5.65a3.9,3.9,0,1,0,3.9,3.9,3.91,3.91,0,0,0-3.9-3.9Z"/><path class="cls-1" d="M612.4,5.65a3.9,3.9,0,1,0,3.9,3.9,3.91,3.91,0,0,0-3.9-3.9Z"/><path class="cls-1" d="M574.7,5.65a3.9,3.9,0,1,0,3.9,3.9,3.91,3.91,0,0,0-3.9-3.9Z"/><path class="cls-1" d="M819.7,137.55a3.87,3.87,0,0,0-3.9,3.7v.2a3.9,3.9,0,1,0,7.8,0h0v-.2A3.87,3.87,0,0,0,819.7,137.55Z"/><path class="cls-1" d="M782,137.55a3.87,3.87,0,0,0-3.9,3.7v.2a3.9,3.9,0,1,0,7.8,0h0v-.2A3.87,3.87,0,0,0,782,137.55Z"/><path class="cls-1" d="M744.3,137.55a3.87,3.87,0,0,0-3.9,3.7v.2a3.9,3.9,0,0,0,7.8,0v-.2A3.87,3.87,0,0,0,744.3,137.55Z"/><path class="cls-1" d="M706.6,137.55h-.2a3.9,3.9,0,0,0-3.7,3.7v.2a3.87,3.87,0,0,0,3.7,3.9h.2a3.91,3.91,0,0,0,3.9-3.9h0v-.2A3.87,3.87,0,0,0,706.6,137.55Z"/><path class="cls-1" d="M838.55,118.65a3.9,3.9,0,1,0,3.9,3.9,3.91,3.91,0,0,0-3.9-3.9Z"/><path class="cls-1" d="M800.8,118.65a3.9,3.9,0,1,0,3.9,3.9,3.91,3.91,0,0,0-3.9-3.9Z"/><path class="cls-1" d="M763.1,118.65a3.9,3.9,0,1,0,3.9,3.9,3.91,3.91,0,0,0-3.9-3.9Z"/><path class="cls-1" d="M725.4,118.65a3.9,3.9,0,1,0,3.9,3.9,3.91,3.91,0,0,0-3.9-3.9Z"/><path class="cls-1" d="M819.7,99.85a3.9,3.9,0,1,0,3.9,3.9,3.91,3.91,0,0,0-3.9-3.9Z"/><path class="cls-1" d="M782,99.85a3.9,3.9,0,1,0,3.9,3.9,3.91,3.91,0,0,0-3.9-3.9Z"/><path class="cls-1" d="M744.3,99.85a3.9,3.9,0,1,0,3.9,3.9,3.91,3.91,0,0,0-3.9-3.9Z"/><path class="cls-1" d="M706.6,99.85h-.2a3.91,3.91,0,0,0,0,7.8h.2a3.9,3.9,0,0,0,0-7.8Z"/><path class="cls-1" d="M838.55,81a3.9,3.9,0,1,0,3.9,3.9,3.91,3.91,0,0,0-3.9-3.9Z"/><path class="cls-1" d="M800.8,81a3.9,3.9,0,1,0,3.9,3.9,3.91,3.91,0,0,0-3.9-3.9Z"/><path class="cls-1" d="M763.1,81a3.9,3.9,0,1,0,3.9,3.9,3.91,3.91,0,0,0-3.9-3.9Z"/><path class="cls-1" d="M725.4,81a3.9,3.9,0,1,0,3.9,3.9,3.91,3.91,0,0,0-3.9-3.9Z"/><path class="cls-1" d="M819.7,62.15a3.9,3.9,0,1,0,3.9,3.9,3.91,3.91,0,0,0-3.9-3.9Z"/><path class="cls-1" d="M782,62.15a3.9,3.9,0,1,0,3.9,3.9,3.91,3.91,0,0,0-3.9-3.9Z"/><path class="cls-1" d="M744.3,62.15a3.9,3.9,0,1,0,3.9,3.9,3.91,3.91,0,0,0-3.9-3.9Z"/><path class="cls-1" d="M706.6,62.15h-.2a3.91,3.91,0,0,0,0,7.8h.2a3.9,3.9,0,0,0,0-7.8Z"/><path class="cls-1" d="M838.55,43.35a3.9,3.9,0,1,0,3.9,3.9,3.84,3.84,0,0,0-3.78-3.9Z"/><path class="cls-1" d="M800.8,43.35a3.9,3.9,0,1,0,3.9,3.9,3.84,3.84,0,0,0-3.78-3.9Z"/><path class="cls-1" d="M763.1,43.35a3.9,3.9,0,1,0,3.9,3.9,3.84,3.84,0,0,0-3.78-3.9Z"/><path class="cls-1" d="M725.4,43.35a3.9,3.9,0,1,0,3.9,3.9,3.84,3.84,0,0,0-3.78-3.9Z"/><path class="cls-1" d="M819.7,24.45a3.9,3.9,0,1,0,3.9,3.9A4,4,0,0,0,819.7,24.45Z"/><path class="cls-1" d="M782,24.45a3.9,3.9,0,1,0,3.9,3.9A4,4,0,0,0,782,24.45Z"/><path class="cls-1" d="M744.3,24.45a3.9,3.9,0,1,0,3.9,3.9A4,4,0,0,0,744.3,24.45Z"/><path class="cls-1" d="M706.6,24.45h-.2a3.91,3.91,0,0,0,0,7.8h.2a3.91,3.91,0,0,0,3.9-3.9h0A4,4,0,0,0,706.6,24.45Z"/><path class="cls-1" d="M838.55,5.65a3.9,3.9,0,1,0,3.9,3.9,3.84,3.84,0,0,0-3.78-3.9Z"/><path class="cls-1" d="M800.8,5.65a3.9,3.9,0,1,0,3.9,3.9,3.84,3.84,0,0,0-3.78-3.9Z"/><path class="cls-1" d="M763.1,5.65a3.9,3.9,0,1,0,3.9,3.9,3.84,3.84,0,0,0-3.78-3.9Z"/><path class="cls-1" d="M725.4,5.65a3.9,3.9,0,1,0,3.9,3.9,3.84,3.84,0,0,0-3.78-3.9Z"/><path class="cls-1" d="M668.9,288.25A3.87,3.87,0,0,0,665,292v.2a3.9,3.9,0,1,0,7.8,0h0V292A3.94,3.94,0,0,0,668.9,288.25Z"/><path class="cls-1" d="M631.2,288.25a3.87,3.87,0,0,0-3.9,3.7v.2a3.9,3.9,0,1,0,7.8,0h0V292A3.94,3.94,0,0,0,631.2,288.25Z"/><path class="cls-1" d="M593.55,288.25a3.87,3.87,0,0,0-3.9,3.7v.2a3.9,3.9,0,1,0,7.8,0h0V292A3.94,3.94,0,0,0,593.55,288.25Z"/><path class="cls-1" d="M687.8,269.45a3.9,3.9,0,1,0,3.9,3.9A4,4,0,0,0,687.8,269.45Z"/><path class="cls-1" d="M650.1,269.45a3.9,3.9,0,1,0,3.9,3.9,3.91,3.91,0,0,0-3.9-3.9Z"/><path class="cls-1" d="M612.4,269.45a3.9,3.9,0,1,0,3.9,3.9,3.91,3.91,0,0,0-3.9-3.9Z"/><path class="cls-1" d="M574.7,269.45a3.9,3.9,0,1,0,3.9,3.9,3.91,3.91,0,0,0-3.9-3.9Z"/><path class="cls-1" d="M668.9,250.65a3.9,3.9,0,1,0,3.9,3.9,3.84,3.84,0,0,0-3.78-3.9Z"/><path class="cls-1" d="M631.2,250.65a3.9,3.9,0,1,0,3.9,3.9,3.84,3.84,0,0,0-3.78-3.9Z"/><path class="cls-1" d="M593.55,250.65a3.9,3.9,0,1,0,3.9,3.9,3.84,3.84,0,0,0-3.78-3.9Z"/><path class="cls-1" d="M687.8,231.75a3.9,3.9,0,1,0,3.9,3.9A4,4,0,0,0,687.8,231.75Z"/><path class="cls-1" d="M650.1,231.75a3.9,3.9,0,1,0,3.9,3.9A4,4,0,0,0,650.1,231.75Z"/><path class="cls-1" d="M612.4,231.75a3.9,3.9,0,1,0,3.9,3.9A4,4,0,0,0,612.4,231.75Z"/><path class="cls-1" d="M574.7,231.75a3.9,3.9,0,1,0,3.9,3.9A4,4,0,0,0,574.7,231.75Z"/><path class="cls-1" d="M668.9,213a3.9,3.9,0,1,0,3.9,3.9A3.84,3.84,0,0,0,669,213Z"/><path class="cls-1" d="M631.2,213a3.9,3.9,0,1,0,3.9,3.9,3.84,3.84,0,0,0-3.78-3.9Z"/><path class="cls-1" d="M593.55,213a3.9,3.9,0,1,0,3.9,3.9,3.84,3.84,0,0,0-3.78-3.9Z"/><path class="cls-1" d="M687.8,194.05a3.9,3.9,0,1,0,3.9,3.9A4,4,0,0,0,687.8,194.05Z"/><path class="cls-1" d="M650.1,194.05A3.9,3.9,0,1,0,654,198,4,4,0,0,0,650.1,194.05Z"/><path class="cls-1" d="M612.4,194.05a3.9,3.9,0,1,0,3.9,3.9A4,4,0,0,0,612.4,194.05Z"/><path class="cls-1" d="M574.7,194.05a3.9,3.9,0,1,0,3.9,3.9A4,4,0,0,0,574.7,194.05Z"/><path class="cls-1" d="M668.9,175.25a3.9,3.9,0,1,0,3.9,3.9,3.84,3.84,0,0,0-3.78-3.9Z"/><path class="cls-1" d="M631.2,175.25a3.9,3.9,0,1,0,3.9,3.9,3.84,3.84,0,0,0-3.78-3.9Z"/><path class="cls-1" d="M593.55,175.25a3.9,3.9,0,1,0,3.9,3.9,3.84,3.84,0,0,0-3.78-3.9Z"/><path class="cls-1" d="M687.8,156.35a3.9,3.9,0,1,0,3.9,3.9A4,4,0,0,0,687.8,156.35Z"/><path class="cls-1" d="M650.1,156.35a3.9,3.9,0,1,0,3.9,3.9A4,4,0,0,0,650.1,156.35Z"/><path class="cls-1" d="M612.4,156.35a3.9,3.9,0,1,0,3.9,3.9A4,4,0,0,0,612.4,156.35Z"/><path class="cls-1" d="M574.7,156.35a3.9,3.9,0,1,0,3.9,3.9A4,4,0,0,0,574.7,156.35Z"/><path class="cls-1" d="M819.7,288.25a3.87,3.87,0,0,0-3.9,3.7v.2a3.9,3.9,0,1,0,7.8,0h0V292A3.94,3.94,0,0,0,819.7,288.25Z"/><path class="cls-1" d="M782,288.25a3.87,3.87,0,0,0-3.9,3.7v.2a3.9,3.9,0,1,0,7.8,0h0V292A3.94,3.94,0,0,0,782,288.25Z"/><path class="cls-1" d="M744.3,288.25a3.87,3.87,0,0,0-3.9,3.7v.2a3.9,3.9,0,0,0,7.8,0V292A3.94,3.94,0,0,0,744.3,288.25Z"/><path class="cls-1" d="M706.6,288.25h-.2a3.9,3.9,0,0,0-3.7,3.7v.2a3.87,3.87,0,0,0,3.7,3.9h.2a3.91,3.91,0,0,0,3.9-3.9h0V292A3.94,3.94,0,0,0,706.6,288.25Z"/><path class="cls-1" d="M838.55,269.45a3.9,3.9,0,1,0,3.9,3.9,3.84,3.84,0,0,0-3.78-3.9Z"/><path class="cls-1" d="M800.8,269.45a3.9,3.9,0,1,0,3.9,3.9,3.84,3.84,0,0,0-3.78-3.9Z"/><path class="cls-1" d="M763.1,269.45a3.9,3.9,0,1,0,3.9,3.9,3.84,3.84,0,0,0-3.78-3.9Z"/><path class="cls-1" d="M725.4,269.45a3.9,3.9,0,1,0,3.9,3.9,3.84,3.84,0,0,0-3.78-3.9Z"/><path class="cls-1" d="M819.7,250.65a3.9,3.9,0,1,0,3.9,3.9,3.91,3.91,0,0,0-3.9-3.9Z"/><path class="cls-1" d="M782,250.65a3.9,3.9,0,1,0,3.9,3.9,3.91,3.91,0,0,0-3.9-3.9Z"/><path class="cls-1" d="M744.3,250.65a3.9,3.9,0,1,0,3.9,3.9,3.91,3.91,0,0,0-3.9-3.9Z"/><path class="cls-1" d="M706.6,250.65h-.2a3.91,3.91,0,0,0,0,7.8h.2a3.9,3.9,0,0,0,0-7.8Z"/><path class="cls-1" d="M838.55,231.75a3.9,3.9,0,1,0,3.9,3.9,3.91,3.91,0,0,0-3.9-3.9Z"/><path class="cls-1" d="M800.8,231.75a3.9,3.9,0,1,0,3.9,3.9,3.91,3.91,0,0,0-3.9-3.9Z"/><path class="cls-1" d="M763.1,231.75a3.9,3.9,0,1,0,3.9,3.9,3.91,3.91,0,0,0-3.9-3.9Z"/><path class="cls-1" d="M725.4,231.75a3.9,3.9,0,1,0,3.9,3.9,3.91,3.91,0,0,0-3.9-3.9Z"/><path class="cls-1" d="M819.7,213a3.9,3.9,0,1,0,3.9,3.9,3.91,3.91,0,0,0-3.9-3.9Z"/><path class="cls-1" d="M782,213a3.9,3.9,0,1,0,3.9,3.9A3.91,3.91,0,0,0,782,213Z"/><path class="cls-1" d="M744.3,213a3.9,3.9,0,1,0,3.9,3.9,3.91,3.91,0,0,0-3.9-3.9Z"/><path class="cls-1" d="M706.6,213h-.2a3.91,3.91,0,0,0,0,7.8h.2a3.9,3.9,0,0,0,0-7.8Z"/><path class="cls-1" d="M838.55,194.05a3.9,3.9,0,1,0,3.9,3.9,3.91,3.91,0,0,0-3.9-3.9Z"/><path class="cls-1" d="M800.8,194.05a3.9,3.9,0,1,0,3.9,3.9,3.91,3.91,0,0,0-3.9-3.9Z"/><path class="cls-1" d="M763.1,194.05A3.9,3.9,0,1,0,767,198a3.91,3.91,0,0,0-3.9-3.9Z"/><path class="cls-1" d="M725.4,194.05a3.9,3.9,0,1,0,3.9,3.9,3.91,3.91,0,0,0-3.9-3.9Z"/><path class="cls-1" d="M819.7,175.25a3.9,3.9,0,1,0,3.9,3.9,3.91,3.91,0,0,0-3.9-3.9Z"/><path class="cls-1" d="M782,175.25a3.9,3.9,0,1,0,3.9,3.9,3.91,3.91,0,0,0-3.9-3.9Z"/><path class="cls-1" d="M744.3,175.25a3.9,3.9,0,1,0,3.9,3.9,3.91,3.91,0,0,0-3.9-3.9Z"/><path class="cls-1" d="M706.6,175.25h-.2a3.91,3.91,0,0,0,0,7.8h.2a3.9,3.9,0,0,0,0-7.8Z"/><path class="cls-1" d="M838.55,156.35a3.9,3.9,0,1,0,3.9,3.9,3.91,3.91,0,0,0-3.9-3.9Z"/><path class="cls-1" d="M800.8,156.35a3.9,3.9,0,1,0,3.9,3.9,3.91,3.91,0,0,0-3.9-3.9Z"/><path class="cls-1" d="M763.1,156.35a3.9,3.9,0,1,0,3.9,3.9,3.91,3.91,0,0,0-3.9-3.9Z"/><path class="cls-1" d="M725.4,156.35a3.9,3.9,0,1,0,3.9,3.9,3.91,3.91,0,0,0-3.9-3.9Z"/><path class="cls-1" d="M970.4,137.55a3.87,3.87,0,0,0-3.9,3.7v.2a3.9,3.9,0,1,0,7.8,0h0v-.2A3.87,3.87,0,0,0,970.4,137.55Z"/><path class="cls-1" d="M932.7,137.55a3.87,3.87,0,0,0-3.9,3.7v.2a3.9,3.9,0,1,0,7.8,0h0v-.2A3.87,3.87,0,0,0,932.7,137.55Z"/><path class="cls-1" d="M895.1,137.55a3.87,3.87,0,0,0-3.9,3.7v.2a3.9,3.9,0,0,0,7.8,0v-.2A4,4,0,0,0,895.1,137.55Z"/><path class="cls-1" d="M857.4,137.55h-.2a3.9,3.9,0,0,0-3.7,3.7v.2a3.87,3.87,0,0,0,3.7,3.9h.2a3.91,3.91,0,0,0,3.9-3.9h0v-.2A3.87,3.87,0,0,0,857.4,137.55Z"/><path class="cls-1" d="M989.3,118.65a3.9,3.9,0,1,0,3.9,3.9A4,4,0,0,0,989.3,118.65Z"/><path class="cls-1" d="M951.6,118.65a3.9,3.9,0,1,0,3.9,3.9A4,4,0,0,0,951.6,118.65Z"/><path class="cls-1" d="M913.9,118.65a3.9,3.9,0,1,0,3.9,3.9A4,4,0,0,0,913.9,118.65Z"/><path class="cls-1" d="M876.2,118.65a3.9,3.9,0,1,0,3.9,3.9,3.91,3.91,0,0,0-3.9-3.9Z"/><path class="cls-1" d="M970.4,99.85a3.9,3.9,0,1,0,3.9,3.9,3.84,3.84,0,0,0-3.78-3.9Z"/><path class="cls-1" d="M932.7,99.85a3.9,3.9,0,1,0,3.9,3.9,3.84,3.84,0,0,0-3.78-3.9Z"/><path class="cls-1" d="M895.1,99.85a3.9,3.9,0,1,0,3.9,3.9A4,4,0,0,0,895.1,99.85Z"/><path class="cls-1" d="M857.4,99.85h-.2a3.91,3.91,0,0,0,0,7.8h.2a3.9,3.9,0,0,0,0-7.8Z"/><path class="cls-1" d="M989.3,81a3.9,3.9,0,1,0,3.9,3.9A4,4,0,0,0,989.3,81Z"/><path class="cls-1" d="M951.6,81a3.9,3.9,0,1,0,3.9,3.9A4,4,0,0,0,951.6,81Z"/><path class="cls-1" d="M913.9,81a3.9,3.9,0,1,0,3.9,3.9A4,4,0,0,0,913.9,81Z"/><path class="cls-1" d="M876.2,81a3.9,3.9,0,1,0,3.9,3.9,3.91,3.91,0,0,0-3.9-3.9Z"/><path class="cls-1" d="M970.4,62.15a3.9,3.9,0,1,0,3.9,3.9,3.84,3.84,0,0,0-3.78-3.9Z"/><path class="cls-1" d="M932.7,62.15a3.9,3.9,0,1,0,3.9,3.9,3.84,3.84,0,0,0-3.78-3.9Z"/><path class="cls-1" d="M895.1,62.15a3.9,3.9,0,1,0,3.9,3.9A4,4,0,0,0,895.1,62.15Z"/><path class="cls-1" d="M857.4,62.15h-.2a3.91,3.91,0,0,0,0,7.8h.2a3.9,3.9,0,0,0,0-7.8Z"/><path class="cls-1" d="M989.3,43.35a3.9,3.9,0,1,0,3.9,3.9,3.91,3.91,0,0,0-3.9-3.9Z"/><path class="cls-1" d="M951.6,43.35a3.9,3.9,0,1,0,3.9,3.9,3.91,3.91,0,0,0-3.9-3.9Z"/><path class="cls-1" d="M913.9,43.35a3.9,3.9,0,1,0,3.9,3.9,3.91,3.91,0,0,0-3.9-3.9Z"/><path class="cls-1" d="M876.2,43.35a3.9,3.9,0,1,0,3.9,3.9,3.84,3.84,0,0,0-3.78-3.9Z"/><path class="cls-1" d="M970.4,24.45a3.9,3.9,0,1,0,3.9,3.9,3.91,3.91,0,0,0-3.9-3.9Z"/><path class="cls-1" d="M932.7,24.45a3.9,3.9,0,1,0,3.9,3.9,3.91,3.91,0,0,0-3.9-3.9Z"/><path class="cls-1" d="M895.1,24.45a3.9,3.9,0,1,0,3.9,3.9A4,4,0,0,0,895.1,24.45Z"/><path class="cls-1" d="M857.4,24.45h-.2a3.91,3.91,0,0,0,0,7.8h.2a3.91,3.91,0,0,0,3.9-3.9h0A4,4,0,0,0,857.4,24.45Z"/><path class="cls-1" d="M989.3,5.65a3.9,3.9,0,1,0,3.9,3.9,3.91,3.91,0,0,0-3.9-3.9Z"/><path class="cls-1" d="M951.6,5.65a3.9,3.9,0,1,0,3.95,3.9,3.91,3.91,0,0,0-3.95-3.9Z"/><path class="cls-1" d="M913.9,5.65a3.9,3.9,0,1,0,3.9,3.9,3.91,3.91,0,0,0-3.9-3.9Z"/><path class="cls-1" d="M876.2,5.65a3.9,3.9,0,1,0,3.9,3.9,3.84,3.84,0,0,0-3.78-3.9Z"/><path class="cls-1" d="M1121.2,137.55a3.87,3.87,0,0,0-3.9,3.7v.2a3.9,3.9,0,1,0,7.8,0v-.2A3.87,3.87,0,0,0,1121.2,137.55Z"/><path class="cls-1" d="M1083.55,137.55a3.87,3.87,0,0,0-3.9,3.7v.2a3.9,3.9,0,0,0,7.8,0v-.2A3.87,3.87,0,0,0,1083.55,137.55Z"/><path class="cls-1" d="M1045.8,137.55a3.87,3.87,0,0,0-3.9,3.7v.2a3.9,3.9,0,0,0,7.8,0v-.2A3.87,3.87,0,0,0,1045.8,137.55Z"/><path class="cls-1" d="M1008.1,137.55h-.2a3.9,3.9,0,0,0-3.7,3.7v.2a3.87,3.87,0,0,0,3.7,3.9h.2a3.91,3.91,0,0,0,3.9-3.9h0v-.2A3.87,3.87,0,0,0,1008.1,137.55Z"/><path class="cls-1" d="M1102.4,118.65a3.9,3.9,0,1,0,3.9,3.9A4,4,0,0,0,1102.4,118.65Z"/><path class="cls-1" d="M1064.7,118.65a3.9,3.9,0,1,0,3.9,3.9A4,4,0,0,0,1064.7,118.65Z"/><path class="cls-1" d="M1027,118.65a3.9,3.9,0,1,0,3.9,3.9h0A4,4,0,0,0,1027,118.65Z"/><path class="cls-1" d="M1121.2,99.85a3.9,3.9,0,1,0,3.9,3.9,3.91,3.91,0,0,0-3.9-3.9Z"/><path class="cls-1" d="M1083.55,99.85a3.9,3.9,0,1,0,3.9,3.9,3.84,3.84,0,0,0-3.78-3.9Z"/><path class="cls-1" d="M1045.8,99.85a3.9,3.9,0,1,0,3.9,3.9,3.84,3.84,0,0,0-3.78-3.9Z"/><path class="cls-1" d="M1008.1,99.85h-.2a3.91,3.91,0,0,0,0,7.8h.2a3.91,3.91,0,0,0,3.9-3.9h0a3.84,3.84,0,0,0-3.78-3.9Z"/><path class="cls-1" d="M1102.4,81a3.9,3.9,0,1,0,3.9,3.9A4,4,0,0,0,1102.4,81Z"/><path class="cls-1" d="M1064.7,81a3.9,3.9,0,1,0,3.9,3.9A4,4,0,0,0,1064.7,81Z"/><path class="cls-1" d="M1027,81a3.9,3.9,0,1,0,3.9,3.9h0A4,4,0,0,0,1027,81Z"/><path class="cls-1" d="M1121.2,62.15a3.9,3.9,0,1,0,3.9,3.9,3.91,3.91,0,0,0-3.9-3.9Z"/><path class="cls-1" d="M1083.55,62.15a3.9,3.9,0,1,0,3.9,3.9,3.84,3.84,0,0,0-3.78-3.9Z"/><path class="cls-1" d="M1045.8,62.15a3.9,3.9,0,1,0,3.9,3.9,3.84,3.84,0,0,0-3.78-3.9Z"/><path class="cls-1" d="M1008.1,62.15h-.2a3.91,3.91,0,0,0,0,7.8h.2a3.91,3.91,0,0,0,3.9-3.9h0a3.84,3.84,0,0,0-3.78-3.9Z"/><path class="cls-1" d="M1102.4,43.35a3.9,3.9,0,1,0,3.9,3.9A4,4,0,0,0,1102.4,43.35Z"/><path class="cls-1" d="M1064.7,43.35a3.9,3.9,0,1,0,3.9,3.9,3.91,3.91,0,0,0-3.9-3.9Z"/><path class="cls-1" d="M1027,43.35a3.9,3.9,0,1,0,3.9,3.9h0A3.91,3.91,0,0,0,1027,43.35Z"/><path class="cls-1" d="M1121.2,24.45a3.9,3.9,0,1,0,3.9,3.9A4,4,0,0,0,1121.2,24.45Z"/><path class="cls-1" d="M1083.55,24.45a3.9,3.9,0,1,0,3.9,3.9,3.91,3.91,0,0,0-3.9-3.9Z"/><path class="cls-1" d="M1045.8,24.45a3.9,3.9,0,1,0,3.9,3.9,3.91,3.91,0,0,0-3.9-3.9Z"/><path class="cls-1" d="M1008.1,24.45h-.2a3.91,3.91,0,0,0,0,7.8h.2a3.9,3.9,0,0,0,0-7.8Z"/><path class="cls-1" d="M1102.4,5.65a3.9,3.9,0,1,0,3.9,3.9A4,4,0,0,0,1102.4,5.65Z"/><path class="cls-1" d="M1064.7,5.65a3.9,3.9,0,1,0,3.9,3.9,3.91,3.91,0,0,0-3.9-3.9Z"/><path class="cls-1" d="M1027,5.65a3.9,3.9,0,1,0,3.9,3.9h0A3.91,3.91,0,0,0,1027,5.65Z"/><path class="cls-1" d="M970.4,288.25a3.87,3.87,0,0,0-3.9,3.7v.2a3.9,3.9,0,1,0,7.8,0h0V292A3.94,3.94,0,0,0,970.4,288.25Z"/><path class="cls-1" d="M932.7,288.25a3.87,3.87,0,0,0-3.9,3.7v.2a3.9,3.9,0,1,0,7.8,0h0V292A3.94,3.94,0,0,0,932.7,288.25Z"/><path class="cls-1" d="M895.1,288.25a3.87,3.87,0,0,0-3.9,3.7v.2a3.9,3.9,0,0,0,7.8,0V292A4.1,4.1,0,0,0,895.1,288.25Z"/><path class="cls-1" d="M857.4,288.25h-.2a3.9,3.9,0,0,0-3.7,3.7v.2a3.87,3.87,0,0,0,3.7,3.9h.2a3.91,3.91,0,0,0,3.9-3.9h0V292A3.94,3.94,0,0,0,857.4,288.25Z"/><path class="cls-1" d="M989.3,269.45a3.9,3.9,0,1,0,3.9,3.9,3.91,3.91,0,0,0-3.9-3.9Z"/><path class="cls-1" d="M951.6,269.45a3.9,3.9,0,1,0,3.9,3.9,3.91,3.91,0,0,0-3.9-3.9Z"/><path class="cls-1" d="M913.9,269.45a3.9,3.9,0,1,0,3.9,3.9,3.91,3.91,0,0,0-3.9-3.9Z"/><path class="cls-1" d="M876.2,269.45a3.9,3.9,0,1,0,3.9,3.9,3.84,3.84,0,0,0-3.78-3.9Z"/><path class="cls-1" d="M970.4,250.65a3.9,3.9,0,1,0,3.9,3.9,3.84,3.84,0,0,0-3.78-3.9Z"/><path class="cls-1" d="M932.7,250.65a3.9,3.9,0,1,0,3.9,3.9,3.84,3.84,0,0,0-3.78-3.9Z"/><path class="cls-1" d="M895.1,250.65a3.9,3.9,0,1,0,3.9,3.9A4,4,0,0,0,895.1,250.65Z"/><path class="cls-1" d="M857.4,250.65h-.2a3.91,3.91,0,0,0,0,7.8h.2a3.9,3.9,0,0,0,0-7.8Z"/><path class="cls-1" d="M989.3,231.75a3.9,3.9,0,1,0,3.9,3.9A4,4,0,0,0,989.3,231.75Z"/><path class="cls-1" d="M951.6,231.75a3.9,3.9,0,1,0,3.95,3.9A4,4,0,0,0,951.6,231.75Z"/><path class="cls-1" d="M913.9,231.75a3.9,3.9,0,1,0,3.9,3.9A4,4,0,0,0,913.9,231.75Z"/><path class="cls-1" d="M876.2,231.75a3.9,3.9,0,1,0,3.9,3.9,3.91,3.91,0,0,0-3.9-3.9Z"/><path class="cls-1" d="M970.4,213a3.9,3.9,0,1,0,3.9,3.9,3.84,3.84,0,0,0-3.78-3.9Z"/><path class="cls-1" d="M932.7,213a3.9,3.9,0,1,0,3.9,3.9,3.84,3.84,0,0,0-3.78-3.9Z"/><path class="cls-1" d="M895.1,213a3.9,3.9,0,1,0,3.9,3.9A4,4,0,0,0,895.1,213Z"/><path class="cls-1" d="M857.4,213h-.2a3.91,3.91,0,0,0,0,7.8h.2a3.9,3.9,0,0,0,0-7.8Z"/><path class="cls-1" d="M989.3,194.05a3.9,3.9,0,1,0,3.9,3.9A4,4,0,0,0,989.3,194.05Z"/><path class="cls-1" d="M951.6,194.05a3.9,3.9,0,1,0,3.9,3.9A4,4,0,0,0,951.6,194.05Z"/><path class="cls-1" d="M913.9,194.05a3.9,3.9,0,1,0,3.9,3.9A4,4,0,0,0,913.9,194.05Z"/><path class="cls-1" d="M876.2,194.05a3.9,3.9,0,1,0,3.9,3.9,3.91,3.91,0,0,0-3.9-3.9Z"/><path class="cls-1" d="M970.4,175.25a3.9,3.9,0,1,0,3.9,3.9,3.84,3.84,0,0,0-3.78-3.9Z"/><path class="cls-1" d="M932.7,175.25a3.9,3.9,0,1,0,3.9,3.9,3.84,3.84,0,0,0-3.78-3.9Z"/><path class="cls-1" d="M895.1,175.25a3.9,3.9,0,1,0,3.9,3.9A4,4,0,0,0,895.1,175.25Z"/><path class="cls-1" d="M857.4,175.25h-.2a3.91,3.91,0,0,0,0,7.8h.2a3.9,3.9,0,0,0,0-7.8Z"/><path class="cls-1" d="M989.3,156.35a3.9,3.9,0,1,0,3.9,3.9A4,4,0,0,0,989.3,156.35Z"/><path class="cls-1" d="M951.6,156.35a3.9,3.9,0,1,0,3.9,3.9A4,4,0,0,0,951.6,156.35Z"/><path class="cls-1" d="M913.9,156.35a3.9,3.9,0,1,0,3.9,3.9A4,4,0,0,0,913.9,156.35Z"/><path class="cls-1" d="M876.2,156.35a3.9,3.9,0,1,0,3.9,3.9,3.91,3.91,0,0,0-3.9-3.9Z"/><path class="cls-1" d="M1121.2,288.25a3.87,3.87,0,0,0-3.9,3.7v.2a3.9,3.9,0,1,0,7.8,0V292A3.94,3.94,0,0,0,1121.2,288.25Z"/><path class="cls-1" d="M1083.55,288.25a3.87,3.87,0,0,0-3.9,3.7v.2a3.9,3.9,0,0,0,7.8,0V292A3.94,3.94,0,0,0,1083.55,288.25Z"/><path class="cls-1" d="M1045.8,288.25a3.87,3.87,0,0,0-3.9,3.7v.2a3.9,3.9,0,0,0,7.8,0V292A3.94,3.94,0,0,0,1045.8,288.25Z"/><path class="cls-1" d="M1008.1,288.25h-.2a3.9,3.9,0,0,0-3.7,3.7v.2a3.87,3.87,0,0,0,3.7,3.9h.2a3.91,3.91,0,0,0,3.9-3.9h0V292A3.94,3.94,0,0,0,1008.1,288.25Z"/><path class="cls-1" d="M1102.4,269.45a3.9,3.9,0,1,0,3.9,3.9A4,4,0,0,0,1102.4,269.45Z"/><path class="cls-1" d="M1064.7,269.45a3.9,3.9,0,1,0,3.9,3.9,3.91,3.91,0,0,0-3.9-3.9Z"/><path class="cls-1" d="M1027,269.45a3.9,3.9,0,1,0,3.9,3.9h0A3.91,3.91,0,0,0,1027,269.45Z"/><path class="cls-1" d="M1121.2,250.65a3.9,3.9,0,1,0,3.9,3.9,3.91,3.91,0,0,0-3.9-3.9Z"/><path class="cls-1" d="M1083.55,250.65a3.9,3.9,0,1,0,3.9,3.9,3.84,3.84,0,0,0-3.78-3.9Z"/><path class="cls-1" d="M1045.8,250.65a3.9,3.9,0,1,0,3.9,3.9,3.84,3.84,0,0,0-3.78-3.9Z"/><path class="cls-1" d="M1008.1,250.65h-.2a3.91,3.91,0,0,0,0,7.8h.2a3.91,3.91,0,0,0,3.9-3.9h0a3.84,3.84,0,0,0-3.78-3.9Z"/><path class="cls-1" d="M1102.4,231.75a3.9,3.9,0,1,0,3.9,3.9A4,4,0,0,0,1102.4,231.75Z"/><path class="cls-1" d="M1064.7,231.75a3.9,3.9,0,1,0,3.9,3.9A4,4,0,0,0,1064.7,231.75Z"/><path class="cls-1" d="M1027,231.75a3.9,3.9,0,1,0,3.9,3.9h0A4,4,0,0,0,1027,231.75Z"/><path class="cls-1" d="M1121.2,213a3.9,3.9,0,1,0,3.9,3.9,3.91,3.91,0,0,0-3.9-3.9Z"/><path class="cls-1" d="M1083.55,213a3.9,3.9,0,1,0,3.9,3.9,3.84,3.84,0,0,0-3.78-3.9Z"/><path class="cls-1" d="M1045.8,213a3.9,3.9,0,1,0,3.9,3.9,3.84,3.84,0,0,0-3.78-3.9Z"/><path class="cls-1" d="M1008.1,213h-.2a3.91,3.91,0,0,0,0,7.8h.2a3.91,3.91,0,0,0,3.9-3.9h0a3.84,3.84,0,0,0-3.78-3.9Z"/><path class="cls-1" d="M1102.4,194.05a3.9,3.9,0,1,0,3.9,3.9A4,4,0,0,0,1102.4,194.05Z"/><path class="cls-1" d="M1064.7,194.05a3.9,3.9,0,1,0,3.9,3.9A4,4,0,0,0,1064.7,194.05Z"/><path class="cls-1" d="M1027,194.05a3.9,3.9,0,1,0,3.9,3.9h0A4,4,0,0,0,1027,194.05Z"/><path class="cls-1" d="M1121.2,175.25a3.9,3.9,0,1,0,3.9,3.9,3.91,3.91,0,0,0-3.9-3.9Z"/><path class="cls-1" d="M1083.55,175.25a3.9,3.9,0,1,0,3.9,3.9,3.84,3.84,0,0,0-3.78-3.9Z"/><path class="cls-1" d="M1045.8,175.25a3.9,3.9,0,1,0,3.9,3.9,3.84,3.84,0,0,0-3.78-3.9Z"/><path class="cls-1" d="M1008.1,175.25h-.2a3.91,3.91,0,0,0,0,7.8h.2a3.91,3.91,0,0,0,3.9-3.9h0a3.84,3.84,0,0,0-3.78-3.9Z"/><path class="cls-1" d="M1102.4,156.35a3.9,3.9,0,1,0,3.9,3.9A4,4,0,0,0,1102.4,156.35Z"/><path class="cls-1" d="M1064.7,156.35a3.9,3.9,0,1,0,3.9,3.9A4,4,0,0,0,1064.7,156.35Z"/><path class="cls-1" d="M1027,156.35a3.9,3.9,0,1,0,3.9,3.9h0A4,4,0,0,0,1027,156.35Z"/><path class="cls-1" d="M668.9,439.05a3.87,3.87,0,0,0-3.9,3.7v.2a3.9,3.9,0,1,0,7.8,0h0v-.2A3.94,3.94,0,0,0,668.9,439.05Z"/><path class="cls-1" d="M631.2,439.05a3.87,3.87,0,0,0-3.9,3.7v.2a3.9,3.9,0,1,0,7.8,0h0v-.2A3.94,3.94,0,0,0,631.2,439.05Z"/><path class="cls-1" d="M593.55,439.05a3.87,3.87,0,0,0-3.9,3.7v.2a3.9,3.9,0,1,0,7.8,0h0v-.2A3.94,3.94,0,0,0,593.55,439.05Z"/><path class="cls-1" d="M687.8,420.25a3.9,3.9,0,1,0,3.9,3.9A4,4,0,0,0,687.8,420.25Z"/><path class="cls-1" d="M650.1,420.25a3.9,3.9,0,1,0,3.9,3.9,3.91,3.91,0,0,0-3.9-3.9Z"/><path class="cls-1" d="M612.4,420.25a3.9,3.9,0,1,0,3.9,3.9,3.91,3.91,0,0,0-3.9-3.9Z"/><path class="cls-1" d="M574.7,420.25a3.9,3.9,0,1,0,3.9,3.9,3.91,3.91,0,0,0-3.9-3.9Z"/><path class="cls-1" d="M668.9,401.35a3.9,3.9,0,1,0,3.9,3.9,3.91,3.91,0,0,0-3.9-3.9Z"/><path class="cls-1" d="M631.2,401.35a3.9,3.9,0,1,0,3.9,3.9,3.91,3.91,0,0,0-3.9-3.9Z"/><path class="cls-1" d="M593.55,401.35a3.9,3.9,0,1,0,3.9,3.9,3.91,3.91,0,0,0-3.9-3.9Z"/><path class="cls-1" d="M687.8,382.55a3.9,3.9,0,1,0,3.9,3.9A4,4,0,0,0,687.8,382.55Z"/><path class="cls-1" d="M650.1,382.55a3.9,3.9,0,1,0,3.9,3.9,3.91,3.91,0,0,0-3.9-3.9Z"/><path class="cls-1" d="M612.4,382.55a3.9,3.9,0,1,0,3.9,3.9,3.91,3.91,0,0,0-3.9-3.9Z"/><path class="cls-1" d="M574.7,382.55a3.9,3.9,0,1,0,3.9,3.9,3.91,3.91,0,0,0-3.9-3.9Z"/><path class="cls-1" d="M668.9,363.65a3.9,3.9,0,1,0,3.9,3.9,3.91,3.91,0,0,0-3.9-3.9Z"/><path class="cls-1" d="M631.2,363.65a3.9,3.9,0,1,0,3.9,3.9,3.91,3.91,0,0,0-3.9-3.9Z"/><path class="cls-1" d="M593.55,363.65a3.9,3.9,0,1,0,3.9,3.9,3.91,3.91,0,0,0-3.9-3.9Z"/><path class="cls-1" d="M687.8,344.85a3.9,3.9,0,1,0,3.9,3.9A4,4,0,0,0,687.8,344.85Z"/><path class="cls-1" d="M650.1,344.85a3.9,3.9,0,1,0,3.9,3.9,3.91,3.91,0,0,0-3.9-3.9Z"/><path class="cls-1" d="M612.4,344.85a3.9,3.9,0,1,0,3.9,3.9,3.91,3.91,0,0,0-3.9-3.9Z"/><path class="cls-1" d="M574.7,344.85a3.9,3.9,0,1,0,3.9,3.9,3.91,3.91,0,0,0-3.9-3.9Z"/><path class="cls-1" d="M668.9,326a3.9,3.9,0,1,0,3.9,3.9,3.91,3.91,0,0,0-3.9-3.9Z"/><path class="cls-1" d="M631.2,326a3.9,3.9,0,1,0,3.9,3.9,3.91,3.91,0,0,0-3.9-3.9Z"/><path class="cls-1" d="M593.55,326a3.9,3.9,0,1,0,3.9,3.9,3.91,3.91,0,0,0-3.9-3.9Z"/><path class="cls-1" d="M687.8,307.15a3.9,3.9,0,1,0,3.9,3.9A4,4,0,0,0,687.8,307.15Z"/><path class="cls-1" d="M650.1,307.15a3.9,3.9,0,1,0,3.9,3.9,3.91,3.91,0,0,0-3.9-3.9Z"/><path class="cls-1" d="M612.4,307.15a3.9,3.9,0,1,0,3.9,3.9,3.91,3.91,0,0,0-3.9-3.9Z"/><path class="cls-1" d="M574.7,307.15a3.9,3.9,0,1,0,3.9,3.9,3.91,3.91,0,0,0-3.9-3.9Z"/><path class="cls-1" d="M819.7,439.05a3.87,3.87,0,0,0-3.9,3.7v.2a3.9,3.9,0,1,0,7.8,0h0v-.2A3.94,3.94,0,0,0,819.7,439.05Z"/><path class="cls-1" d="M782,439.05a3.87,3.87,0,0,0-3.9,3.7v.2a3.9,3.9,0,1,0,7.8,0h0v-.2A3.94,3.94,0,0,0,782,439.05Z"/><path class="cls-1" d="M744.3,439.05a3.87,3.87,0,0,0-3.9,3.7v.2a3.9,3.9,0,0,0,7.8,0v-.2A3.94,3.94,0,0,0,744.3,439.05Z"/><path class="cls-1" d="M706.6,439.05h-.2a3.9,3.9,0,0,0-3.7,3.7v.2a3.87,3.87,0,0,0,3.7,3.9h.2a3.91,3.91,0,0,0,3.9-3.9h0v-.2A3.94,3.94,0,0,0,706.6,439.05Z"/><path class="cls-1" d="M838.55,420.25a3.9,3.9,0,1,0,3.9,3.9,3.84,3.84,0,0,0-3.78-3.9Z"/><path class="cls-1" d="M800.8,420.25a3.9,3.9,0,1,0,3.9,3.9,3.84,3.84,0,0,0-3.78-3.9Z"/><path class="cls-1" d="M763.1,420.25a3.9,3.9,0,1,0,3.9,3.9,3.84,3.84,0,0,0-3.78-3.9Z"/><path class="cls-1" d="M725.4,420.25a3.9,3.9,0,1,0,3.9,3.9,3.84,3.84,0,0,0-3.78-3.9Z"/><path class="cls-1" d="M819.7,401.35a3.9,3.9,0,1,0,3.9,3.9A4,4,0,0,0,819.7,401.35Z"/><path class="cls-1" d="M782,401.35a3.9,3.9,0,1,0,3.9,3.9A4,4,0,0,0,782,401.35Z"/><path class="cls-1" d="M744.3,401.35a3.9,3.9,0,1,0,3.9,3.9A4,4,0,0,0,744.3,401.35Z"/><path class="cls-1" d="M706.6,401.35h-.2a3.91,3.91,0,0,0,0,7.8h.2a3.91,3.91,0,0,0,3.9-3.9h0A4,4,0,0,0,706.6,401.35Z"/><path class="cls-1" d="M838.55,382.55a3.9,3.9,0,1,0,3.9,3.9,3.84,3.84,0,0,0-3.78-3.9Z"/><path class="cls-1" d="M800.8,382.55a3.9,3.9,0,1,0,3.9,3.9,3.84,3.84,0,0,0-3.78-3.9Z"/><path class="cls-1" d="M763.1,382.55a3.9,3.9,0,1,0,3.9,3.9,3.84,3.84,0,0,0-3.78-3.9Z"/><path class="cls-1" d="M725.4,382.55a3.9,3.9,0,1,0,3.9,3.9,3.84,3.84,0,0,0-3.78-3.9Z"/><path class="cls-1" d="M819.7,363.65a3.9,3.9,0,1,0,3.9,3.9A4,4,0,0,0,819.7,363.65Z"/><path class="cls-1" d="M782,363.65a3.9,3.9,0,1,0,3.9,3.9A4,4,0,0,0,782,363.65Z"/><path class="cls-1" d="M744.3,363.65a3.9,3.9,0,1,0,3.9,3.9A4,4,0,0,0,744.3,363.65Z"/><path class="cls-1" d="M706.6,363.65h-.2a3.91,3.91,0,0,0,0,7.8h.2a3.91,3.91,0,0,0,3.9-3.9h0A4,4,0,0,0,706.6,363.65Z"/><path class="cls-1" d="M838.55,344.85a3.9,3.9,0,1,0,3.9,3.9,3.84,3.84,0,0,0-3.78-3.9Z"/><path class="cls-1" d="M800.8,344.85a3.9,3.9,0,1,0,3.9,3.9,3.84,3.84,0,0,0-3.78-3.9Z"/><path class="cls-1" d="M763.1,344.85a3.9,3.9,0,1,0,3.9,3.9,3.84,3.84,0,0,0-3.78-3.9Z"/><path class="cls-1" d="M725.4,344.85a3.9,3.9,0,1,0,3.9,3.9,3.84,3.84,0,0,0-3.78-3.9Z"/><path class="cls-1" d="M819.7,326a3.9,3.9,0,1,0,3.9,3.9A4,4,0,0,0,819.7,326Z"/><path class="cls-1" d="M782,326a3.9,3.9,0,1,0,3.9,3.9A4,4,0,0,0,782,326Z"/><path class="cls-1" d="M744.3,326a3.9,3.9,0,1,0,3.9,3.9A4,4,0,0,0,744.3,326Z"/><path class="cls-1" d="M706.6,326h-.2a3.91,3.91,0,0,0,0,7.8h.2a3.91,3.91,0,0,0,3.9-3.9h0A4,4,0,0,0,706.6,326Z"/><path class="cls-1" d="M838.55,307.15a3.9,3.9,0,1,0,3.9,3.9,3.84,3.84,0,0,0-3.78-3.9Z"/><path class="cls-1" d="M800.8,307.15a3.9,3.9,0,1,0,3.9,3.9,3.84,3.84,0,0,0-3.78-3.9Z"/><path class="cls-1" d="M763.1,307.15a3.9,3.9,0,1,0,3.9,3.9,3.84,3.84,0,0,0-3.78-3.9Z"/><path class="cls-1" d="M725.4,307.15a3.9,3.9,0,1,0,3.9,3.9,3.84,3.84,0,0,0-3.78-3.9Z"/><path class="cls-1" d="M668.9,552.15a3.9,3.9,0,1,0,3.9,3.9,3.84,3.84,0,0,0-3.78-3.9Z"/><path class="cls-1" d="M631.2,552.15a3.9,3.9,0,1,0,3.9,3.9,3.84,3.84,0,0,0-3.78-3.9Z"/><path class="cls-1" d="M593.55,552.15a3.9,3.9,0,1,0,3.9,3.9,3.84,3.84,0,0,0-3.78-3.9Z"/><path class="cls-1" d="M687.8,533.25a3.9,3.9,0,1,0,3.9,3.9A4,4,0,0,0,687.8,533.25Z"/><path class="cls-1" d="M650.1,533.25a3.9,3.9,0,1,0,3.9,3.9A4,4,0,0,0,650.1,533.25Z"/><path class="cls-1" d="M612.4,533.25a3.9,3.9,0,1,0,3.9,3.9A4,4,0,0,0,612.4,533.25Z"/><path class="cls-1" d="M574.7,533.25a3.9,3.9,0,1,0,3.9,3.9A4,4,0,0,0,574.7,533.25Z"/><path class="cls-1" d="M668.9,514.45a3.9,3.9,0,1,0,3.9,3.9,3.84,3.84,0,0,0-3.78-3.9Z"/><path class="cls-1" d="M631.2,514.45a3.9,3.9,0,1,0,3.9,3.9,3.84,3.84,0,0,0-3.78-3.9Z"/><path class="cls-1" d="M593.55,514.45a3.9,3.9,0,1,0,3.9,3.9,3.84,3.84,0,0,0-3.78-3.9Z"/><path class="cls-1" d="M687.8,495.55a3.9,3.9,0,1,0,3.9,3.9A4,4,0,0,0,687.8,495.55Z"/><path class="cls-1" d="M650.1,495.55a3.9,3.9,0,1,0,3.9,3.9A4,4,0,0,0,650.1,495.55Z"/><path class="cls-1" d="M612.4,495.55a3.9,3.9,0,1,0,3.9,3.9A4,4,0,0,0,612.4,495.55Z"/><path class="cls-1" d="M574.7,495.55a3.9,3.9,0,1,0,3.9,3.9A4,4,0,0,0,574.7,495.55Z"/><path class="cls-1" d="M668.9,476.75a3.9,3.9,0,1,0,3.9,3.9,3.84,3.84,0,0,0-3.78-3.9Z"/><path class="cls-1" d="M631.2,476.75a3.9,3.9,0,1,0,3.9,3.9,3.84,3.84,0,0,0-3.78-3.9Z"/><path class="cls-1" d="M593.55,476.75a3.9,3.9,0,1,0,3.9,3.9,3.84,3.84,0,0,0-3.78-3.9Z"/><path class="cls-1" d="M687.8,458a3.9,3.9,0,1,0,3.9,3.9A4,4,0,0,0,687.8,458Z"/><path class="cls-1" d="M650.1,458a3.9,3.9,0,1,0,3.9,3.9,3.91,3.91,0,0,0-3.9-3.9Z"/><path class="cls-1" d="M612.4,458a3.9,3.9,0,1,0,3.9,3.9,3.91,3.91,0,0,0-3.9-3.9Z"/><path class="cls-1" d="M574.7,458a3.9,3.9,0,1,0,3.9,3.9,3.91,3.91,0,0,0-3.9-3.9Z"/><path class="cls-1" d="M819.7,552.15a3.9,3.9,0,1,0,3.9,3.9,3.91,3.91,0,0,0-3.9-3.9Z"/><path class="cls-1" d="M782,552.15a3.9,3.9,0,1,0,3.9,3.9,3.91,3.91,0,0,0-3.9-3.9Z"/><path class="cls-1" d="M744.3,552.15a3.9,3.9,0,1,0,3.9,3.9,3.91,3.91,0,0,0-3.9-3.9Z"/><path class="cls-1" d="M706.6,552.15h-.2a3.91,3.91,0,0,0,0,7.8h.2a3.9,3.9,0,1,0,0-7.8Z"/><path class="cls-1" d="M838.55,533.25a3.9,3.9,0,1,0,3.9,3.9,3.91,3.91,0,0,0-3.9-3.9Z"/><path class="cls-1" d="M800.8,533.25a3.9,3.9,0,1,0,3.9,3.9,3.91,3.91,0,0,0-3.9-3.9Z"/><path class="cls-1" d="M763.1,533.25a3.9,3.9,0,1,0,3.9,3.9,3.91,3.91,0,0,0-3.9-3.9Z"/><path class="cls-1" d="M725.4,533.25a3.9,3.9,0,1,0,3.9,3.9,3.91,3.91,0,0,0-3.9-3.9Z"/><path class="cls-1" d="M819.7,514.45a3.9,3.9,0,1,0,3.9,3.9,3.91,3.91,0,0,0-3.9-3.9Z"/><path class="cls-1" d="M782,514.45a3.9,3.9,0,1,0,3.9,3.9,3.91,3.91,0,0,0-3.9-3.9Z"/><path class="cls-1" d="M744.3,514.45a3.9,3.9,0,1,0,3.9,3.9,3.91,3.91,0,0,0-3.9-3.9Z"/><path class="cls-1" d="M706.6,514.45h-.2a3.91,3.91,0,0,0,0,7.8h.2a3.9,3.9,0,1,0,0-7.8Z"/><path class="cls-1" d="M838.55,495.55a3.9,3.9,0,1,0,3.9,3.9,3.91,3.91,0,0,0-3.9-3.9Z"/><path class="cls-1" d="M800.8,495.55a3.9,3.9,0,1,0,3.9,3.9,3.91,3.91,0,0,0-3.9-3.9Z"/><path class="cls-1" d="M763.1,495.55a3.9,3.9,0,1,0,3.9,3.9,3.91,3.91,0,0,0-3.9-3.9Z"/><path class="cls-1" d="M725.4,495.55a3.9,3.9,0,1,0,3.9,3.9,3.91,3.91,0,0,0-3.9-3.9Z"/><path class="cls-1" d="M819.7,476.75a3.9,3.9,0,1,0,3.9,3.9,3.91,3.91,0,0,0-3.9-3.9Z"/><path class="cls-1" d="M782,476.75a3.9,3.9,0,1,0,3.9,3.9,3.91,3.91,0,0,0-3.9-3.9Z"/><path class="cls-1" d="M744.3,476.75a3.9,3.9,0,1,0,3.9,3.9,3.91,3.91,0,0,0-3.9-3.9Z"/><path class="cls-1" d="M706.6,476.75h-.2a3.91,3.91,0,0,0,0,7.8h.2a3.9,3.9,0,1,0,0-7.8Z"/><path class="cls-1" d="M838.55,458a3.9,3.9,0,1,0,3.9,3.9,3.84,3.84,0,0,0-3.78-3.9Z"/><path class="cls-1" d="M800.8,458a3.9,3.9,0,1,0,3.9,3.9,3.84,3.84,0,0,0-3.78-3.9Z"/><path class="cls-1" d="M763.1,458a3.9,3.9,0,1,0,3.9,3.9,3.84,3.84,0,0,0-3.78-3.9Z"/><path class="cls-1" d="M725.4,458a3.9,3.9,0,1,0,3.9,3.9,3.84,3.84,0,0,0-3.78-3.9Z"/><path class="cls-1" d="M970.4,439.05a3.87,3.87,0,0,0-3.9,3.7v.2a3.9,3.9,0,1,0,7.8,0h0v-.2A3.94,3.94,0,0,0,970.4,439.05Z"/><path class="cls-1" d="M932.7,439.05a3.87,3.87,0,0,0-3.9,3.7v.2a3.9,3.9,0,1,0,7.8,0h0v-.2A3.94,3.94,0,0,0,932.7,439.05Z"/><path class="cls-1" d="M895.1,439.05a3.87,3.87,0,0,0-3.9,3.7v.2a3.9,3.9,0,1,0,7.8,0h0v-.2A4.1,4.1,0,0,0,895.1,439.05Z"/><path class="cls-1" d="M857.4,439.05h-.2a3.9,3.9,0,0,0-3.7,3.7v.2a3.87,3.87,0,0,0,3.7,3.9h.2a3.91,3.91,0,0,0,3.9-3.9h0v-.2A3.94,3.94,0,0,0,857.4,439.05Z"/><path class="cls-1" d="M989.3,420.25a3.9,3.9,0,1,0,3.9,3.9,3.91,3.91,0,0,0-3.9-3.9Z"/><path class="cls-1" d="M951.6,420.25a3.9,3.9,0,1,0,3.9,3.9,3.91,3.91,0,0,0-3.9-3.9Z"/><path class="cls-1" d="M913.9,420.25a3.9,3.9,0,1,0,3.9,3.9,3.91,3.91,0,0,0-3.9-3.9Z"/><path class="cls-1" d="M876.2,420.25a3.9,3.9,0,1,0,3.9,3.9,3.84,3.84,0,0,0-3.78-3.9Z"/><path class="cls-1" d="M970.4,401.35a3.9,3.9,0,1,0,3.9,3.9,3.91,3.91,0,0,0-3.9-3.9Z"/><path class="cls-1" d="M932.7,401.35a3.9,3.9,0,1,0,3.9,3.9,3.91,3.91,0,0,0-3.9-3.9Z"/><path class="cls-1" d="M895.1,401.35a3.9,3.9,0,1,0,3.9,3.9A4,4,0,0,0,895.1,401.35Z"/><path class="cls-1" d="M857.4,401.35h-.2a3.91,3.91,0,0,0,0,7.8h.2a3.91,3.91,0,0,0,3.9-3.9h0A4,4,0,0,0,857.4,401.35Z"/><path class="cls-1" d="M989.3,382.55a3.9,3.9,0,1,0,3.9,3.9,3.91,3.91,0,0,0-3.9-3.9Z"/><path class="cls-1" d="M951.6,382.55a3.9,3.9,0,1,0,3.9,3.9,3.91,3.91,0,0,0-3.9-3.9Z"/><path class="cls-1" d="M913.9,382.55a3.9,3.9,0,1,0,3.9,3.9,3.91,3.91,0,0,0-3.9-3.9Z"/><path class="cls-1" d="M876.2,382.55a3.9,3.9,0,1,0,3.9,3.9,3.84,3.84,0,0,0-3.78-3.9Z"/><path class="cls-1" d="M970.4,363.65a3.9,3.9,0,1,0,3.9,3.9,3.91,3.91,0,0,0-3.9-3.9Z"/><path class="cls-1" d="M932.7,363.65a3.9,3.9,0,1,0,3.9,3.9,3.91,3.91,0,0,0-3.9-3.9Z"/><path class="cls-1" d="M895.1,363.65a3.9,3.9,0,1,0,3.9,3.9A4,4,0,0,0,895.1,363.65Z"/><path class="cls-1" d="M857.4,363.65h-.2a3.91,3.91,0,0,0,0,7.8h.2a3.91,3.91,0,0,0,3.9-3.9h0A4,4,0,0,0,857.4,363.65Z"/><path class="cls-1" d="M989.3,344.85a3.9,3.9,0,1,0,3.9,3.9,3.91,3.91,0,0,0-3.9-3.9Z"/><path class="cls-1" d="M951.6,344.85a3.9,3.9,0,1,0,3.9,3.9,3.91,3.91,0,0,0-3.9-3.9Z"/><path class="cls-1" d="M913.9,344.85a3.9,3.9,0,1,0,3.9,3.9,3.91,3.91,0,0,0-3.9-3.9Z"/><path class="cls-1" d="M876.2,344.85a3.9,3.9,0,1,0,3.9,3.9,3.84,3.84,0,0,0-3.78-3.9Z"/><path class="cls-1" d="M970.4,326a3.9,3.9,0,1,0,3.9,3.9,3.91,3.91,0,0,0-3.9-3.9Z"/><path class="cls-1" d="M932.7,326a3.9,3.9,0,1,0,3.9,3.9,3.91,3.91,0,0,0-3.9-3.9Z"/><path class="cls-1" d="M895.1,326a3.9,3.9,0,1,0,3.9,3.9A4,4,0,0,0,895.1,326Z"/><path class="cls-1" d="M857.4,326h-.2a3.91,3.91,0,0,0,0,7.8h.2a3.91,3.91,0,0,0,3.9-3.9h0A4,4,0,0,0,857.4,326Z"/><path class="cls-1" d="M989.3,307.15a3.9,3.9,0,1,0,3.9,3.9,3.91,3.91,0,0,0-3.9-3.9Z"/><path class="cls-1" d="M951.6,307.15a3.9,3.9,0,1,0,3.9,3.9,3.91,3.91,0,0,0-3.9-3.9Z"/><path class="cls-1" d="M913.9,307.15a3.9,3.9,0,1,0,3.9,3.9,3.91,3.91,0,0,0-3.9-3.9Z"/><path class="cls-1" d="M876.2,307.15a3.9,3.9,0,1,0,3.9,3.9,3.84,3.84,0,0,0-3.78-3.9Z"/><path class="cls-1" d="M1121.2,439.05a3.87,3.87,0,0,0-3.9,3.7v.2a3.9,3.9,0,1,0,7.8,0v-.2A3.94,3.94,0,0,0,1121.2,439.05Z"/><path class="cls-1" d="M1083.55,439.05a3.87,3.87,0,0,0-3.9,3.7v.2a3.9,3.9,0,0,0,7.8,0v-.2A3.94,3.94,0,0,0,1083.55,439.05Z"/><path class="cls-1" d="M1045.8,439.05a3.87,3.87,0,0,0-3.9,3.7v.2a3.9,3.9,0,0,0,7.8,0v-.2A3.94,3.94,0,0,0,1045.8,439.05Z"/><path class="cls-1" d="M1008.1,439.05h-.2a3.9,3.9,0,0,0-3.7,3.7v.2a3.87,3.87,0,0,0,3.7,3.9h.2a3.91,3.91,0,0,0,3.9-3.9h0v-.2A3.94,3.94,0,0,0,1008.1,439.05Z"/><path class="cls-1" d="M1102.4,420.25a3.9,3.9,0,1,0,3.9,3.9A4,4,0,0,0,1102.4,420.25Z"/><path class="cls-1" d="M1064.7,420.25a3.9,3.9,0,1,0,3.9,3.9,3.91,3.91,0,0,0-3.9-3.9Z"/><path class="cls-1" d="M1027,420.25a3.9,3.9,0,1,0,3.9,3.9h0A3.91,3.91,0,0,0,1027,420.25Z"/><path class="cls-1" d="M1121.2,401.35a3.9,3.9,0,1,0,3.9,3.9A4,4,0,0,0,1121.2,401.35Z"/><path class="cls-1" d="M1083.55,401.35a3.9,3.9,0,1,0,3.9,3.9,3.91,3.91,0,0,0-3.9-3.9Z"/><path class="cls-1" d="M1045.8,401.35a3.9,3.9,0,1,0,3.9,3.9,3.91,3.91,0,0,0-3.9-3.9Z"/><path class="cls-1" d="M1008.1,401.35h-.2a3.91,3.91,0,0,0,0,7.8h.2a3.9,3.9,0,1,0,0-7.8Z"/><path class="cls-1" d="M1102.4,382.55a3.9,3.9,0,1,0,3.9,3.9A4,4,0,0,0,1102.4,382.55Z"/><path class="cls-1" d="M1064.7,382.55a3.9,3.9,0,1,0,3.9,3.9,3.91,3.91,0,0,0-3.9-3.9Z"/><path class="cls-1" d="M1027,382.55a3.9,3.9,0,1,0,3.9,3.9h0A3.91,3.91,0,0,0,1027,382.55Z"/><path class="cls-1" d="M1121.2,363.65a3.9,3.9,0,1,0,3.9,3.9A4,4,0,0,0,1121.2,363.65Z"/><path class="cls-1" d="M1083.55,363.65a3.9,3.9,0,1,0,3.9,3.9,3.91,3.91,0,0,0-3.9-3.9Z"/><path class="cls-1" d="M1045.8,363.65a3.9,3.9,0,1,0,3.9,3.9,3.91,3.91,0,0,0-3.9-3.9Z"/><path class="cls-1" d="M1008.1,363.65h-.2a3.91,3.91,0,0,0,0,7.8h.2a3.9,3.9,0,1,0,0-7.8Z"/><path class="cls-1" d="M1102.4,344.85a3.9,3.9,0,1,0,3.9,3.9A4,4,0,0,0,1102.4,344.85Z"/><path class="cls-1" d="M1064.7,344.85a3.9,3.9,0,1,0,3.9,3.9,3.91,3.91,0,0,0-3.9-3.9Z"/><path class="cls-1" d="M1027,344.85a3.9,3.9,0,1,0,3.9,3.9h0A3.91,3.91,0,0,0,1027,344.85Z"/><path class="cls-1" d="M1121.2,326a3.9,3.9,0,1,0,3.9,3.9A4,4,0,0,0,1121.2,326Z"/><path class="cls-1" d="M1083.55,326a3.9,3.9,0,1,0,3.9,3.9,3.91,3.91,0,0,0-3.9-3.9Z"/><path class="cls-1" d="M1045.8,326a3.9,3.9,0,1,0,3.9,3.9,3.91,3.91,0,0,0-3.9-3.9Z"/><path class="cls-1" d="M1008.1,326h-.2a3.91,3.91,0,0,0,0,7.8h.2a3.9,3.9,0,1,0,0-7.8Z"/><path class="cls-1" d="M1102.4,307.15a3.9,3.9,0,1,0,3.9,3.9A4,4,0,0,0,1102.4,307.15Z"/><path class="cls-1" d="M1064.7,307.15a3.9,3.9,0,1,0,3.9,3.9,3.91,3.91,0,0,0-3.9-3.9Z"/><path class="cls-1" d="M1027,307.15a3.9,3.9,0,1,0,3.9,3.9h0A3.91,3.91,0,0,0,1027,307.15Z"/><path class="cls-1" d="M970.4,552.15a3.9,3.9,0,1,0,3.9,3.9,3.84,3.84,0,0,0-3.78-3.9Z"/><path class="cls-1" d="M932.7,552.15a3.9,3.9,0,1,0,3.9,3.9,3.84,3.84,0,0,0-3.78-3.9Z"/><path class="cls-1" d="M895.1,552.15a3.9,3.9,0,1,0,3.9,3.9A4,4,0,0,0,895.1,552.15Z"/><path class="cls-1" d="M857.4,552.15h-.2a3.91,3.91,0,0,0,0,7.8h.2a3.9,3.9,0,0,0,0-7.8Z"/><path class="cls-1" d="M989.3,533.25a3.9,3.9,0,1,0,3.9,3.9A4,4,0,0,0,989.3,533.25Z"/><path class="cls-1" d="M951.6,533.25a3.9,3.9,0,1,0,3.9,3.9A4,4,0,0,0,951.6,533.25Z"/><path class="cls-1" d="M913.9,533.25a3.9,3.9,0,1,0,3.9,3.9A4,4,0,0,0,913.9,533.25Z"/><path class="cls-1" d="M876.2,533.25a3.9,3.9,0,1,0,3.9,3.9,3.91,3.91,0,0,0-3.9-3.9Z"/><path class="cls-1" d="M970.4,514.45a3.9,3.9,0,1,0,3.9,3.9,3.84,3.84,0,0,0-3.78-3.9Z"/><path class="cls-1" d="M932.7,514.45a3.9,3.9,0,1,0,3.9,3.9,3.84,3.84,0,0,0-3.78-3.9Z"/><path class="cls-1" d="M895.1,514.45a3.9,3.9,0,1,0,3.9,3.9A4,4,0,0,0,895.1,514.45Z"/><path class="cls-1" d="M857.4,514.45h-.2a3.91,3.91,0,0,0,0,7.8h.2a3.9,3.9,0,0,0,0-7.8Z"/><path class="cls-1" d="M989.3,495.55a3.9,3.9,0,1,0,3.9,3.9A4,4,0,0,0,989.3,495.55Z"/><path class="cls-1" d="M951.6,495.55a3.9,3.9,0,1,0,3.9,3.9A4,4,0,0,0,951.6,495.55Z"/><path class="cls-1" d="M913.9,495.55a3.9,3.9,0,1,0,3.9,3.9A4,4,0,0,0,913.9,495.55Z"/><path class="cls-1" d="M876.2,495.55a3.9,3.9,0,1,0,3.9,3.9,3.91,3.91,0,0,0-3.9-3.9Z"/><path class="cls-1" d="M970.4,476.75a3.9,3.9,0,1,0,3.9,3.9,3.84,3.84,0,0,0-3.78-3.9Z"/><path class="cls-1" d="M932.7,476.75a3.9,3.9,0,1,0,3.9,3.9,3.84,3.84,0,0,0-3.78-3.9Z"/><path class="cls-1" d="M895.1,476.75a3.9,3.9,0,1,0,3.9,3.9A4,4,0,0,0,895.1,476.75Z"/><path class="cls-1" d="M857.4,476.75h-.2a3.91,3.91,0,0,0,0,7.8h.2a3.9,3.9,0,0,0,0-7.8Z"/><path class="cls-1" d="M989.3,458a3.9,3.9,0,1,0,3.9,3.9,3.91,3.91,0,0,0-3.9-3.9Z"/><path class="cls-1" d="M951.6,458a3.9,3.9,0,1,0,3.9,3.9,3.91,3.91,0,0,0-3.9-3.9Z"/><path class="cls-1" d="M913.9,458a3.9,3.9,0,1,0,3.9,3.9,3.91,3.91,0,0,0-3.9-3.9Z"/><path class="cls-1" d="M876.2,458a3.9,3.9,0,1,0,3.9,3.9,3.84,3.84,0,0,0-3.78-3.9Z"/><path class="cls-1" d="M1121.2,552.15a3.9,3.9,0,1,0,3.9,3.9,3.91,3.91,0,0,0-3.9-3.9Z"/><path class="cls-1" d="M1083.55,552.15a3.9,3.9,0,1,0,3.9,3.9,3.84,3.84,0,0,0-3.78-3.9Z"/><path class="cls-1" d="M1045.8,552.15a3.9,3.9,0,1,0,3.9,3.9,3.84,3.84,0,0,0-3.78-3.9Z"/><path class="cls-1" d="M1008.1,552.15h-.2a3.91,3.91,0,0,0,0,7.8h.2a3.91,3.91,0,0,0,3.9-3.9h0a3.84,3.84,0,0,0-3.78-3.9Z"/><path class="cls-1" d="M1102.4,533.25a3.9,3.9,0,1,0,3.9,3.9A4,4,0,0,0,1102.4,533.25Z"/><path class="cls-1" d="M1064.7,533.25a3.9,3.9,0,1,0,3.9,3.9A4,4,0,0,0,1064.7,533.25Z"/><path class="cls-1" d="M1027,533.25a3.9,3.9,0,1,0,3.9,3.9h0A4,4,0,0,0,1027,533.25Z"/><path class="cls-1" d="M1121.2,514.45a3.9,3.9,0,1,0,3.9,3.9,3.91,3.91,0,0,0-3.9-3.9Z"/><path class="cls-1" d="M1083.55,514.45a3.9,3.9,0,1,0,3.9,3.9,3.84,3.84,0,0,0-3.78-3.9Z"/><path class="cls-1" d="M1045.8,514.45a3.9,3.9,0,1,0,3.9,3.9,3.84,3.84,0,0,0-3.78-3.9Z"/><path class="cls-1" d="M1008.1,514.45h-.2a3.91,3.91,0,0,0,0,7.8h.2a3.91,3.91,0,0,0,3.9-3.9h0a3.84,3.84,0,0,0-3.78-3.9Z"/><path class="cls-1" d="M1102.4,495.55a3.9,3.9,0,1,0,3.9,3.9A4,4,0,0,0,1102.4,495.55Z"/><path class="cls-1" d="M1064.7,495.55a3.9,3.9,0,1,0,3.9,3.9A4,4,0,0,0,1064.7,495.55Z"/><path class="cls-1" d="M1027,495.55a3.9,3.9,0,1,0,3.9,3.9h0A4,4,0,0,0,1027,495.55Z"/><path class="cls-1" d="M1121.2,476.75a3.9,3.9,0,1,0,3.9,3.9,3.91,3.91,0,0,0-3.9-3.9Z"/><path class="cls-1" d="M1083.55,476.75a3.9,3.9,0,1,0,3.9,3.9,3.84,3.84,0,0,0-3.78-3.9Z"/><path class="cls-1" d="M1045.8,476.75a3.9,3.9,0,1,0,3.9,3.9,3.84,3.84,0,0,0-3.78-3.9Z"/><path class="cls-1" d="M1008.1,476.75h-.2a3.91,3.91,0,0,0,0,7.8h.2a3.91,3.91,0,0,0,3.9-3.9h0a3.84,3.84,0,0,0-3.78-3.9Z"/><path class="cls-1" d="M1102.4,458a3.9,3.9,0,1,0,3.9,3.9A4,4,0,0,0,1102.4,458Z"/><path class="cls-1" d="M1064.7,458a3.9,3.9,0,1,0,3.9,3.9,3.91,3.91,0,0,0-3.9-3.9Z"/><path class="cls-1" d="M1027,458a3.9,3.9,0,1,0,3.9,3.9h0A3.91,3.91,0,0,0,1027,458Z"/></g></g></svg>