<svg id="Capa_1" data-name="Capa 1" xmlns="http://www.w3.org/2000/svg" viewBox="0 0 1357.63 1357.63"><path d="M690.69,1357.63H614.33c3.7-4.47,7.18-9.16,11.15-13.38,26.19-27.84,33-59.64,19.42-95.44-8.2-21.62-21.36-40.27-39.71-54s-38.26-26-58.2-37.7c-36.77-21.5-74.79-40.88-107.58-68.69-28.22-23.94-49.89-52-60.78-87.88-3.38-11.13-1.35-20.74,6.24-29.09,3.76-4.13,8-8.18,12.83-10.91,24.3-13.82,49.14-26.69,73.22-40.86,23.07-13.57,46.45-27,67.84-42.94,20.91-15.61,36.18-36.26,40.84-63.33,2.75-15.94,12.18-27.49,26.35-35.52,17.44-9.89,34.85-19.9,51.73-30.7,15.34-9.81,27.73-23,32.79-40.82a236,236,0,0,0,8.39-44c3.37-39.14-7.71-75.58-24.29-110.4-23.64-49.63-56.4-93.22-91.59-135.09-21.1-25.1-42.93-49.6-63.51-75.12C495,311.49,475.12,278.64,464.22,240.6c-9.61-33.55-4.54-62.79,19.23-88.9,15.21-16.71,29.36-34.39,44-51.61Q570,50,612.63,0H689c-1.62,2.21-3,4.67-4.89,6.59-13.33,13.46-27,26.58-40.13,40.24-29.93,31.2-61.19,61.32-89,94.34-34.64,41.19-41.56,88.6-21,139,15.76,38.74,41.53,70.71,71.29,99.14,38.21,36.5,77.69,71.71,117.22,106.81,38,33.78,52.94,76.74,50.11,126-4.35,75.69-37,138.94-89.66,192.22-11.05,11.18-19.56,23.14-24.56,37.9-4.21,12.44-9.63,24.56-20.15,32.83-14.84,11.67-29.51,24.08-45.94,33.08-24,13.13-49.88,22.67-74.1,35.39a225.52,225.52,0,0,0-42.49,28.78c-13.88,12-16.77,29.13-9.84,45.91a187.67,187.67,0,0,0,22,39.8c18.27,24.68,44,40.59,71.44,53,34.7,15.71,70.28,29.47,105.28,44.53,24.43,10.5,48.27,22.23,68.79,39.62,21.21,18,29.86,40.23,21.63,67.36-3.42,11.25-7,23.24-13.8,32.52C725.42,1316.73,707.65,1336.88,690.69,1357.63Z"/><path d="M188.37,0H295.28c-1.65,2.26-3.19,4.61-5,6.76C270.2,30.84,249.92,54.77,230,79a622.28,622.28,0,0,0-67.15,99.67c-20.68,38.2-23,95.6,31.44,127.68,17.5,10.31,35.1,20.63,53.42,29.33,40.05,19,79.82,38.35,114.38,66.69,15.58,12.78,30.3,26.42,39.78,44.62,10.38,19.92,7.69,38.59-8.68,54-7.55,7.11-16.26,13.11-25,18.83C352.86,529.87,336,538,321.76,549.3,266,593.62,210.53,638.28,156,684c-41,34.38-56.22,81.44-59,133.23-2.52,47.64,5.71,94,17.87,139.85,14.73,55.5,45.42,101.95,83.76,143.52,32.57,35.31,66.63,69.24,99.8,104,14.4,15.1,25.5,32.45,31.8,52.5,7.64,24.32,5.57,47.46-9.66,68.6-7.73,10.73-15.71,21.28-23.58,31.92H190.07c6-16.12,12.84-32,17.78-48.42,9.24-30.8,6.24-59.67-13-87-16.39-23.3-30.72-48.12-45-72.84C104,1069.6,68.21,986.09,58.5,893.47c-4.83-46.05-4.82-92,7-137.29C80.65,698.56,112.87,651,152.83,608c37.07-39.86,79.22-74.11,120.85-109,9.41-7.88,18.31-17.09,25-27.27,11.81-17.9,8.65-36.69-6.88-51.39-4.9-4.64-10.14-9.24-16-12.51q-42.49-23.73-85.45-46.67C162,346,133.3,331.11,110.77,307.26,90.25,285.53,78.71,259.68,85.12,230c5.3-24.65,12.61-49.5,23.36-72.2C130.23,111.83,155,67.34,178.33,22.19,182.06,15,185,7.41,188.37,0Z"/><path d="M1311.81,0h45.82V39c-10.71,18.54-21.3,37.15-32.14,55.61-29.65,50.55-60.58,100-104.83,139.82-10.3,9.25-18.29,21.5-25.73,33.38-8.38,13.39-11.45,28.79-5.56,43.92,4.67,12,11.19,23.41,17.86,34.5,21.42,35.56,44.43,70.22,64.75,106.39,35.08,62.45,46,129.31,31.16,199.78-10.64,50.69-32.61,96.72-59.35,140.59-14.26,23.39-29.78,46-44.45,69.16-17.88,28.21-20.83,63.86,7.34,94.08,49.12,52.7,92.8,109.39,122.66,175.78,7.92,17.61,18.78,33.9,28.29,50.79v174.8h-45.82c2.87-8.85,6.4-17.55,8.51-26.58,8.69-37.07,1.4-72.53-12.88-106.73-9.77-23.44-22.74-45.61-31.57-69.35-16-42.94-44.82-74.55-83.26-97.14-33.55-19.71-69-36.19-103.21-54.79a125.4,125.4,0,0,1-27.89-20.2c-13.73-13.52-15.52-33.69-8.22-51.16,8.32-19.9,21.62-35.12,38.13-48.66,54.81-45,100.53-97.53,130.63-162.43,31.32-67.55,38.73-137,15.07-208.52-16.17-48.9-45.24-89.57-81.39-125.4-31.51-31.23-63.92-61.56-95.6-92.62a85.32,85.32,0,0,1-14.6-19.51c-4.34-7.84-3.54-16.09,4.07-22.11,9-7.15,17.75-15.08,27.77-20.51,15.1-8.17,31.18-14.52,46.89-21.54,40.27-18,78.86-38.8,107.51-73.44C1265.84,95.73,1292.89,50.18,1311.81,0Z"/><path d="M551.54,1357.63H487.05c2-3.64,3.55-7.56,6-10.88,15-20.63,19.57-43.47,14.86-68.32-5.69-30-21.38-54.61-43.35-75-46.28-43.07-93.61-85-139.5-128.5-32.27-30.58-58.56-66.08-73.95-108.24-4.74-13-6.34-27.46-7.1-41.38-1-17.93,9.68-29.54,25.58-36.19,5.91-2.47,12.42-3.69,18.77-4.87,27.24-5.06,54.42-10.23,79.75-22.11,27.57-12.94,47.66-32.62,53.53-63.47,2.36-12.36,2-25.27,2.53-38,.76-17.77,0-35.69,2.08-53.3,3.2-27.38,15.2-49.3,44.34-56.67,9.51-2.4,19.48-3.1,29.28-4.21,16.27-1.83,32.79-2.21,48.79-5.3,20-3.87,30.1-17.85,30.28-38.14.4-44.78-11.09-86.61-31.6-126.11-24.46-47.12-58.07-87.38-95.43-124.58-27.24-27.12-55.2-53.52-83.22-79.84-25.08-23.57-32.95-51.77-24.52-84.8,5.57-21.87,17.06-40.45,32.15-57,11.43-12.53,23.28-24.71,34.05-37.79C435.62,62.2,460.38,31,485.35,0h64.49c-31.66,47.36-68.43,90.67-108,131.37-24.68,25.37-40,53-36.36,89.1,2.51,25.1,15.68,44.79,32.22,62.93,40.39,44.31,79.52,89.67,114,138.86,43.84,62.59,77.6,129.78,93.78,205,7.62,35.44-3.21,60.87-36.4,75.71-23,10.31-47.79,16.87-71.91,24.67-14.18,4.59-22.67,14.28-22.6,29,.23,50.18-21.71,89-60.27,119.52-34.43,27.22-74.32,43.65-115.23,58-18.17,6.38-26.57,20.32-24.46,39.37,3.31,29.9,17.11,54.8,36.59,76.77,33.88,38.22,73.1,70.43,114.3,100.4,29,21.13,57.56,43,81,70.61,36,42.41,38.61,83.26,8.58,129.58C553.66,1353.07,552.69,1355.41,551.54,1357.63Z"/><path d="M801,1357.63H743.3c11.5-11.2,23.22-22.17,34.45-33.62,20.92-21.33,39.79-44.19,49.4-73.13,9.15-27.57,3.14-49.83-20.39-66.7-16.88-12.11-34.81-23.57-53.81-31.75-30-12.93-61.11-23.5-92.14-33.9-33.54-11.24-65.47-25.93-96.67-42.34-16.55-8.71-31.92-19.2-43.94-33.88-12.27-15-14.09-30.55-2.25-45.72,8.53-10.93,19.07-21.17,30.71-28.61,31.41-20.07,64.12-38.09,95.87-57.66,30.88-19,59.17-41.66,76.53-74.17,23.82-44.59,45.77-90.18,61.22-138.56C794.2,660.27,806,622.9,818,585.6c8-25,17.48-49.58,24.2-74.91,8.1-30.52-1.89-49.94-30.2-63.73a205.75,205.75,0,0,0-22.77-9.16c-29.61-10.28-59.62-19.45-88.86-30.65-61.2-23.45-104.36-65.65-125.93-128-15.9-45.93-10.87-89.49,18.86-129.33,23.78-31.89,51-60.41,80.5-87C696.67,42.16,719,21,741.6,0h57.7c-20.26,18.44-41,36.37-60.69,55.44-37.39,36.28-72,74.89-100,119.27-40.75,64.58-8.72,140.72,43.67,171.82,21.93,13,45.54,21.4,70.18,26.59,49,10.31,95.46,27.33,140.3,49.15,19.29,9.39,36.91,21.42,48.25,40.15,18.28,30.2,14.86,45-9.28,67.39-21.64,20.1-43.54,41.05-60.21,65.17-39.36,57-62.15,121.55-75.5,189.16-8.25,41.82-24.47,78.77-56.7,107.28a413.93,413.93,0,0,1-44.23,34.13C670,942.35,644,957.76,618.48,974c-13.81,8.8-25.67,19.6-31.45,35.53-3.87,10.67-2.4,20.63,5.19,29.32A210.15,210.15,0,0,0,651,1085.48a339.19,339.19,0,0,0,57.7,24.1c58.33,18.66,117.14,35.82,175.54,54.28,12.21,3.86,23.93,10,35,16.6,9.55,5.73,13.41,15.53,12.69,27-1.16,18.48-7.82,35.14-19.83,48.61-14.42,16.18-30.23,31.22-46.33,45.77C844.61,1320.93,822.62,1339.07,801,1357.63Z"/><path d="M1218.47,0h54.3c-.57,1.27-1.24,2.51-1.71,3.83-18.64,52.16-49.92,94.55-96.23,125.58-45.94,30.78-96.84,49.45-150.17,62.37-18.33,4.45-37,7.55-53.21,18.54-23,15.61-26.47,43.58-7.05,63.21a123.17,123.17,0,0,0,15.67,12.91c40.62,29.16,82.37,56.87,121.8,87.55,71,55.25,112.87,127.12,115.47,218.74,2.28,80.54-24.48,148.33-89.67,198.87-31.48,24.4-63,48.83-92.87,75.16-31.34,27.68-55.31,61-66.47,102.35-3.91,14.48-1.24,27,9.73,37.13,5.55,5.12,11.69,10.2,18.48,13.24,17,7.59,34.4,14.19,51.79,20.83,34.52,13.19,69.71,24.8,103.53,39.56,32.1,14,59.59,35.36,76.71,66.82,9.8,18,17.22,37.42,24.8,56.56,19.69,49.73,33.73,100.31,19.4,154.38h-54.3c2.29-9.3,5.48-18.48,6.73-27.92,6-45-4.44-87.49-20-129.29-13.83-37.26-38.43-65.2-73.17-83.52a358.29,358.29,0,0,0-59.93-25.32c-38.51-12-77.74-21.7-116.57-32.71-19.43-5.51-37.7-13.76-53.54-26.59q-38-30.78-8.57-69.35c7-9.17,15.16-17.49,22.18-26.67,9.26-12.09,17.66-24.84,26.88-37,25.5-33.52,52.83-65.79,76.38-100.62,18.82-27.84,41.82-46.61,73.9-56.86,31.35-10,54.21-32,70-60.92,19.85-36.42,23.73-75.71,19.11-116.08-7.51-65.65-39.4-118.1-88.74-160.81-33.85-29.3-73.07-50.14-112-71.41-35-19.1-69.87-38.37-101-63.55-19.05-15.4-21.65-39-5.75-57.57a95.41,95.41,0,0,1,19.74-17.09c41.81-27.65,86.1-50.87,131.71-71.5,45-20.37,90.43-39.91,135.47-60.26C1189.13,50,1208.41,29.11,1218.47,0Z"/><path d="M982.58,0h174.8c-5,3.52-9.47,8.43-15,10.27-12.55,4.18-25.43,7.86-38.47,9.93-33.75,5.36-62.54,17.85-85.31,45.23-21.79,26.21-50,45.4-79.92,62.11-27.84,15.55-55.32,31.9-81.86,49.56-12.23,8.14-23.31,19.1-32.32,30.79-15.6,20.25-12.91,40.54,5.21,58.38,20.93,20.6,45.12,36.7,70.64,50.91,39.73,22.13,80.08,43.19,119.19,66.35,37.17,22,71,48.62,96.33,84.36,32.46,45.89,46.59,96.47,34.52,152.37-7.94,36.77-31.58,59.79-64,64.84-5.87.91-11.8,1.4-17.66,2.33-22,3.5-38.52,14.33-49,34.76-46.22,90.4-103,173.38-173.88,246.45a99.75,99.75,0,0,0-14.59,19.67c-10,17.38-7.92,32.43,5.4,47.43,11.42,12.84,25.89,21.06,41.8,26.51,24.55,8.42,49.23,16.54,74.12,23.88,39.52,11.65,79.64,21.39,118.79,34.13,31.55,10.26,59.29,27.75,80.43,54.29,19.67,24.71,27.82,54,33.33,84.21,6.72,36.92,1.76,71-26.1,98.87H986c14.25-12.53,31.24-19.8,49.13-25.19,14.32-4.31,28.89-7.84,43.09-12.5,13.62-4.47,26.6-11,34-23.94,20-35.19,28.24-91.67-22.49-128.79-22-16.11-46.73-26.58-72.7-33.59-48.5-13.09-97.39-24.76-146-37.46-36.76-9.6-71.14-24.1-98.87-51.27-13.57-13.3-16.49-27.07-6.7-43.54,5.67-9.53,13.39-18.2,21.55-25.8,80.52-75,141.61-163,174.15-268.65,11.08-36,31.82-60.9,64.19-77.74,19.28-10,38.82-19.6,57.89-30,15.53-8.5,24.83-21.94,27.28-39.68,3.25-23.52-4.38-44.67-15-65-19-36.39-49.19-62.29-82-85.47-42-29.71-89.35-49.36-135.48-71.37C843.15,321,808.72,303.3,774.73,284.88c-20.23-11-27.8-30.07-22.94-52.63,4.45-20.62,18-35.64,33.28-48.92C803.82,167,822.94,151,842.62,135.84,894.42,95.81,942.78,52.34,982.58,0Z"/><path d="M846.82,0h74.67C917,4.57,912.57,9.24,908,13.7c-44.1,42.62-88.85,84.59-132.11,128.05-22.07,22.17-42.64,46-57.7,74-10.83,20.12-10.26,39.47,1.08,58.77,9.32,15.87,22.79,27.22,39.72,34.33,34.12,14.31,68.35,28.35,102.43,42.73,53,22.35,104.43,47.48,150.52,82.44,20.74,15.73,39.08,33.58,50.82,57.15,13.37,26.86,11,49.05-14.74,66.71-1.86,1.27-3.59,2.75-5.39,4.12-27.85,21.26-56.44,41.62-83.37,64-35.84,29.76-57.67,67.27-59.83,115.32-.73,16.14-4.7,32.49-9.52,48-14.09,45.33-41.4,82.79-74.49,115.85-24,23.94-50.18,45.62-74.81,68.93-10,9.42-19.55,19.69-27.17,31-7.78,11.57-6.1,24.1,3.09,35.32a167.35,167.35,0,0,0,46.36,39.2c32,18.47,67.31,27.65,103,35.15,48.18,10.12,95.73,22.26,141.33,41,25.88,10.66,50,24,66.14,48.18,18.49,27.68,13.6,54.34-14.59,72a157.52,157.52,0,0,1-36,16.6c-39.38,12.42-72.2,34.37-99.53,65h-73c.1-.54,0-1.29.33-1.57,29.12-25.79,55.36-55.1,90.52-73.5,8.5-4.45,17-9.08,24.78-14.67,11-7.89,22.4-15.65,31.52-25.43,18.32-19.63,15.12-40.9-6.93-56.08-3.71-2.56-7.5-5.24-11.63-6.92-18.81-7.63-37.4-16.09-56.73-22.11-67.6-21.07-137-36.53-202.39-64.53-21.34-9.13-43.07-17-59.68-34.35-19.11-19.89-27-46.83-1.41-70.68,9.06-8.45,19.19-15.8,29.18-23.17,27.05-20,55-38.77,81.27-59.73,34.12-27.25,55.42-62.18,61.54-106.6,3.68-26.72,10.71-53.14,18.07-79.18C867.14,653.68,901,599,960.66,562.66c12.32-7.51,23.5-17.56,33.5-28,10.2-10.7,11.75-24.53,7.74-38.93A135.83,135.83,0,0,0,963.27,432c-28.93-27.15-64.21-43-101.19-55.08-40-13.09-80.38-24.81-120.58-37.18a120.1,120.1,0,0,1-57.93-38.17c-26.06-31-38.37-74.65-9.28-118.19,11-16.4,22.12-33.12,35.77-47.17,37.23-38.31,75.86-75.26,113.87-112.8C831.69,15.73,839.2,7.81,846.82,0Z"/><path d="M385.23,1357.63c4.57-6.69,9-13.48,13.76-20,20.22-27.95,21.47-57.39,7.06-88.06-13.35-28.41-34-51.23-56.52-72.45-31.87-30.07-64.94-58.88-96.15-89.6-50-49.17-87-106.71-106.26-174.73-7.93-28-12.13-56.25-6.57-85.38,5.95-31.19,24.5-51.94,52.49-65.09,15.33-7.2,31-13.65,46.25-21,31.87-15.43,51.19-40.19,57.86-75.55,7.05-37.41,30.6-63.54,63.56-80.14,27.14-13.68,55.91-24.13,84-36,3.12-1.32,6.27-2.6,9.49-3.64,22.93-7.36,31.6-18.53,24.91-49.05-5.66-25.8-20-47.82-35.79-68.65-19.06-25.15-42.32-46-67.57-64.72-30.71-22.82-64.51-40.36-98.23-58.07-32.82-17.24-54-43.29-59.17-80.67-3.88-28.26,5.84-52.17,23.22-74.52C276.09,105.83,318.44,69,357.4,28.93,366.45,19.62,374.84,9.66,383.53,0h54.3c-4.45,5.78-8.59,11.82-13.39,17.29C389.91,56.58,355.15,95.66,320.69,135c-16.14,18.44-29.41,38.71-36,62.66-8.07,29.14-1.92,54.29,21.61,74.18C319,282.62,332,293.08,345,303.56c32.47,26.23,65.6,51.69,97.34,78.77,37.75,32.2,63.34,73.41,82.1,118.93a195.37,195.37,0,0,1,11,35.49c5.21,25.79-3.91,41.86-28.14,51.64-7.31,3-14.94,5.13-22.49,7.47-25.6,7.91-51.6,14.74-76.74,23.92-20.13,7.36-36.89,20.49-44.51,41.54-3.48,9.62-5.06,20.29-5.49,30.57-.84,20,1.25,40.28-.62,60.17-3.32,35.35-25.65,56.55-57.13,69.28-19.67,7.95-40.32,10.44-61.48,10.09-22.75-.39-37.12,9.86-43.22,31.67a110.91,110.91,0,0,0-3.76,28.41c-.41,36,13.13,67.9,30.64,98.33,26.88,46.73,63.14,85.85,101.82,122.8,24.92,23.82,50.65,46.79,75.92,70.25,19.93,18.49,39.16,37.61,53.3,61.18q31.45,52.42-5.19,101.14c-3,4-5.84,8.27-8.75,12.42Z"/><path d="M134.07,0c-5.72,12.53-11.1,25.22-17.2,37.56-22.4,45.29-47.12,89.57-62.78,137.85-7.21,22.23-12.9,45-18.13,67.8-5.57,24.28-.37,47.48,15.57,66.14,16.23,19,35.17,35.73,53.09,53.27,13.71,13.43,28.68,25.71,41.35,40,30.21,34.17,30.54,74,1.16,109C103.32,563.88,70.69,622.79,42.7,684.42,27.55,717.77,14.18,751.93,0,785.73v-168c2-6.07,4.17-12.09,5.92-18.23,8-27.89,17.41-55.49,23.41-83.81C36.8,480.41,26.57,449.35,0,424.26V115.4C19.16,86.55,38.61,57.88,57.31,28.74,63,19.83,66.68,9.62,71.28,0Z"/><path d="M1357.63,1087.8c-5.73-7.57-11.54-15.09-17.17-22.73-13.08-17.73-25.74-35.77-39.16-53.24-38-49.45-45.83-104.79-30.55-163.7,6.7-25.83,16.08-51.16,26.49-75.77,20.74-49,46.3-96.09,60.39-147.85V790.82c-.51.64-1.27,1.2-1.48,1.93-13.89,46.62-20.15,94-11.46,142.3,2.7,15,8.54,29.44,12.94,44.14Z"/><path d="M0,984.28c23,53.1,59.44,97.61,92.45,144.32,20.61,29.18,36.84,60.85,50.35,93.79,16.42,40,15.17,80.4-1.07,120.39q-3,7.41-6,14.85H73c.94-3.21,1.66-6.5,2.84-9.61,13.52-35.9,16.54-72.72,2.16-108.38C64.09,1205.22,47,1172,30.07,1138.93c-8.55-16.67-20-31.87-30.07-47.74Z"/><path d="M1357.63,422.56c-16-15.12-32.53-29.72-47.89-45.47-38.38-39.35-44.64-75.9-21.5-125.86,8.17-17.64,18.26-34.39,27.15-51.71,12.5-24.33,24.67-48.83,37.09-73.2,1.37-2.69,3.41-5,5.15-7.53Z"/><path d="M0,1186.23c29.7,54.75,44.89,110.94,17,171.4H0Z"/><path d="M17,0,0,35.64V0Z"/></svg>