<?xml version="1.0" encoding="utf-8"?>
<!-- Generator: Adobe Illustrator 25.4.1, SVG Export Plug-In . SVG Version: 6.00 Build 0)  -->
<svg version="1.1" id="Capa_1" xmlns="http://www.w3.org/2000/svg" xmlns:xlink="http://www.w3.org/1999/xlink" x="0px" y="0px"
	 viewBox="0 0 382 250.6" style="enable-background:new 0 0 382 250.6;" xml:space="preserve">
<g>
	<path d="M376.9,37.2c-1.7-0.3-2.8-0.5-3.9-0.7c-18.5-4.6-39.6,7.2-45.5,25.6c-0.5,1.7,0.1,3.8,0.3,5.8c0.5,3.9,1,7.8,1.6,11.7
		c0.2,1.3,0.4,3.1,1.3,3.9c7.1,8.9,8.5,18.1,7.3,27.6c-2.6,9.5-6.2,19.2-11.5,27.4c-34.1,52.3-80.5,89.5-140.9,106
		c-54.2,14.9-104.1,2.3-147.5-33.1C19.4,196,8,175.1,0.7,152.1c-1.7-5.5-0.2-10.2,3.8-12.9c4.3-2.9,8.7-2.6,13.4,0.9
		c15.8,12,32.2,22.6,51.8,27.1c30.9,7.2,59.5,1.6,85.8-16c10.2-6.8,17.3-16.6,23.1-27.2c7.6-13.7,14.5-27.7,22.3-41.3
		c11.4-19.9,26.8-35.6,48.7-44c11.9-4.5,23.4-4.4,35.3,1.1c4.9,2.3,11.3,1.4,17.1,1.5c1,0,2.2-2.2,3.1-3.6
		c8.4-13.1,18.5-24.4,32.4-31.9c7.8-4.2,16.1-6.3,25-6c13.9,0.6,22.1,10.9,19,24.4C380.3,28.8,378.4,32.9,376.9,37.2z M17.6,158.1
		c7.4,17.7,17,33.2,31.6,44.5c38.2,29.7,81.7,41.3,128.8,29.5c57.9-14.5,102-49.7,135.4-98.7c4.9-7.2,8-15.6,11-23.9
		c1.7-4.7,1.8-10.2-2-14.7c-14.5,6.4-26.4,0.6-36.9-8.2c-10.9-9.2-16.4-21.2-11.4-36.1c-6.5-1.9-12.5-1.5-18.5,0.7
		c-17.9,6.7-31.3,19-40.8,35.3c-8.2,13.9-15.3,28.4-23.1,42.6c-8.1,14.6-18,27.7-32.6,36.4c-37.3,22.4-75.9,24.8-115.6,7
		C34.8,168.7,26.7,163.2,17.6,158.1z M367.7,21c0.9-4.9-1.4-7-5.3-7c-3.9,0.1-8.1,0.3-11.8,1.5c-16.1,5.4-26.4,17.6-34.7,31.5
		c-4,6.8-9.1,9.8-16.8,8.5c-1.6-0.3-3.3-0.4-5-0.5c-6.8-0.5-9.5,2.9-7.4,9.5c3.3,10.4,11.1,15.8,21.1,18.6c5.1,1.5,7.1,0.2,7.8-5.1
		c0.2-1.7-0.1-3.7-0.8-5.3c-2.9-7.4-2-14.4,2.2-21C329,33.6,343.1,19,367.7,21z"/>
	<path d="M101.4,201.7c18.3-2,35.3-8.1,51.9-16.4c23.2-11.7,38.9-30.2,50.4-52.9c5.9-11.6,11-23.6,17.8-34.6
		c5.5-9,12.9-16.9,19.5-25.1c1.3-1.7,3.1-3.1,4.9-4.2c3.4-2.2,6.8-1.8,9.3,1.4c2.5,3.2,2.3,6.9-1,9.4
		c-16.8,12.7-27.3,30.2-37.2,48.2c-8.3,15.2-17.6,29.9-30.8,41.5c-22.1,19.4-48.2,29.6-77.4,32.2
		C106.4,201.4,103.9,201.5,101.4,201.7z"/>
</g>
</svg>
