<?xml version="1.0" encoding="utf-8"?>
<!-- Generator: Adobe Illustrator 25.4.1, SVG Export Plug-In . SVG Version: 6.00 Build 0)  -->
<svg version="1.1" id="Capa_1" xmlns="http://www.w3.org/2000/svg" xmlns:xlink="http://www.w3.org/1999/xlink" x="0px" y="0px"
	 viewBox="0 0 355.8 284.3" style="enable-background:new 0 0 355.8 284.3;" xml:space="preserve">
<g>
	<path d="M340.2,69.8c0.4,8.7-1,17.1-4.4,25.1c-3.9,9.1-9.9,16.4-18.8,20.9c-12.2,6.2-24.6,12.2-36.9,18.3
		c-30.3,15.2-60.7,30.4-90.9,45.7c-7.1,3.6-14.2,4.3-21.6,1.8c-24.6-8.5-49.2-17.1-73.9-25.5c-21.5-7.4-43-14.6-64.5-21.9
		c-3.1-1.1-6.2-2.3-9.1-3.8c-6-3.3-7-8.9-2.2-13.9c1.8-1.9,4-3.5,6.4-4.6c40.7-18.6,81.5-37.1,122.2-55.6c2.6-1.2,5.3-2.3,8-3.4
		c4.9-2,8.3-5.6,10.6-10.4c4.4-9.2,5.7-18.8,3.9-28.9c-0.1-0.6-0.2-1.3-0.3-1.9c-0.8-8.3,4.1-13.1,12.3-11.3c7.6,1.7,15,4,22.5,6
		C242.7,17,281.9,27.6,321,38.2c2.6,0.7,5.2,1.6,7.8,2.4c4.4,1.2,7.4,4.1,8.5,8.4c1.3,4.8,2,9.7,2.8,14.6
		C340.5,65.6,340.2,67.7,340.2,69.8z M36.4,121.4c0.8,0.3,1.5,0.5,2.2,0.7c37.2,12.9,74.4,25.7,111.6,38.6
		c6.8,2.4,13.5,5.1,20.4,7.3c4,1.3,8.1,1.3,12.2-0.7c30.2-15.3,60.5-30.4,90.7-45.6c11.7-5.9,23.4-11.6,35.1-17.5
		c7.6-3.9,12.9-10,15.6-18.1c3.4-10.2,3-20.4,0.2-30.6c-0.2-0.8-1.4-1.6-2.3-1.9c-19.8-5.5-39.6-10.8-59.4-16.3
		c-24.1-6.7-48.2-13.5-72.3-20.2c-2.3-0.6-4.6-1.4-7-2.1c0,0.6-0.1,0.9-0.1,1.2c1.9,12.9-1.2,24.9-7.5,36.1
		c-2.7,4.9-6.3,9.2-11.5,11.6c-6.2,2.9-12.4,5.6-18.6,8.4c-28.1,12.7-56.1,25.4-84.2,38.1C53.3,114,45,117.6,36.4,121.4z"/>
	<path d="M20.3,166.4c14,5,27.3,9.7,40.6,14.4c35.2,12.5,70.4,25,105.6,37.5c3.3,1.2,6.7,2.2,10.1,3.2c0.5,0.1,1.2-0.2,1.7-0.5
		c3.2-1.7,6.3-3.6,9.5-5.2c25.6-13,51.2-26,76.8-39.1c20.6-10.6,41.2-21.3,61.8-32c3.6-1.8,7.2-3.4,11.4-5.4
		c-2.3-0.9-4.2-1.7-6.1-2.5c-2.7-1.1-5.4-2-8.1-3.2c-4-1.7-5.4-4.4-4.2-7.9c1.4-3.9,5.5-6.5,9.1-5c6.8,2.7,13.4,5.7,20.1,8.7
		c1.2,0.5,2.3,1.5,3.3,2.3c4.5,3.8,5.1,8.8,1.3,13.3c-1.5,1.8-3.5,3.4-5.6,4.5c-11.3,6-22.7,11.7-34,17.6
		c-37.2,19.2-74.4,38.5-111.5,57.8c-4.7,2.4-9.2,5.2-13.8,7.9c-7.1,4.1-14.3,4.1-22,1.2c-28-10.4-56.1-20.7-84.3-30.8
		c-22.6-8.1-45.4-15.9-68.1-23.9c-2.5-0.9-5-1.9-7.3-3c-3.7-1.8-6.4-4.7-6.7-9c-0.3-4.4,2.1-7.5,5.8-9.2c6.7-3.1,13.4-6.1,20.3-8.7
		c4.4-1.6,9.3,2.2,9.5,6.9c0.1,2.6-1.1,4.5-4,5.7C28.2,163.6,24.6,164.8,20.3,166.4z"/>
	<path d="M20.5,214.6c1.5,0.6,2.5,1,3.5,1.3c47.7,16.9,95.4,33.9,143,50.8c3.1,1.1,6.2,2.1,9.4,3c0.5,0.2,1.3-0.1,1.9-0.4
		c2.5-1.4,5-3,7.5-4.3c27.4-14,54.9-27.8,82.4-41.9c19.7-10.1,39.3-20.4,59-30.5c3.3-1.7,6.7-3.1,10.5-4.9c-2.2-0.9-3.9-1.7-5.6-2.4
		c-2.8-1.1-5.7-2.1-8.5-3.3c-4-1.7-5.3-4.4-4.1-8c1.4-3.8,5.4-6.4,8.9-5c7.3,3,14.5,6.4,21.7,9.7c0.8,0.4,1.4,1,2.1,1.6
		c4.2,3.6,4.8,8.5,1.3,12.8c-1.5,1.9-3.6,3.6-5.7,4.7c-9.8,5.2-19.6,10.3-29.4,15.3c-38.6,20-77.3,39.9-115.9,59.9
		c-4.4,2.3-8.6,4.9-12.9,7.5c-7.7,4.6-15.5,4.8-24,1.6c-31-11.6-62.1-22.9-93.3-34.1c-19.8-7.1-39.7-13.9-59.5-20.8
		c-2.2-0.8-4.4-1.7-6.4-2.7c-3.6-1.9-6.2-4.7-6.4-9c-0.3-4.3,2-7.4,5.6-9.1c6.7-3.2,13.6-6.2,20.5-8.8c4.3-1.6,9.3,2.3,9.5,7
		c0.1,2.5-1.1,4.5-3.8,5.6c-2.9,1.2-5.9,2.2-8.8,3.3C22.4,213.8,21.7,214.1,20.5,214.6z"/>
</g>
</svg>
