<?xml version="1.0" encoding="utf-8"?>
<!-- Generator: Adobe Illustrator 25.4.1, SVG Export Plug-In . SVG Version: 6.00 Build 0)  -->
<svg version="1.1" id="Capa_1" xmlns="http://www.w3.org/2000/svg" xmlns:xlink="http://www.w3.org/1999/xlink" x="0px" y="0px"
	 viewBox="0 0 312.6 234.5" style="enable-background:new 0 0 312.6 234.5;" xml:space="preserve">
<path d="M300.1,49.4c-11.8-8.8-23-17.1-34.9-24.7c-12.5-7.9-26.2-14.5-39.5-20.9c-2.3-1.1-4.7-2.2-7-3.4c-0.6-0.3-1.5-0.4-2.5-0.4
	c-1.5,0-3.3,0.3-4.6,0.9c-18.5,7.5-37.1,11.3-55.4,11.3c-17.1,0-34.4-3.4-51.2-10c-3.2-1.3-6.1-1.9-8.9-1.9c-2.9,0-5.9,0.7-9.2,2.2
	c-33.9,14.9-63,37-87,56.9c2.4,3.9,4.8,7.8,7.1,11.8c9.5,15.7,19.4,32,29.2,47.8c0.4,0.6,2.4,1.6,4.3,1.8c1.8,0.2,3.7,0.3,6.1,0.3
	c1.5,0,3,0,4.6-0.1c1.7,0,3.4-0.1,5.1-0.1h4v113.5h191.3V121h4c1.6,0,3.1,0,4.5-0.1c1.4,0,2.8-0.1,4.2-0.1c2.1,0,3.9,0.1,5.5,0.3
	c0.4,0,0.9,0.1,1.3,0.1c2.4,0,4.1-0.7,6.4-4.6c6.1-10.5,12.5-21,18.8-31.2c2.7-4.4,5.4-8.8,8-13.1c2.2-3.7,4.5-7.4,6.8-11.4l1.3-2.2
	C308.4,55.6,304.2,52.4,300.1,49.4z M293.8,65.1c-1.8,3-3.7,6.1-5.5,9.1c-5.9,9.8-12.1,20-18.3,29.8c-2,3.2-6.7,4.2-9.1,4.2
	c-3.4,0.1-7.1,0.1-11.8,0.1c-2.2,0-4.5,0-6.8,0c-1.1,0-2.1,0-3.2,0v113.3H73.2V108.3c-1.1,0-2.2,0-3.2,0c-2.4,0-4.7,0-7,0
	c-4.6,0-8.1-0.1-11.5-0.3c-3.8-0.2-8.2-2.7-10.2-5.8C35.4,93.3,29.8,84,24.4,75c-1.8-3-3.6-6-5.4-9L18,64.4l0.5-1.7
	c0-0.1,0-0.1,0-0.2c0.1-0.7,0.4-2.1,1.8-3.1c25.1-19.7,45.5-33,66.3-42.9c3.3-1.6,6.5-2.4,9.6-2.4c2.4,0,4.9,0.5,7.4,1.4
	c17.3,6.2,34.9,9.4,52.5,9.4c17.8,0,36.1-3.3,54.3-9.8c1.8-0.6,3.8-1,5.8-1c2.3,0,4.5,0.4,6.3,1.2c24.8,10.6,45.6,25.8,70.2,44.5
	l2.9,2.2L293.8,65.1z"/>
</svg>
