<?xml version="1.0" encoding="utf-8"?>
<!-- Generator: Adobe Illustrator 25.4.1, SVG Export Plug-In . SVG Version: 6.00 Build 0)  -->
<svg version="1.1" id="Capa_1" xmlns="http://www.w3.org/2000/svg" xmlns:xlink="http://www.w3.org/1999/xlink" x="0px" y="0px"
	 viewBox="0 0 369.8 369.6" style="enable-background:new 0 0 369.8 369.6;" xml:space="preserve">
<g>
	<path d="M185.1,369.6C82.3,370.2-0.8,285,0,183.3C0.8,82.8,83.4,0.5,184.2,0c100.2-0.5,186.1,81.3,185.6,185.9
		C369.3,287.3,286.5,369.7,185.1,369.6z M184.4,346.6c90-0.2,162.3-72.2,162.3-161.7c0-89.3-72.6-161.6-161.7-161.9
		C96,22.7,21.9,96.8,23,187.5C24,274.4,96.7,346.7,184.4,346.6z"/>
	<path d="M178.9,290.5c-32.3-1-62-15.8-84-45.5c-4.1-5.5-3.7-11.6,0.6-15.9c3.8-3.8,9.8-4.5,14.2-1.4c1.8,1.3,3.3,3.2,4.7,5.1
		c17.8,22.9,41.2,34.9,70.3,34.5c29.9-0.5,53.2-13.9,70.1-38.5c0.6-0.8,1-1.7,1.6-2.5c3.9-5.6,10.3-7.1,15.7-3.9
		c5.5,3.3,7.2,10.2,3.7,16.2c-6.6,11.1-15.1,20.7-25.3,28.7C230.8,282.6,208.4,290.3,178.9,290.5z"/>
	<path d="M134.6,148.5c0,11.1-1.9,20-6.3,27.5c-8.3,14.1-21,13.9-29.2-0.3c-8.2-14.2-8.4-37.4-0.5-52c8.2-15.2,21.8-15.3,30.2-0.2
		C133,131.2,134.7,140.1,134.6,148.5z"/>
	<path d="M276.5,148.9c-0.1,11.1-2,19.9-6.6,27.4c-8.4,13.9-21.2,13.5-29.2-0.8c-8-14.3-8-37.5,0-52c8.3-15.1,21.9-15,30.2,0.3
		C275.1,131.5,276.7,140.5,276.5,148.9z"/>
</g>
</svg>
